SplineFontDB: 3.2
FontName: ApxCondenced
FullName: ApxCondenced
FamilyName: ApxCondenced
Weight: Book
Copyright: Copyright (c) 2019 by Ryoichi Tsunekawa. All rights reserved. |DCNT
Version: 1.100;PS 001.100;hotconv 1.0.88;makeotf.lib2.5.64775
ItalicAngle: 0
UnderlinePosition: -200
UnderlineWidth: 60
Ascent: 700
Descent: 300
InvalidEm: 0
sfntRevision: 0x00010042
LayerCount: 2
Layer: 0 1 "Back" 1
Layer: 1 1 "Fore" 0
XUID: [1021 649 926404283 12367748]
StyleMap: 0x0040
FSType: 0
OS2Version: 3
OS2_WeightWidthSlopeOnly: 0
OS2_UseTypoMetrics: 0
CreationTime: 1551367523
ModificationTime: 1602226358
PfmFamily: 17
TTFWeight: 400
TTFWidth: 5
LineGap: 27
VLineGap: 0
Panose: 2 11 5 6 2 2 2 5 2 1
OS2TypoAscent: 700
OS2TypoAOffset: 0
OS2TypoDescent: -300
OS2TypoDOffset: 0
OS2TypoLinegap: 53
OS2WinAscent: 910
OS2WinAOffset: 0
OS2WinDescent: 207
OS2WinDOffset: 0
HheadAscent: 910
HheadAOffset: 0
HheadDescent: -207
HheadDOffset: 0
OS2SubXSize: 650
OS2SubYSize: 600
OS2SubXOff: 0
OS2SubYOff: 75
OS2SupXSize: 650
OS2SupYSize: 600
OS2SupXOff: 0
OS2SupYOff: 350
OS2StrikeYSize: 60
OS2StrikeYPos: 301
OS2CapHeight: 700
OS2XHeight: 503
OS2Vendor: 'dhrm'
OS2CodePages: 20000097.00000000
OS2UnicodeRanges: 00000007.00000001.00000000.00000000
Lookup: 1 0 0 "'aalt' Access All Alternates in Latin lookup 0" { "'aalt' Access All Alternates in Latin lookup 0 subtable"  } ['aalt' ('DFLT' <'dflt' > 'latn' <'AZE ' 'CAT ' 'CRT ' 'KAZ ' 'MOL ' 'NLD ' 'ROM ' 'TAT ' 'TRK ' 'dflt' > ) ]
Lookup: 3 0 0 "'aalt' Access All Alternates in Latin lookup 1" { "'aalt' Access All Alternates in Latin lookup 1 subtable"  } ['aalt' ('DFLT' <'dflt' > 'latn' <'AZE ' 'CAT ' 'CRT ' 'KAZ ' 'MOL ' 'NLD ' 'ROM ' 'TAT ' 'TRK ' 'dflt' > ) ]

StartChar: .notdef
Encoding: 65536 -1 0
Width: 738
Flags: W
LayerCount: 2
Fore
SplineSet
54 0 m 1,0,-1
 54 700 l 1,1,-1
 684 700 l 1,2,-1
 684 0 l 1,3,-1
 54 0 l 1,0,-1
152 134 m 1,4,-1
 586 134 l 1,5,-1
 586 566 l 1,6,-1
 152 566 l 1,7,-1
 152 134 l 1,4,-1
168 550 m 1,8,-1
 282 550 l 1,9,-1
 282 438 l 1,10,-1
 168 438 l 1,11,-1
 168 550 l 1,8,-1
346 390 m 1,12,-1
 314 390 l 1,13,-1
 314 406 l 1,14,-1
 298 406 l 1,15,-1
 298 486 l 1,16,-1
 330 486 l 1,17,-1
 330 518 l 1,18,-1
 298 518 l 1,19,-1
 298 550 l 1,20,-1
 314 550 l 1,21,-1
 314 534 l 1,22,-1
 346 534 l 1,23,-1
 346 518 l 1,24,-1
 362 518 l 1,25,-1
 362 534 l 1,26,-1
 346 534 l 1,27,-1
 346 550 l 1,28,-1
 378 550 l 1,29,-1
 378 534 l 1,30,-1
 394 534 l 1,31,-1
 394 550 l 1,32,-1
 410 550 l 1,33,-1
 410 518 l 1,34,-1
 426 518 l 1,35,-1
 426 502 l 1,36,-1
 410 502 l 1,37,-1
 410 470 l 1,38,-1
 394 470 l 1,39,-1
 394 454 l 1,40,-1
 378 454 l 1,41,-1
 378 502 l 1,42,-1
 346 502 l 1,43,-1
 346 486 l 1,44,-1
 362 486 l 1,45,-1
 362 454 l 1,46,-1
 346 454 l 1,47,-1
 346 470 l 1,48,-1
 314 470 l 1,49,-1
 314 422 l 1,50,-1
 330 422 l 1,51,-1
 330 454 l 1,52,-1
 346 454 l 1,53,-1
 346 438 l 1,54,-1
 362 438 l 1,55,-1
 362 454 l 1,56,-1
 378 454 l 1,57,-1
 378 422 l 1,58,-1
 346 422 l 1,59,-1
 346 390 l 1,12,-1
426 550 m 1,60,-1
 442 550 l 1,61,-1
 442 518 l 1,62,-1
 426 518 l 1,63,-1
 426 550 l 1,60,-1
458 550 m 1,64,-1
 570 550 l 1,65,-1
 570 438 l 1,66,-1
 458 438 l 1,67,-1
 458 550 l 1,64,-1
184 454 m 1,68,-1
 266 454 l 1,69,-1
 266 534 l 1,70,-1
 184 534 l 1,71,-1
 184 454 l 1,68,-1
474 454 m 1,72,-1
 554 454 l 1,73,-1
 554 534 l 1,74,-1
 474 534 l 1,75,-1
 474 454 l 1,72,-1
200 518 m 1,76,-1
 250 518 l 1,77,-1
 250 470 l 1,78,-1
 200 470 l 1,79,-1
 200 518 l 1,76,-1
490 518 m 1,80,-1
 538 518 l 1,81,-1
 538 470 l 1,82,-1
 490 470 l 1,83,-1
 490 518 l 1,80,-1
410 454 m 1,84,-1
 410 422 l 1,85,-1
 394 422 l 1,86,-1
 394 454 l 1,87,-1
 410 454 l 1,84,-1
442 438 m 1,88,-1
 426 438 l 1,89,-1
 426 454 l 1,90,-1
 442 454 l 1,91,-1
 442 438 l 1,88,-1
200 406 m 1,92,-1
 200 390 l 1,93,-1
 217 390 l 1,94,-1
 217 374 l 1,95,-1
 184 374 l 1,96,-1
 184 390 l 1,97,-1
 168 390 l 1,98,-1
 168 422 l 1,99,-1
 217 422 l 1,100,-1
 217 406 l 1,101,-1
 200 406 l 1,92,-1
282 422 m 1,102,-1
 282 406 l 1,103,-1
 266 406 l 1,104,-1
 266 390 l 1,105,-1
 234 390 l 1,106,-1
 234 406 l 1,107,-1
 250 406 l 1,108,-1
 250 422 l 1,109,-1
 282 422 l 1,102,-1
426 390 m 1,110,-1
 426 374 l 1,111,-1
 410 374 l 1,112,-1
 410 422 l 1,113,-1
 426 422 l 1,114,-1
 426 406 l 1,115,-1
 442 406 l 1,116,-1
 442 390 l 1,117,-1
 426 390 l 1,110,-1
442 390 m 1,118,-1
 458 390 l 1,119,-1
 458 406 l 1,120,-1
 442 406 l 1,121,-1
 442 422 l 1,122,-1
 506 422 l 1,123,-1
 506 406 l 1,124,-1
 490 406 l 1,125,-1
 490 390 l 1,126,-1
 506 390 l 1,127,-1
 506 406 l 1,128,-1
 522 406 l 1,129,-1
 522 390 l 1,130,-1
 538 390 l 1,131,-1
 538 374 l 1,132,-1
 522 374 l 1,133,-1
 522 358 l 1,134,-1
 490 358 l 1,135,-1
 490 374 l 1,136,-1
 458 374 l 1,137,-1
 458 358 l 1,138,-1
 442 358 l 1,139,-1
 442 390 l 1,118,-1
570 374 m 1,140,-1
 554 374 l 1,141,-1
 554 390 l 1,142,-1
 538 390 l 1,143,-1
 538 422 l 1,144,-1
 570 422 l 1,145,-1
 570 374 l 1,140,-1
282 406 m 1,146,-1
 298 406 l 1,147,-1
 298 374 l 1,148,-1
 266 374 l 1,149,-1
 266 390 l 1,150,-1
 282 390 l 1,151,-1
 282 406 l 1,146,-1
378 406 m 1,152,-1
 394 406 l 1,153,-1
 394 390 l 1,154,-1
 378 390 l 1,155,-1
 378 406 l 1,152,-1
362 390 m 1,156,-1
 362 374 l 1,157,-1
 346 374 l 1,158,-1
 346 390 l 1,159,-1
 362 390 l 1,156,-1
217 358 m 1,160,-1
 217 374 l 1,161,-1
 234 374 l 1,162,-1
 234 358 l 1,163,-1
 217 358 l 1,160,-1
266 358 m 1,164,-1
 298 358 l 1,165,-1
 298 342 l 1,166,-1
 234 342 l 1,167,-1
 234 358 l 1,168,-1
 250 358 l 1,169,-1
 250 374 l 1,170,-1
 266 374 l 1,171,-1
 266 358 l 1,164,-1
314 326 m 1,172,-1
 314 374 l 1,173,-1
 330 374 l 1,174,-1
 330 326 l 1,175,-1
 314 326 l 1,172,-1
410 358 m 1,176,-1
 394 358 l 1,177,-1
 394 374 l 1,178,-1
 410 374 l 1,179,-1
 410 358 l 1,176,-1
168 358 m 1,180,-1
 184 358 l 1,181,-1
 184 326 l 1,182,-1
 168 326 l 1,183,-1
 168 358 l 1,180,-1
410 342 m 1,184,-1
 458 342 l 1,185,-1
 458 358 l 1,186,-1
 490 358 l 1,187,-1
 490 326 l 1,188,-1
 538 326 l 1,189,-1
 538 310 l 1,190,-1
 490 310 l 1,191,-1
 490 294 l 1,192,-1
 506 294 l 1,193,-1
 506 262 l 1,194,-1
 522 262 l 1,195,-1
 522 246 l 1,196,-1
 506 246 l 1,197,-1
 506 230 l 1,198,-1
 522 230 l 1,199,-1
 522 214 l 1,200,-1
 554 214 l 1,201,-1
 554 198 l 1,202,-1
 570 198 l 1,203,-1
 570 182 l 1,204,-1
 538 182 l 1,205,-1
 538 198 l 1,206,-1
 506 198 l 1,207,-1
 506 166 l 1,208,-1
 474 166 l 1,209,-1
 474 150 l 1,210,-1
 458 150 l 1,211,-1
 458 166 l 1,212,-1
 442 166 l 1,213,-1
 442 150 l 1,214,-1
 426 150 l 1,215,-1
 426 182 l 1,216,-1
 410 182 l 1,217,-1
 410 150 l 1,218,-1
 378 150 l 1,219,-1
 378 166 l 1,220,-1
 394 166 l 1,221,-1
 394 182 l 1,222,-1
 378 182 l 1,223,-1
 378 166 l 1,224,-1
 346 166 l 1,225,-1
 346 182 l 1,226,-1
 362 182 l 1,227,-1
 362 214 l 1,228,-1
 346 214 l 1,229,-1
 346 198 l 1,230,-1
 330 198 l 1,231,-1
 330 230 l 1,232,-1
 378 230 l 1,233,-1
 378 246 l 1,234,-1
 394 246 l 1,235,-1
 394 214 l 1,236,-1
 378 214 l 1,237,-1
 378 198 l 1,238,-1
 410 198 l 1,239,-1
 410 246 l 1,240,-1
 426 246 l 1,241,-1
 426 262 l 1,242,-1
 410 262 l 1,243,-1
 410 278 l 1,244,-1
 394 278 l 1,245,-1
 394 262 l 1,246,-1
 378 262 l 1,247,-1
 378 294 l 1,248,-1
 394 294 l 1,249,-1
 394 310 l 1,250,-1
 410 310 l 1,251,-1
 410 294 l 1,252,-1
 426 294 l 1,253,-1
 426 310 l 1,254,-1
 410 310 l 1,255,-1
 410 342 l 1,184,-1
378 310 m 1,256,-1
 378 294 l 1,257,-1
 346 294 l 1,258,-1
 346 310 l 1,259,-1
 362 310 l 1,260,-1
 362 342 l 1,261,-1
 346 342 l 1,262,-1
 346 358 l 1,263,-1
 378 358 l 1,264,-1
 378 342 l 1,265,-1
 394 342 l 1,266,-1
 394 310 l 1,267,-1
 378 310 l 1,256,-1
570 310 m 1,268,-1
 554 310 l 1,269,-1
 554 326 l 1,270,-1
 538 326 l 1,271,-1
 538 342 l 1,272,-1
 554 342 l 1,273,-1
 554 358 l 1,274,-1
 570 358 l 1,275,-1
 570 310 l 1,268,-1
234 294 m 1,276,-1
 217 294 l 1,277,-1
 217 310 l 1,278,-1
 200 310 l 1,279,-1
 200 326 l 1,280,-1
 217 326 l 1,281,-1
 217 342 l 1,282,-1
 234 342 l 1,283,-1
 234 310 l 1,284,-1
 250 310 l 1,285,-1
 250 278 l 1,286,-1
 234 278 l 1,287,-1
 234 294 l 1,276,-1
298 326 m 1,288,-1
 298 294 l 1,289,-1
 314 294 l 1,290,-1
 314 262 l 1,291,-1
 298 262 l 1,292,-1
 298 278 l 1,293,-1
 266 278 l 1,294,-1
 266 294 l 1,295,-1
 282 294 l 1,296,-1
 282 310 l 1,297,-1
 250 310 l 1,298,-1
 250 326 l 1,299,-1
 298 326 l 1,288,-1
330 326 m 1,300,-1
 346 326 l 1,301,-1
 346 310 l 1,302,-1
 330 310 l 1,303,-1
 330 326 l 1,300,-1
168 310 m 1,304,-1
 200 310 l 1,305,-1
 200 294 l 1,306,-1
 168 294 l 1,307,-1
 168 310 l 1,304,-1
314 310 m 1,308,-1
 330 310 l 1,309,-1
 330 294 l 1,310,-1
 314 294 l 1,311,-1
 314 310 l 1,308,-1
458 310 m 1,312,-1
 442 310 l 1,313,-1
 442 294 l 1,314,-1
 458 294 l 1,315,-1
 458 310 l 1,312,-1
217 278 m 1,316,-1
 200 278 l 1,317,-1
 200 294 l 1,318,-1
 217 294 l 1,319,-1
 217 278 l 1,316,-1
346 278 m 1,320,-1
 330 278 l 1,321,-1
 330 294 l 1,322,-1
 346 294 l 1,323,-1
 346 278 l 1,320,-1
538 294 m 1,324,-1
 554 294 l 1,325,-1
 554 278 l 1,326,-1
 538 278 l 1,327,-1
 538 294 l 1,324,-1
442 230 m 1,328,-1
 490 230 l 1,329,-1
 490 278 l 1,330,-1
 442 278 l 1,331,-1
 442 230 l 1,328,-1
522 278 m 1,332,-1
 538 278 l 1,333,-1
 538 262 l 1,334,-1
 522 262 l 1,335,-1
 522 278 l 1,332,-1
538 230 m 1,336,-1
 538 246 l 1,337,-1
 554 246 l 1,338,-1
 554 278 l 1,339,-1
 570 278 l 1,340,-1
 570 214 l 1,341,-1
 554 214 l 1,342,-1
 554 230 l 1,343,-1
 538 230 l 1,336,-1
168 262 m 1,344,-1
 282 262 l 1,345,-1
 282 150 l 1,346,-1
 168 150 l 1,347,-1
 168 262 l 1,344,-1
314 246 m 1,348,-1
 314 262 l 1,349,-1
 330 262 l 1,350,-1
 330 230 l 1,351,-1
 298 230 l 1,352,-1
 298 246 l 1,353,-1
 314 246 l 1,348,-1
362 246 m 1,354,-1
 346 246 l 1,355,-1
 346 262 l 1,356,-1
 362 262 l 1,357,-1
 362 246 l 1,354,-1
458 262 m 1,358,-1
 474 262 l 1,359,-1
 474 246 l 1,360,-1
 458 246 l 1,361,-1
 458 262 l 1,358,-1
184 166 m 1,362,-1
 266 166 l 1,363,-1
 266 246 l 1,364,-1
 184 246 l 1,365,-1
 184 166 l 1,362,-1
200 230 m 1,366,-1
 250 230 l 1,367,-1
 250 182 l 1,368,-1
 200 182 l 1,369,-1
 200 230 l 1,366,-1
426 198 m 1,370,-1
 442 198 l 1,371,-1
 442 214 l 1,372,-1
 426 214 l 1,373,-1
 426 198 l 1,370,-1
458 182 m 1,374,-1
 490 182 l 1,375,-1
 490 214 l 1,376,-1
 458 214 l 1,377,-1
 458 182 l 1,374,-1
298 198 m 1,378,-1
 330 198 l 1,379,-1
 330 166 l 1,380,-1
 346 166 l 1,381,-1
 346 150 l 1,382,-1
 298 150 l 1,383,-1
 298 198 l 1,378,-1
522 166 m 1,384,-1
 522 150 l 1,385,-1
 506 150 l 1,386,-1
 506 166 l 1,387,-1
 522 166 l 1,384,-1
570 150 m 1,388,-1
 554 150 l 1,389,-1
 554 166 l 1,390,-1
 570 166 l 1,391,-1
 570 150 l 1,388,-1
EndSplineSet
EndChar

StartChar: exclam
Encoding: 33 33 5
Width: 198
GlyphClass: 2
Flags: W
LayerCount: 2
Fore
SplineSet
129 176 m 1,0,-1
 70 176 l 1,1,-1
 60 372 l 1,2,-1
 60 701 l 1,3,-1
 138 701 l 1,4,-1
 138 372 l 1,5,-1
 129 176 l 1,0,-1
139 0 m 1,6,-1
 60 0 l 1,7,-1
 60 101 l 1,8,-1
 139 101 l 1,9,-1
 139 0 l 1,6,-1
EndSplineSet
EndChar

StartChar: quotedbl
Encoding: 34 34 6
Width: 290
GlyphClass: 2
Flags: W
LayerCount: 2
Fore
SplineSet
104 497 m 1,0,-1
 61 497 l 1,1,-1
 43 700 l 1,2,-1
 123 700 l 1,3,-1
 104 497 l 1,0,-1
228 497 m 1,4,-1
 186 497 l 1,5,-1
 167 700 l 1,6,-1
 247 700 l 1,7,-1
 228 497 l 1,4,-1
EndSplineSet
EndChar

StartChar: numbersign
Encoding: 35 35 7
Width: 400
GlyphClass: 2
Flags: W
LayerCount: 2
Fore
SplineSet
116 0 m 1,0,-1
 56 0 l 1,1,-1
 79 213 l 1,2,-1
 22 213 l 1,3,-1
 27 266 l 1,4,-1
 84 266 l 1,5,-1
 105 474 l 1,6,-1
 47 474 l 1,7,-1
 52 527 l 1,8,-1
 111 527 l 1,9,-1
 128 701 l 1,10,-1
 187 701 l 1,11,-1
 170 527 l 1,12,-1
 265 527 l 1,13,-1
 283 701 l 1,14,-1
 342 701 l 1,15,-1
 324 527 l 1,16,-1
 380 527 l 1,17,-1
 374 474 l 1,18,-1
 319 474 l 1,19,-1
 298 266 l 1,20,-1
 353 266 l 1,21,-1
 348 213 l 1,22,-1
 293 213 l 1,23,-1
 271 0 l 1,24,-1
 212 0 l 1,25,-1
 233 213 l 1,26,-1
 138 213 l 1,27,-1
 116 0 l 1,0,-1
164 474 m 1,28,-1
 143 266 l 1,29,-1
 239 266 l 1,30,-1
 259 474 l 1,31,-1
 164 474 l 1,28,-1
EndSplineSet
EndChar

StartChar: dollar
Encoding: 36 36 8
Width: 400
GlyphClass: 2
Flags: W
LayerCount: 2
Fore
SplineSet
358 174 m 0,0,1
 358 107 358 107 326 65 c 128,-1,2
 294 23 294 23 234 14 c 1,3,-1
 234 -55 l 1,4,-1
 169 -55 l 1,5,-1
 169 13 l 1,6,7
 107 21 107 21 75 62.5 c 128,-1,8
 43 104 43 104 43 173 c 2,9,-1
 43 216 l 1,10,-1
 117 216 l 1,11,-1
 117 168 l 2,12,13
 117 127 117 127 138.5 105 c 128,-1,14
 160 83 160 83 199 83 c 128,-1,15
 238 83 238 83 259 105 c 128,-1,16
 280 127 280 127 280 169 c 0,17,18
 280 212 280 212 257 246 c 0,19,20
 235 279 235 279 173 328 c 0,21,22
 101 383 101 383 73 428 c 0,23,24
 45 472 45 472 45 530 c 0,25,26
 45 595 45 595 77 636 c 128,-1,27
 109 677 109 677 169 687 c 1,28,-1
 169 745 l 1,29,-1
 234 745 l 1,30,-1
 234 687 l 1,31,32
 293 678 293 678 324.5 636.5 c 128,-1,33
 356 595 356 595 356 528 c 2,34,-1
 356 506 l 1,35,-1
 282 506 l 1,36,-1
 282 533 l 2,37,38
 282 618 282 618 203 618 c 0,39,40
 165 618 165 618 144 596.5 c 128,-1,41
 123 575 123 575 123 535 c 0,42,43
 123 493 123 493 145 461 c 128,-1,44
 167 429 167 429 231 380 c 0,45,46
 302 325 302 325 330 279 c 0,47,48
 358 236 358 236 358 174 c 0,0,1
EndSplineSet
EndChar

StartChar: percent
Encoding: 37 37 9
Width: 569
GlyphClass: 2
Flags: W
LayerCount: 2
Fore
SplineSet
28 420 m 2,0,-1
 28 600 l 2,1,2
 28 653 28 653 54.5 682 c 128,-1,3
 81 711 81 711 131 711 c 0,4,5
 180 711 180 711 207 682 c 128,-1,6
 234 653 234 653 234 600 c 2,7,-1
 234 420 l 2,8,9
 234 367 234 367 207.5 338.5 c 128,-1,10
 181 310 181 310 131 310 c 128,-1,11
 81 310 81 310 54.5 338.5 c 128,-1,12
 28 367 28 367 28 420 c 2,0,-1
175 0 m 1,13,-1
 121 0 l 1,14,-1
 394 700 l 1,15,-1
 447 700 l 1,16,-1
 175 0 l 1,13,-1
180 416 m 2,17,-1
 180 604 l 2,18,19
 180 662 180 662 131 662 c 128,-1,20
 82 662 82 662 82 604 c 2,21,-1
 82 416 l 2,22,23
 82 358 82 358 131 358 c 128,-1,24
 180 358 180 358 180 416 c 2,17,-1
439 -10 m 0,25,26
 389 -10 389 -10 362.5 19 c 128,-1,27
 336 48 336 48 336 101 c 2,28,-1
 336 281 l 2,29,30
 336 334 336 334 362.5 362.5 c 128,-1,31
 389 391 389 391 439 391 c 128,-1,32
 489 391 489 391 515.5 362.5 c 128,-1,33
 542 334 542 334 542 281 c 2,34,-1
 542 101 l 2,35,36
 542 48 542 48 515 19 c 128,-1,37
 488 -10 488 -10 439 -10 c 0,25,26
488 97 m 2,38,-1
 488 285 l 2,39,40
 488 343 488 343 439 343 c 128,-1,41
 390 343 390 343 390 285 c 2,42,-1
 390 97 l 2,43,44
 390 39 390 39 439 39 c 128,-1,45
 488 39 488 39 488 97 c 2,38,-1
EndSplineSet
EndChar

StartChar: ampersand
Encoding: 38 38 10
Width: 412
GlyphClass: 2
Flags: W
LayerCount: 2
Fore
SplineSet
387 393 m 1,0,-1
 387 324 l 1,1,-1
 355 324 l 1,2,-1
 355 137 l 2,3,4
 355 48 355 48 367 0 c 1,5,-1
 297 0 l 1,6,7
 293 10 293 10 288 67 c 1,8,9
 253 -10 253 -10 165 -10 c 0,10,11
 40 -10 40 -10 40 136 c 2,12,-1
 40 219 l 2,13,14
 40 334 40 334 123 361 c 1,15,-1
 123 363 l 1,16,17
 42 392 42 392 42 504 c 2,18,-1
 42 541 l 2,19,20
 42 623 42 623 81.5 666.5 c 128,-1,21
 121 710 121 710 198 710 c 0,22,23
 355 710 355 710 355 540 c 2,24,-1
 355 518 l 1,25,-1
 282 518 l 1,26,-1
 282 547 l 2,27,28
 282 640 282 640 201 640 c 0,29,30
 118 640 118 640 118 543 c 2,31,-1
 118 488 l 2,32,33
 118 393 118 393 207 393 c 2,34,-1
 387 393 l 1,0,-1
280 169 m 2,35,-1
 280 324 l 1,36,-1
 206 324 l 2,37,38
 116 324 116 324 116 219 c 2,39,-1
 116 142 l 2,40,41
 116 58 116 58 189 58 c 0,42,43
 230 58 230 58 255 87.5 c 128,-1,44
 280 117 280 117 280 169 c 2,35,-1
EndSplineSet
EndChar

StartChar: quotesingle
Encoding: 39 39 11
Width: 165
GlyphClass: 2
Flags: W
LayerCount: 2
Fore
SplineSet
104 497 m 1,0,-1
 61 497 l 1,1,-1
 43 700 l 1,2,-1
 123 700 l 1,3,-1
 104 497 l 1,0,-1
EndSplineSet
EndChar

StartChar: parenleft
Encoding: 40 40 12
Width: 264
GlyphClass: 2
Flags: W
LayerCount: 2
Fore
SplineSet
229 -100 m 1,0,-1
 200 -100 l 2,1,2
 128 -100 128 -100 93.5 -67.5 c 128,-1,3
 59 -35 59 -35 59 43 c 2,4,-1
 59 558 l 2,5,6
 59 631 59 631 91 665.5 c 128,-1,7
 123 700 123 700 200 700 c 2,8,-1
 229 700 l 1,9,-1
 229 640 l 1,10,-1
 205 640 l 2,11,12
 167 640 167 640 149.5 622 c 128,-1,13
 132 604 132 604 132 558 c 2,14,-1
 132 43 l 2,15,16
 132 0 132 0 149 -20 c 128,-1,17
 166 -40 166 -40 205 -40 c 2,18,-1
 229 -40 l 1,19,-1
 229 -100 l 1,0,-1
EndSplineSet
EndChar

StartChar: parenright
Encoding: 41 41 13
Width: 264
GlyphClass: 2
Flags: W
LayerCount: 2
Fore
SplineSet
64 -100 m 2,0,-1
 35 -100 l 1,1,-1
 35 -40 l 1,2,-1
 59 -40 l 2,3,4
 97 -40 97 -40 115 -21.5 c 128,-1,5
 133 -3 133 -3 133 43 c 2,6,-1
 133 558 l 2,7,8
 133 601 133 601 116 620.5 c 128,-1,9
 99 640 99 640 59 640 c 2,10,-1
 35 640 l 1,11,-1
 35 700 l 1,12,-1
 64 700 l 2,13,14
 137 700 137 700 171 667.5 c 128,-1,15
 205 635 205 635 205 558 c 2,16,-1
 205 43 l 2,17,18
 205 -31 205 -31 173 -65.5 c 128,-1,19
 141 -100 141 -100 64 -100 c 2,0,-1
EndSplineSet
EndChar

StartChar: asterisk
Encoding: 42 42 14
Width: 407
GlyphClass: 2
Flags: W
LayerCount: 2
Fore
SplineSet
203 488 m 1,0,-1
 125 357 l 1,1,-1
 73 395 l 1,2,-1
 172 510 l 1,3,-1
 23 544 l 1,4,-1
 43 605 l 1,5,-1
 185 546 l 1,6,-1
 171 700 l 1,7,-1
 236 700 l 1,8,-1
 222 546 l 1,9,-1
 364 604 l 1,10,-1
 384 543 l 1,11,-1
 235 510 l 1,12,-1
 334 395 l 1,13,-1
 282 357 l 1,14,-1
 203 488 l 1,0,-1
EndSplineSet
EndChar

StartChar: plus
Encoding: 43 43 15
Width: 400
GlyphClass: 2
Flags: W
LayerCount: 2
Fore
SplineSet
230 128 m 1,0,-1
 170 128 l 1,1,-1
 170 271 l 1,2,-1
 30 271 l 1,3,-1
 30 331 l 1,4,-1
 170 331 l 1,5,-1
 170 472 l 1,6,-1
 230 472 l 1,7,-1
 230 331 l 1,8,-1
 370 331 l 1,9,-1
 370 271 l 1,10,-1
 230 271 l 1,11,-1
 230 128 l 1,0,-1
EndSplineSet
EndChar

StartChar: comma
Encoding: 44 44 16
Width: 183
GlyphClass: 2
Flags: W
LayerCount: 2
Fore
SplineSet
82 -108 m 1,0,-1
 46 -108 l 1,1,-1
 80 0 l 1,2,-1
 52 0 l 1,3,-1
 52 101 l 1,4,-1
 131 101 l 1,5,-1
 131 8 l 1,6,-1
 82 -108 l 1,0,-1
EndSplineSet
EndChar

StartChar: hyphen
Encoding: 45 45 17
Width: 265
GlyphClass: 2
Flags: W
LayerCount: 2
Fore
SplineSet
235 268 m 1,0,-1
 30 268 l 1,1,-1
 30 332 l 1,2,-1
 235 332 l 1,3,-1
 235 268 l 1,0,-1
EndSplineSet
EndChar

StartChar: period
Encoding: 46 46 18
Width: 183
GlyphClass: 2
Flags: W
LayerCount: 2
Fore
SplineSet
131 0 m 1,0,-1
 52 0 l 1,1,-1
 52 101 l 1,2,-1
 131 101 l 1,3,-1
 131 0 l 1,0,-1
EndSplineSet
EndChar

StartChar: slash
Encoding: 47 47 19
Width: 373
GlyphClass: 2
Flags: W
LayerCount: 2
Fore
SplineSet
83 -100 m 1,0,-1
 15 -100 l 1,1,-1
 291 700 l 1,2,-1
 359 700 l 1,3,-1
 83 -100 l 1,0,-1
EndSplineSet
Substitution2: "'frac' Diagonal Fractions in Latin lookup 17 subtable" fraction
Substitution2: "'aalt' Access All Alternates in Latin lookup 0 subtable" fraction
EndChar

StartChar: zero
Encoding: 48 48 20
Width: 400
GlyphClass: 2
Flags: W
LayerCount: 2
Fore
SplineSet
200 -10 m 0,0,1
 123 -10 123 -10 81.5 35 c 128,-1,2
 40 80 40 80 40 163 c 2,3,-1
 40 538 l 2,4,5
 40 621 40 621 81.5 665.5 c 128,-1,6
 123 710 123 710 200 710 c 0,7,8
 278 710 278 710 319.5 665.5 c 128,-1,9
 361 621 361 621 361 538 c 2,10,-1
 361 163 l 2,11,12
 361 80 361 80 319.5 35 c 128,-1,13
 278 -10 278 -10 200 -10 c 0,0,1
200 61 m 0,14,15
 283 61 283 61 283 158 c 2,16,-1
 283 543 l 2,17,18
 283 639 283 639 200 639 c 0,19,20
 118 639 118 639 118 543 c 2,21,-1
 118 158 l 2,22,23
 118 61 118 61 200 61 c 0,14,15
EndSplineSet
Substitution2: "'tnum' Tabular Numbers in Latin lookup 23 subtable" zero.tnum
Substitution2: "'frac' Diagonal Fractions in Latin lookup 18 subtable" zero.numr
Substitution2: "'dnom' Denominators in Latin lookup 16 subtable" zero.dnom
Substitution2: "'numr' Numerators in Latin lookup 15 subtable" zero.numr
Substitution2: "'sups' Superscript in Latin lookup 14 subtable" uni2070
Substitution2: "'sinf' Scientific Inferiors in Latin lookup 13 subtable" uni2080
Substitution2: "'subs' Subscript in Latin lookup 12 subtable" uni2080
AlternateSubs2: "'aalt' Access All Alternates in Latin lookup 1 subtable" uni2080 uni2070 zero.numr zero.dnom zero.tnum
EndChar

StartChar: one
Encoding: 49 49 21
Width: 277
GlyphClass: 2
Flags: W
LayerCount: 2
Fore
SplineSet
222 0 m 1,0,-1
 144 0 l 1,1,-1
 144 572 l 1,2,3
 98 551 98 551 24 550 c 1,4,-1
 24 608 l 1,5,6
 84 609 84 609 117.5 630.5 c 128,-1,7
 151 652 151 652 168 701 c 1,8,-1
 222 701 l 1,9,-1
 222 0 l 1,0,-1
EndSplineSet
Substitution2: "'tnum' Tabular Numbers in Latin lookup 23 subtable" one.tnum
Substitution2: "'frac' Diagonal Fractions in Latin lookup 18 subtable" one.numr
Substitution2: "'dnom' Denominators in Latin lookup 16 subtable" one.dnom
Substitution2: "'numr' Numerators in Latin lookup 15 subtable" one.numr
Substitution2: "'sups' Superscript in Latin lookup 14 subtable" uni00B9
Substitution2: "'sinf' Scientific Inferiors in Latin lookup 13 subtable" uni2081
Substitution2: "'subs' Subscript in Latin lookup 12 subtable" uni2081
AlternateSubs2: "'aalt' Access All Alternates in Latin lookup 1 subtable" uni2081 uni00B9 one.numr one.dnom one.tnum
EndChar

StartChar: two
Encoding: 50 50 22
Width: 369
GlyphClass: 2
Flags: W
LayerCount: 2
Fore
SplineSet
337 0 m 1,0,-1
 29 0 l 1,1,-1
 29 60 l 2,2,3
 29 141 29 141 58 201 c 0,4,5
 89 261 89 261 153 328 c 0,6,7
 216 394 216 394 241 437 c 0,8,9
 267 483 267 483 267 535 c 0,10,11
 267 639 267 639 186 639 c 0,12,13
 103 639 103 639 103 543 c 2,14,-1
 103 480 l 1,15,-1
 29 480 l 1,16,-1
 29 538 l 2,17,18
 29 620 29 620 69 665 c 128,-1,19
 109 710 109 710 188 710 c 0,20,21
 265 710 265 710 305 665 c 128,-1,22
 345 620 345 620 345 538 c 0,23,24
 345 475 345 475 314.5 417.5 c 128,-1,25
 284 360 284 360 213 286 c 0,26,27
 157 230 157 230 130 184 c 0,28,29
 106 142 106 142 106 86 c 2,30,-1
 106 71 l 1,31,-1
 337 71 l 1,32,-1
 337 0 l 1,0,-1
EndSplineSet
Substitution2: "'tnum' Tabular Numbers in Latin lookup 23 subtable" two.tnum
Substitution2: "'frac' Diagonal Fractions in Latin lookup 18 subtable" two.numr
Substitution2: "'dnom' Denominators in Latin lookup 16 subtable" two.dnom
Substitution2: "'numr' Numerators in Latin lookup 15 subtable" two.numr
Substitution2: "'sups' Superscript in Latin lookup 14 subtable" uni00B2
Substitution2: "'sinf' Scientific Inferiors in Latin lookup 13 subtable" uni2082
Substitution2: "'subs' Subscript in Latin lookup 12 subtable" uni2082
AlternateSubs2: "'aalt' Access All Alternates in Latin lookup 1 subtable" uni2082 uni00B2 two.numr two.dnom two.tnum
EndChar

StartChar: three
Encoding: 51 51 23
Width: 376
GlyphClass: 2
Flags: W
LayerCount: 2
Fore
SplineSet
185 -10 m 0,0,1
 106 -10 106 -10 66 34.5 c 128,-1,2
 26 79 26 79 26 161 c 2,3,-1
 26 214 l 1,4,-1
 100 214 l 1,5,-1
 100 158 l 2,6,7
 100 61 100 61 183 61 c 0,8,9
 265 61 265 61 265 165 c 2,10,-1
 265 226 l 2,11,12
 265 330 265 330 177 330 c 2,13,-1
 135 330 l 1,14,-1
 135 401 l 1,15,-1
 179 401 l 2,16,17
 263 401 263 401 263 496 c 2,18,-1
 263 542 l 2,19,20
 263 639 263 639 183 639 c 0,21,22
 104 639 104 639 104 545 c 2,23,-1
 104 504 l 1,24,-1
 30 504 l 1,25,-1
 30 539 l 2,26,27
 30 622 30 622 69.5 666 c 128,-1,28
 109 710 109 710 186 710 c 0,29,30
 261 710 261 710 301 666 c 128,-1,31
 341 622 341 622 341 540 c 2,32,-1
 341 512 l 2,33,34
 341 397 341 397 259 370 c 1,35,-1
 259 368 l 1,36,37
 343 341 343 341 343 226 c 2,38,-1
 343 161 l 2,39,40
 343 78 343 78 303 34 c 128,-1,41
 263 -10 263 -10 185 -10 c 0,0,1
EndSplineSet
Substitution2: "'tnum' Tabular Numbers in Latin lookup 23 subtable" three.tnum
Substitution2: "'frac' Diagonal Fractions in Latin lookup 18 subtable" three.numr
Substitution2: "'dnom' Denominators in Latin lookup 16 subtable" three.dnom
Substitution2: "'numr' Numerators in Latin lookup 15 subtable" three.numr
Substitution2: "'sups' Superscript in Latin lookup 14 subtable" uni00B3
Substitution2: "'sinf' Scientific Inferiors in Latin lookup 13 subtable" uni2083
Substitution2: "'subs' Subscript in Latin lookup 12 subtable" uni2083
AlternateSubs2: "'aalt' Access All Alternates in Latin lookup 1 subtable" uni2083 uni00B3 three.numr three.dnom three.tnum
EndChar

StartChar: four
Encoding: 52 52 24
Width: 398
GlyphClass: 2
Flags: W
LayerCount: 2
Fore
SplineSet
324 0 m 1,0,-1
 246 0 l 1,1,-1
 246 141 l 1,2,-1
 19 141 l 1,3,-1
 19 213 l 1,4,-1
 237 700 l 1,5,-1
 324 700 l 1,6,-1
 324 212 l 1,7,-1
 380 212 l 1,8,-1
 380 141 l 1,9,-1
 324 141 l 1,10,-1
 324 0 l 1,0,-1
246 562 m 1,11,-1
 92 212 l 1,12,-1
 246 212 l 1,13,-1
 246 562 l 1,11,-1
EndSplineSet
Substitution2: "'tnum' Tabular Numbers in Latin lookup 23 subtable" four.tnum
Substitution2: "'frac' Diagonal Fractions in Latin lookup 18 subtable" four.numr
Substitution2: "'dnom' Denominators in Latin lookup 16 subtable" four.dnom
Substitution2: "'numr' Numerators in Latin lookup 15 subtable" four.numr
Substitution2: "'sups' Superscript in Latin lookup 14 subtable" uni2074
Substitution2: "'sinf' Scientific Inferiors in Latin lookup 13 subtable" uni2084
Substitution2: "'subs' Subscript in Latin lookup 12 subtable" uni2084
AlternateSubs2: "'aalt' Access All Alternates in Latin lookup 1 subtable" uni2084 uni2074 four.numr four.dnom four.tnum
EndChar

StartChar: five
Encoding: 53 53 25
Width: 381
GlyphClass: 2
Flags: W
LayerCount: 2
Fore
SplineSet
192 -10 m 0,0,1
 113 -10 113 -10 73 35 c 128,-1,2
 33 80 33 80 33 163 c 2,3,-1
 33 210 l 1,4,-1
 107 210 l 1,5,-1
 107 157 l 2,6,7
 107 61 107 61 190 61 c 0,8,9
 272 61 272 61 272 157 c 2,10,-1
 272 308 l 2,11,12
 272 402 272 402 195 402 c 0,13,14
 125 402 125 402 110 325 c 1,15,-1
 110 319 l 1,16,-1
 36 319 l 1,17,-1
 56 700 l 1,18,-1
 334 700 l 1,19,-1
 334 629 l 1,20,-1
 125 629 l 1,21,-1
 114 416 l 1,22,23
 148 473 148 473 224 473 c 0,24,25
 350 473 350 473 350 314 c 2,26,-1
 350 163 l 2,27,28
 350 80 350 80 310 35 c 128,-1,29
 270 -10 270 -10 192 -10 c 0,0,1
EndSplineSet
Substitution2: "'tnum' Tabular Numbers in Latin lookup 23 subtable" five.tnum
Substitution2: "'frac' Diagonal Fractions in Latin lookup 18 subtable" five.numr
Substitution2: "'dnom' Denominators in Latin lookup 16 subtable" five.dnom
Substitution2: "'numr' Numerators in Latin lookup 15 subtable" five.numr
Substitution2: "'sups' Superscript in Latin lookup 14 subtable" uni2075
Substitution2: "'sinf' Scientific Inferiors in Latin lookup 13 subtable" uni2085
Substitution2: "'subs' Subscript in Latin lookup 12 subtable" uni2085
AlternateSubs2: "'aalt' Access All Alternates in Latin lookup 1 subtable" uni2085 uni2075 five.numr five.dnom five.tnum
EndChar

StartChar: six
Encoding: 54 54 26
Width: 392
GlyphClass: 2
Flags: W
LayerCount: 2
Fore
SplineSet
200 -10 m 0,0,1
 122 -10 122 -10 80.5 35 c 128,-1,2
 39 80 39 80 39 163 c 2,3,-1
 39 534 l 2,4,5
 39 710 39 710 200 710 c 0,6,7
 277 710 277 710 317.5 665.5 c 128,-1,8
 358 621 358 621 358 538 c 2,9,-1
 358 525 l 1,10,-1
 284 525 l 1,11,-1
 284 543 l 2,12,13
 284 639 284 639 202 639 c 0,14,15
 117 639 117 639 117 531 c 2,16,-1
 117 373 l 1,17,18
 152 442 152 442 232 442 c 0,19,20
 360 442 360 442 360 281 c 2,21,-1
 360 163 l 2,22,23
 360 80 360 80 318.5 35 c 128,-1,24
 277 -10 277 -10 200 -10 c 0,0,1
200 61 m 0,25,26
 282 61 282 61 282 157 c 2,27,-1
 282 275 l 2,28,29
 282 371 282 371 203 371 c 0,30,31
 163 371 163 371 140 343 c 128,-1,32
 117 315 117 315 117 268 c 2,33,-1
 117 157 l 2,34,35
 117 61 117 61 200 61 c 0,25,26
EndSplineSet
Substitution2: "'tnum' Tabular Numbers in Latin lookup 23 subtable" six.tnum
Substitution2: "'frac' Diagonal Fractions in Latin lookup 18 subtable" six.numr
Substitution2: "'dnom' Denominators in Latin lookup 16 subtable" six.dnom
Substitution2: "'numr' Numerators in Latin lookup 15 subtable" six.numr
Substitution2: "'sups' Superscript in Latin lookup 14 subtable" uni2076
Substitution2: "'sinf' Scientific Inferiors in Latin lookup 13 subtable" uni2086
Substitution2: "'subs' Subscript in Latin lookup 12 subtable" uni2086
AlternateSubs2: "'aalt' Access All Alternates in Latin lookup 1 subtable" uni2086 uni2076 six.numr six.dnom six.tnum
EndChar

StartChar: seven
Encoding: 55 55 27
Width: 356
GlyphClass: 2
Flags: W
LayerCount: 2
Fore
SplineSet
145 0 m 1,0,-1
 64 0 l 1,1,-1
 260 629 l 1,2,-1
 17 629 l 1,3,-1
 17 700 l 1,4,-1
 337 700 l 1,5,-1
 337 631 l 1,6,-1
 145 0 l 1,0,-1
EndSplineSet
Substitution2: "'tnum' Tabular Numbers in Latin lookup 23 subtable" seven.tnum
Substitution2: "'frac' Diagonal Fractions in Latin lookup 18 subtable" seven.numr
Substitution2: "'dnom' Denominators in Latin lookup 16 subtable" seven.dnom
Substitution2: "'numr' Numerators in Latin lookup 15 subtable" seven.numr
Substitution2: "'sups' Superscript in Latin lookup 14 subtable" uni2077
Substitution2: "'sinf' Scientific Inferiors in Latin lookup 13 subtable" uni2087
Substitution2: "'subs' Subscript in Latin lookup 12 subtable" uni2087
AlternateSubs2: "'aalt' Access All Alternates in Latin lookup 1 subtable" uni2087 uni2077 seven.numr seven.dnom seven.tnum
EndChar

StartChar: eight
Encoding: 56 56 28
Width: 396
GlyphClass: 2
Flags: W
LayerCount: 2
Fore
SplineSet
33 161 m 2,0,-1
 33 226 l 2,1,2
 33 337 33 337 112 368 c 1,3,-1
 112 369 l 1,4,5
 37 404 37 404 37 508 c 2,6,-1
 37 542 l 2,7,8
 37 624 37 624 78 667 c 128,-1,9
 119 710 119 710 198 710 c 128,-1,10
 277 710 277 710 318.5 667 c 128,-1,11
 360 624 360 624 360 542 c 2,12,-1
 360 508 l 2,13,14
 360 403 360 403 284 369 c 1,15,-1
 284 368 l 1,16,17
 364 336 364 336 364 226 c 2,18,-1
 364 161 l 2,19,20
 364 79 364 79 321 34.5 c 128,-1,21
 278 -10 278 -10 198 -10 c 128,-1,22
 118 -10 118 -10 75.5 34.5 c 128,-1,23
 33 79 33 79 33 161 c 2,0,-1
198 401 m 0,24,25
 282 401 282 401 282 493 c 2,26,-1
 282 544 l 2,27,28
 282 639 282 639 198 639 c 0,29,30
 115 639 115 639 115 544 c 2,31,-1
 115 493 l 2,32,33
 115 401 115 401 198 401 c 0,24,25
198 61 m 0,34,35
 286 61 286 61 286 165 c 2,36,-1
 286 233 l 2,37,38
 286 330 286 330 198 330 c 0,39,40
 111 330 111 330 111 233 c 2,41,-1
 111 165 l 2,42,43
 111 61 111 61 198 61 c 0,34,35
EndSplineSet
Substitution2: "'tnum' Tabular Numbers in Latin lookup 23 subtable" eight.tnum
Substitution2: "'frac' Diagonal Fractions in Latin lookup 18 subtable" eight.numr
Substitution2: "'dnom' Denominators in Latin lookup 16 subtable" eight.dnom
Substitution2: "'numr' Numerators in Latin lookup 15 subtable" eight.numr
Substitution2: "'sups' Superscript in Latin lookup 14 subtable" uni2078
Substitution2: "'sinf' Scientific Inferiors in Latin lookup 13 subtable" uni2088
Substitution2: "'subs' Subscript in Latin lookup 12 subtable" uni2088
AlternateSubs2: "'aalt' Access All Alternates in Latin lookup 1 subtable" uni2088 uni2078 eight.numr eight.dnom eight.tnum
EndChar

StartChar: nine
Encoding: 57 57 29
Width: 393
GlyphClass: 2
Flags: W
LayerCount: 2
Fore
SplineSet
193 -10 m 0,0,1
 115 -10 115 -10 75 34.5 c 128,-1,2
 35 79 35 79 35 163 c 2,3,-1
 35 175 l 1,4,-1
 109 175 l 1,5,-1
 109 158 l 2,6,7
 109 61 109 61 191 61 c 0,8,9
 234 61 234 61 254.5 87 c 128,-1,10
 275 113 275 113 275 170 c 2,11,-1
 275 328 l 1,12,13
 241 258 241 258 161 258 c 0,14,15
 32 258 32 258 32 420 c 2,16,-1
 32 538 l 2,17,18
 32 621 32 621 73.5 665.5 c 128,-1,19
 115 710 115 710 193 710 c 0,20,21
 270 710 270 710 311.5 665.5 c 128,-1,22
 353 621 353 621 353 538 c 2,23,-1
 353 167 l 2,24,25
 353 -10 353 -10 193 -10 c 0,0,1
189 329 m 0,26,27
 230 329 230 329 252.5 356.5 c 128,-1,28
 275 384 275 384 275 432 c 2,29,-1
 275 543 l 2,30,31
 275 639 275 639 193 639 c 0,32,33
 110 639 110 639 110 543 c 2,34,-1
 110 426 l 2,35,36
 110 329 110 329 189 329 c 0,26,27
EndSplineSet
Substitution2: "'tnum' Tabular Numbers in Latin lookup 23 subtable" nine.tnum
Substitution2: "'frac' Diagonal Fractions in Latin lookup 18 subtable" nine.numr
Substitution2: "'dnom' Denominators in Latin lookup 16 subtable" nine.dnom
Substitution2: "'numr' Numerators in Latin lookup 15 subtable" nine.numr
Substitution2: "'sups' Superscript in Latin lookup 14 subtable" uni2079
Substitution2: "'sinf' Scientific Inferiors in Latin lookup 13 subtable" uni2089
Substitution2: "'subs' Subscript in Latin lookup 12 subtable" uni2089
AlternateSubs2: "'aalt' Access All Alternates in Latin lookup 1 subtable" uni2089 uni2079 nine.numr nine.dnom nine.tnum
EndChar

StartChar: colon
Encoding: 58 58 30
Width: 183
GlyphClass: 2
Flags: W
LayerCount: 2
Fore
SplineSet
131 381 m 1,0,-1
 52 381 l 1,1,-1
 52 482 l 1,2,-1
 131 482 l 1,3,-1
 131 381 l 1,0,-1
131 0 m 1,4,-1
 52 0 l 1,5,-1
 52 101 l 1,6,-1
 131 101 l 1,7,-1
 131 0 l 1,4,-1
EndSplineSet
EndChar

StartChar: semicolon
Encoding: 59 59 31
Width: 183
GlyphClass: 2
Flags: W
LayerCount: 2
Fore
SplineSet
131 381 m 1,0,-1
 52 381 l 1,1,-1
 52 482 l 1,2,-1
 131 482 l 1,3,-1
 131 381 l 1,0,-1
82 -108 m 1,4,-1
 46 -108 l 1,5,-1
 80 0 l 1,6,-1
 52 0 l 1,7,-1
 52 101 l 1,8,-1
 131 101 l 1,9,-1
 131 8 l 1,10,-1
 82 -108 l 1,4,-1
EndSplineSet
EndChar

StartChar: less
Encoding: 60 60 32
Width: 400
GlyphClass: 2
Flags: W
LayerCount: 2
Fore
SplineSet
347 196 m 1,0,-1
 347 134 l 1,1,-1
 47 272 l 1,2,-1
 47 329 l 1,3,-1
 347 466 l 1,4,-1
 347 404 l 1,5,-1
 119 300 l 1,6,-1
 347 196 l 1,0,-1
EndSplineSet
EndChar

StartChar: equal
Encoding: 61 61 33
Width: 400
GlyphClass: 2
Flags: W
LayerCount: 2
Fore
SplineSet
360 351 m 1,0,-1
 40 351 l 1,1,-1
 40 411 l 1,2,-1
 360 411 l 1,3,-1
 360 351 l 1,0,-1
360 189 m 1,4,-1
 40 189 l 1,5,-1
 40 249 l 1,6,-1
 360 249 l 1,7,-1
 360 189 l 1,4,-1
EndSplineSet
EndChar

StartChar: greater
Encoding: 62 62 34
Width: 400
GlyphClass: 2
Flags: W
LayerCount: 2
Fore
SplineSet
354 272 m 1,0,-1
 54 134 l 1,1,-1
 54 196 l 1,2,-1
 282 300 l 1,3,-1
 54 404 l 1,4,-1
 54 466 l 1,5,-1
 354 329 l 1,6,-1
 354 272 l 1,0,-1
EndSplineSet
EndChar

StartChar: question
Encoding: 63 63 35
Width: 362
GlyphClass: 2
Flags: W
LayerCount: 2
Fore
SplineSet
198 176 m 1,0,-1
 130 176 l 1,1,-1
 130 216 l 2,2,3
 130 292 130 292 193 381 c 0,4,5
 230 434 230 434 244.5 469 c 128,-1,6
 259 504 259 504 259 546 c 0,7,8
 259 639 259 639 179 639 c 128,-1,9
 99 639 99 639 99 543 c 2,10,-1
 99 480 l 1,11,-1
 25 480 l 1,12,-1
 25 538 l 2,13,14
 25 620 25 620 64.5 665 c 128,-1,15
 104 710 104 710 181 710 c 128,-1,16
 258 710 258 710 297.5 666 c 128,-1,17
 337 622 337 622 337 541 c 0,18,19
 337 494 337 494 320 452 c 128,-1,20
 303 410 303 410 263 358 c 0,21,22
 227 309 227 309 212.5 278.5 c 128,-1,23
 198 248 198 248 198 214 c 2,24,-1
 198 176 l 1,0,-1
203 0 m 1,25,-1
 124 0 l 1,26,-1
 124 101 l 1,27,-1
 203 101 l 1,28,-1
 203 0 l 1,25,-1
EndSplineSet
EndChar

StartChar: at
Encoding: 64 64 36
Width: 696
GlyphClass: 2
Flags: W
LayerCount: 2
Fore
SplineSet
438 499 m 1,0,-1
 509 499 l 1,1,-1
 479 225 l 2,2,3
 479 220 479 220 478.5 216 c 128,-1,4
 478 212 478 212 478 210 c 2,5,-1
 477 207 l 1,6,7
 477 166 477 166 513 166 c 0,8,9
 543 166 543 166 564 207 c 0,10,11
 604 283 604 283 604 417 c 0,12,13
 604 526 604 526 543 587 c 128,-1,14
 482 648 482 648 373 648 c 0,15,16
 278 648 278 648 215 594 c 0,17,18
 100 495 100 495 100 250 c 0,19,20
 100 116 100 116 171 44 c 128,-1,21
 242 -28 242 -28 374 -28 c 0,22,23
 476 -28 476 -28 547 27 c 1,24,-1
 542 -45 l 1,25,26
 472 -90 472 -90 373 -90 c 0,27,28
 209 -90 209 -90 120.5 0.5 c 128,-1,29
 32 91 32 91 32 257 c 0,30,31
 32 461 32 461 118 586 c 0,32,33
 205 710 205 710 371 710 c 0,34,35
 512 710 512 710 588.5 633.5 c 128,-1,36
 665 557 665 557 665 415 c 0,37,38
 665 336 665 336 650 268 c 256,39,40
 635 200 635 200 595 151 c 0,41,42
 556 101 556 101 498 101 c 0,43,44
 425 101 425 101 414 169 c 1,45,46
 378 101 378 101 310 101 c 0,47,48
 208 101 208 101 208 212 c 0,49,50
 208 233 208 233 209 239 c 2,51,-1
 223 382 l 2,52,53
 236 509 236 509 336 509 c 0,54,55
 405 509 405 509 433 451 c 1,56,-1
 438 499 l 1,0,-1
334 163 m 0,57,58
 365 163 365 163 386.5 188.5 c 128,-1,59
 408 214 408 214 413 259 c 2,60,-1
 423 355 l 1,61,-1
 423 361 l 2,62,63
 423 400 423 400 405 423.5 c 128,-1,64
 387 447 387 447 355 447 c 0,65,66
 301 447 301 447 293 373 c 2,67,-1
 279 242 l 2,68,69
 278 238 278 238 278 225 c 0,70,71
 278 163 278 163 334 163 c 0,57,58
EndSplineSet
EndChar

StartChar: A
Encoding: 65 65 37
Width: 400
GlyphClass: 2
Flags: W
AnchorPoint: "Anchor-11" 0 0 basechar 0
AnchorPoint: "Anchor-10" 0 0 basechar 0
AnchorPoint: "Anchor-9" 200 690 basechar 0
AnchorPoint: "Anchor-8" 383 0 basechar 0
AnchorPoint: "Anchor-7" 200 0 basechar 0
LayerCount: 2
Fore
SplineSet
383 0 m 1,0,-1
 304 0 l 1,1,-1
 278 149 l 1,2,-1
 116 149 l 1,3,-1
 90 0 l 1,4,-1
 17 0 l 1,5,-1
 147 700 l 1,6,-1
 252 700 l 1,7,-1
 383 0 l 1,0,-1
196 611 m 1,8,-1
 128 217 l 1,9,-1
 266 217 l 1,10,-1
 196 611 l 1,8,-1
EndSplineSet
Substitution2: "<11,2> Diagonal Fractions lookup 30 nested-substitutions 0 subtable" ordfeminine
Substitution2: "<11,2> Diagonal Fractions lookup 28 nested-substitutions 0 subtable" ordfeminine
Substitution2: "Single Substitution lookup 27 subtable" ordfeminine
Substitution2: "'aalt' Access All Alternates in Latin lookup 0 subtable" ordfeminine
EndChar

StartChar: B
Encoding: 66 66 38
Width: 402
GlyphClass: 2
Flags: W
AnchorPoint: "Anchor-11" 0 0 basechar 0
AnchorPoint: "Anchor-10" 0 0 basechar 0
AnchorPoint: "Anchor-9" 190 690 basechar 0
AnchorPoint: "Anchor-8" 0 0 basechar 0
AnchorPoint: "Anchor-7" 190 0 basechar 0
LayerCount: 2
Fore
SplineSet
212 0 m 2,0,-1
 48 0 l 1,1,-1
 48 700 l 1,2,-1
 204 700 l 2,3,4
 287 700 287 700 324.5 661.5 c 128,-1,5
 362 623 362 623 362 541 c 2,6,-1
 362 512 l 2,7,8
 362 400 362 400 284 372 c 1,9,-1
 284 370 l 1,10,11
 373 344 373 344 373 223 c 2,12,-1
 373 163 l 2,13,14
 373 0 373 0 212 0 c 2,0,-1
126 629 m 1,15,-1
 126 401 l 1,16,-1
 192 401 l 2,17,18
 240 401 240 401 262 423.5 c 128,-1,19
 284 446 284 446 284 497 c 2,20,-1
 284 533 l 2,21,22
 284 584 284 584 265 606.5 c 128,-1,23
 246 629 246 629 202 629 c 2,24,-1
 126 629 l 1,15,-1
126 330 m 1,25,-1
 126 71 l 1,26,-1
 212 71 l 2,27,28
 255 71 255 71 275 93 c 128,-1,29
 295 115 295 115 295 165 c 2,30,-1
 295 225 l 2,31,32
 295 282 295 282 272.5 306 c 128,-1,33
 250 330 250 330 196 330 c 2,34,-1
 126 330 l 1,25,-1
EndSplineSet
EndChar

StartChar: C
Encoding: 67 67 39
Width: 382
GlyphClass: 2
Flags: W
AnchorPoint: "Anchor-11" 0 0 basechar 0
AnchorPoint: "Anchor-10" 0 0 basechar 0
AnchorPoint: "Anchor-9" 195 690 basechar 0
AnchorPoint: "Anchor-8" 0 0 basechar 0
AnchorPoint: "Anchor-7" 198 0 basechar 0
LayerCount: 2
Fore
SplineSet
196 -10 m 0,0,1
 122 -10 122 -10 81 34 c 128,-1,2
 40 78 40 78 40 157 c 2,3,-1
 40 543 l 2,4,5
 40 622 40 622 80.5 666 c 128,-1,6
 121 710 121 710 196 710 c 128,-1,7
 271 710 271 710 311.5 666 c 128,-1,8
 352 622 352 622 352 543 c 2,9,-1
 352 471 l 1,10,-1
 278 471 l 1,11,-1
 278 548 l 2,12,13
 278 592 278 592 256.5 615.5 c 128,-1,14
 235 639 235 639 198 639 c 128,-1,15
 161 639 161 639 139.5 615.5 c 128,-1,16
 118 592 118 592 118 548 c 2,17,-1
 118 152 l 2,18,19
 118 108 118 108 139.5 84.5 c 128,-1,20
 161 61 161 61 198 61 c 128,-1,21
 235 61 235 61 256.5 84.5 c 128,-1,22
 278 108 278 108 278 152 c 2,23,-1
 278 250 l 1,24,-1
 352 250 l 1,25,-1
 352 157 l 2,26,27
 352 78 352 78 311.5 34 c 128,-1,28
 271 -10 271 -10 196 -10 c 0,0,1
EndSplineSet
EndChar

StartChar: D
Encoding: 68 68 40
Width: 406
GlyphClass: 2
Flags: W
AnchorPoint: "Anchor-11" 0 0 basechar 0
AnchorPoint: "Anchor-10" 103 365 basechar 0
AnchorPoint: "Anchor-9" 194 690 basechar 0
AnchorPoint: "Anchor-8" 0 0 basechar 0
AnchorPoint: "Anchor-7" 194 0 basechar 0
LayerCount: 2
Fore
SplineSet
208 0 m 2,0,-1
 48 0 l 1,1,-1
 48 700 l 1,2,-1
 208 700 l 2,3,4
 366 700 366 700 366 530 c 2,5,-1
 366 170 l 2,6,7
 366 0 366 0 208 0 c 2,0,-1
126 629 m 1,8,-1
 126 71 l 1,9,-1
 206 71 l 2,10,11
 248 71 248 71 268 93.5 c 128,-1,12
 288 116 288 116 288 167 c 2,13,-1
 288 534 l 2,14,15
 288 584 288 584 268.5 606.5 c 128,-1,16
 249 629 249 629 206 629 c 2,17,-1
 126 629 l 1,8,-1
EndSplineSet
EndChar

StartChar: E
Encoding: 69 69 41
Width: 356
GlyphClass: 2
Flags: W
AnchorPoint: "Anchor-11" 0 0 basechar 0
AnchorPoint: "Anchor-10" 0 0 basechar 0
AnchorPoint: "Anchor-9" 191 690 basechar 0
AnchorPoint: "Anchor-8" 335 0 basechar 0
AnchorPoint: "Anchor-7" 191 0 basechar 0
LayerCount: 2
Fore
SplineSet
335 0 m 1,0,-1
 48 0 l 1,1,-1
 48 700 l 1,2,-1
 335 700 l 1,3,-1
 335 629 l 1,4,-1
 126 629 l 1,5,-1
 126 401 l 1,6,-1
 296 401 l 1,7,-1
 296 330 l 1,8,-1
 126 330 l 1,9,-1
 126 71 l 1,10,-1
 335 71 l 1,11,-1
 335 0 l 1,0,-1
EndSplineSet
EndChar

StartChar: F
Encoding: 70 70 42
Width: 342
GlyphClass: 2
Flags: W
AnchorPoint: "Anchor-11" 0 0 basechar 0
AnchorPoint: "Anchor-10" 0 0 basechar 0
AnchorPoint: "Anchor-9" 186 690 basechar 0
AnchorPoint: "Anchor-8" 0 0 basechar 0
AnchorPoint: "Anchor-7" 179 0 basechar 0
LayerCount: 2
Fore
SplineSet
126 0 m 1,0,-1
 48 0 l 1,1,-1
 48 700 l 1,2,-1
 326 700 l 1,3,-1
 326 629 l 1,4,-1
 126 629 l 1,5,-1
 126 391 l 1,6,-1
 287 391 l 1,7,-1
 287 320 l 1,8,-1
 126 320 l 1,9,-1
 126 0 l 1,0,-1
EndSplineSet
EndChar

StartChar: G
Encoding: 71 71 43
Width: 393
GlyphClass: 2
Flags: W
AnchorPoint: "Anchor-11" 0 0 basechar 0
AnchorPoint: "Anchor-10" 0 0 basechar 0
AnchorPoint: "Anchor-9" 197 690 basechar 0
AnchorPoint: "Anchor-8" 0 0 basechar 0
AnchorPoint: "Anchor-7" 198 0 basechar 0
LayerCount: 2
Fore
SplineSet
198 -10 m 0,0,1
 121 -10 121 -10 80.5 34.5 c 128,-1,2
 40 79 40 79 40 163 c 2,3,-1
 40 538 l 2,4,5
 40 621 40 621 80.5 665.5 c 128,-1,6
 121 710 121 710 198 710 c 0,7,8
 276 710 276 710 316.5 666 c 128,-1,9
 357 622 357 622 357 538 c 2,10,-1
 357 481 l 1,11,-1
 283 481 l 1,12,-1
 283 543 l 2,13,14
 283 639 283 639 200 639 c 0,15,16
 118 639 118 639 118 543 c 2,17,-1
 118 157 l 2,18,19
 118 61 118 61 200 61 c 0,20,21
 283 61 283 61 283 157 c 2,22,-1
 283 314 l 1,23,-1
 206 314 l 1,24,-1
 206 385 l 1,25,-1
 357 385 l 1,26,-1
 357 163 l 2,27,28
 357 79 357 79 316.5 34.5 c 128,-1,29
 276 -10 276 -10 198 -10 c 0,0,1
EndSplineSet
EndChar

StartChar: H
Encoding: 72 72 44
Width: 418
GlyphClass: 2
Flags: W
AnchorPoint: "Anchor-11" 0 0 basechar 0
AnchorPoint: "Anchor-10" 209 540 basechar 0
AnchorPoint: "Anchor-9" 209 690 basechar 0
AnchorPoint: "Anchor-8" 0 0 basechar 0
AnchorPoint: "Anchor-7" 217 0 basechar 0
LayerCount: 2
Fore
SplineSet
126 0 m 1,0,-1
 48 0 l 1,1,-1
 48 700 l 1,2,-1
 126 700 l 1,3,-1
 126 401 l 1,4,-1
 292 401 l 1,5,-1
 292 700 l 1,6,-1
 370 700 l 1,7,-1
 370 0 l 1,8,-1
 292 0 l 1,9,-1
 292 330 l 1,10,-1
 126 330 l 1,11,-1
 126 0 l 1,0,-1
EndSplineSet
EndChar

StartChar: I
Encoding: 73 73 45
Width: 173
GlyphClass: 2
Flags: W
AnchorPoint: "Anchor-11" 0 0 basechar 0
AnchorPoint: "Anchor-10" 0 0 basechar 0
AnchorPoint: "Anchor-9" 87 690 basechar 0
AnchorPoint: "Anchor-8" 155 0 basechar 0
AnchorPoint: "Anchor-7" 87 0 basechar 0
LayerCount: 2
Fore
SplineSet
126 0 m 1,0,-1
 48 0 l 1,1,-1
 48 700 l 1,2,-1
 126 700 l 1,3,-1
 126 0 l 1,0,-1
EndSplineSet
EndChar

StartChar: J
Encoding: 74 74 46
Width: 259
GlyphClass: 2
Flags: W
AnchorPoint: "Anchor-11" 0 0 basechar 0
AnchorPoint: "Anchor-10" 0 0 basechar 0
AnchorPoint: "Anchor-9" 168 690 basechar 0
AnchorPoint: "Anchor-8" 0 0 basechar 0
AnchorPoint: "Anchor-7" 134 0 basechar 0
LayerCount: 2
Fore
SplineSet
68 -4 m 0,0,1
 35 -4 35 -4 17 2 c 1,2,-1
 17 73 l 1,3,4
 36 67 36 67 58 67 c 0,5,6
 99 67 99 67 118 88 c 128,-1,7
 137 109 137 109 137 155 c 2,8,-1
 137 700 l 1,9,-1
 215 700 l 1,10,-1
 215 157 l 2,11,12
 215 75 215 75 179 35.5 c 128,-1,13
 143 -4 143 -4 68 -4 c 0,0,1
EndSplineSet
Substitution2: "Single Substitution lookup 25 subtable" J.aalt
Substitution2: "'aalt' Access All Alternates in Latin lookup 0 subtable" J.aalt
EndChar

StartChar: K
Encoding: 75 75 47
Width: 408
GlyphClass: 2
Flags: W
AnchorPoint: "Anchor-11" 0 0 basechar 0
AnchorPoint: "Anchor-10" 0 0 basechar 0
AnchorPoint: "Anchor-9" 214 690 basechar 0
AnchorPoint: "Anchor-8" 0 0 basechar 0
AnchorPoint: "Anchor-7" 216 0 basechar 0
LayerCount: 2
Fore
SplineSet
392 0 m 1,0,-1
 310 0 l 1,1,-1
 193 348 l 1,2,-1
 126 231 l 1,3,-1
 126 0 l 1,4,-1
 48 0 l 1,5,-1
 48 700 l 1,6,-1
 126 700 l 1,7,-1
 126 355 l 1,8,-1
 309 700 l 1,9,-1
 390 700 l 1,10,-1
 245 437 l 1,11,-1
 392 0 l 1,0,-1
EndSplineSet
EndChar

StartChar: L
Encoding: 76 76 48
Width: 342
GlyphClass: 2
Flags: W
AnchorPoint: "Anchor-11" 249 700 basechar 0
AnchorPoint: "Anchor-10" 179 350 basechar 0
AnchorPoint: "Anchor-9" 97 690 basechar 0
AnchorPoint: "Anchor-8" 0 0 basechar 0
AnchorPoint: "Anchor-7" 188 0 basechar 0
LayerCount: 2
Fore
SplineSet
326 0 m 1,0,-1
 48 0 l 1,1,-1
 48 700 l 1,2,-1
 126 700 l 1,3,-1
 126 71 l 1,4,-1
 326 71 l 1,5,-1
 326 0 l 1,0,-1
EndSplineSet
EndChar

StartChar: M
Encoding: 77 77 49
Width: 527
GlyphClass: 2
Flags: W
AnchorPoint: "Anchor-11" 0 0 basechar 0
AnchorPoint: "Anchor-10" 0 0 basechar 0
AnchorPoint: "Anchor-9" 264 690 basechar 0
AnchorPoint: "Anchor-8" 0 0 basechar 0
AnchorPoint: "Anchor-7" 264 0 basechar 0
LayerCount: 2
Fore
SplineSet
117 0 m 1,0,-1
 48 0 l 1,1,-1
 48 700 l 1,2,-1
 161 700 l 1,3,-1
 264 141 l 1,4,-1
 366 700 l 1,5,-1
 480 700 l 1,6,-1
 480 0 l 1,7,-1
 405 0 l 1,8,-1
 405 584 l 1,9,-1
 294 0 l 1,10,-1
 228 0 l 1,11,-1
 117 584 l 1,12,-1
 117 0 l 1,0,-1
EndSplineSet
EndChar

StartChar: N
Encoding: 78 78 50
Width: 425
GlyphClass: 2
Flags: W
AnchorPoint: "Anchor-11" 0 0 basechar 0
AnchorPoint: "Anchor-10" 0 0 basechar 0
AnchorPoint: "Anchor-9" 213 690 basechar 0
AnchorPoint: "Anchor-8" 0 0 basechar 0
AnchorPoint: "Anchor-7" 213 0 basechar 0
LayerCount: 2
Fore
SplineSet
119 0 m 1,0,-1
 48 0 l 1,1,-1
 48 700 l 1,2,-1
 148 700 l 1,3,-1
 306 200 l 1,4,-1
 306 700 l 1,5,-1
 377 700 l 1,6,-1
 377 0 l 1,7,-1
 296 0 l 1,8,-1
 119 569 l 1,9,-1
 119 0 l 1,0,-1
EndSplineSet
EndChar

StartChar: O
Encoding: 79 79 51
Width: 400
GlyphClass: 2
Flags: W
AnchorPoint: "Anchor-11" 0 0 basechar 0
AnchorPoint: "Anchor-10" 200 350 basechar 0
AnchorPoint: "Anchor-9" 200 690 basechar 0
AnchorPoint: "Anchor-8" 363 10 basechar 0
AnchorPoint: "Anchor-7" 200 0 basechar 0
LayerCount: 2
Fore
SplineSet
200 -10 m 0,0,1
 123 -10 123 -10 81.5 35 c 128,-1,2
 40 80 40 80 40 163 c 2,3,-1
 40 538 l 2,4,5
 40 621 40 621 81.5 665.5 c 128,-1,6
 123 710 123 710 200 710 c 0,7,8
 278 710 278 710 319.5 665.5 c 128,-1,9
 361 621 361 621 361 538 c 2,10,-1
 361 163 l 2,11,12
 361 80 361 80 319.5 35 c 128,-1,13
 278 -10 278 -10 200 -10 c 0,0,1
200 61 m 0,14,15
 283 61 283 61 283 158 c 2,16,-1
 283 543 l 2,17,18
 283 639 283 639 200 639 c 0,19,20
 118 639 118 639 118 543 c 2,21,-1
 118 158 l 2,22,23
 118 61 118 61 200 61 c 0,14,15
EndSplineSet
Substitution2: "<11,2> Diagonal Fractions lookup 30 nested-substitutions 0 subtable" ordmasculine
Substitution2: "<11,2> Diagonal Fractions lookup 28 nested-substitutions 0 subtable" ordmasculine
Substitution2: "Single Substitution lookup 27 subtable" ordmasculine
Substitution2: "'aalt' Access All Alternates in Latin lookup 0 subtable" ordmasculine
EndChar

StartChar: P
Encoding: 80 80 52
Width: 383
GlyphClass: 2
Flags: W
AnchorPoint: "Anchor-11" 0 0 basechar 0
AnchorPoint: "Anchor-10" 0 0 basechar 0
AnchorPoint: "Anchor-9" 191 690 basechar 0
AnchorPoint: "Anchor-8" 0 0 basechar 0
AnchorPoint: "Anchor-7" 196 0 basechar 0
LayerCount: 2
Fore
SplineSet
126 0 m 1,0,-1
 48 0 l 1,1,-1
 48 700 l 1,2,-1
 201 700 l 2,3,4
 359 700 359 700 359 530 c 2,5,-1
 359 470 l 2,6,7
 359 301 359 301 201 301 c 2,8,-1
 126 301 l 1,9,-1
 126 0 l 1,0,-1
126 629 m 1,10,-1
 126 372 l 1,11,-1
 201 372 l 2,12,13
 243 372 243 372 262 393.5 c 128,-1,14
 281 415 281 415 281 466 c 2,15,-1
 281 535 l 2,16,17
 281 586 281 586 262 607.5 c 128,-1,18
 243 629 243 629 201 629 c 2,19,-1
 126 629 l 1,10,-1
EndSplineSet
EndChar

StartChar: Q
Encoding: 81 81 53
Width: 400
GlyphClass: 2
Flags: W
AnchorPoint: "Anchor-11" 0 0 basechar 0
AnchorPoint: "Anchor-10" 200 350 basechar 0
AnchorPoint: "Anchor-9" 200 690 basechar 0
AnchorPoint: "Anchor-8" 363 10 basechar 0
AnchorPoint: "Anchor-7" 200 0 basechar 0
LayerCount: 2
Fore
SplineSet
372 6 m 2,0,-1
 387 6 l 1,1,-1
 387 -65 l 1,2,-1
 364 -65 l 2,3,4
 289 -65 289 -65 270 2 c 1,5,6
 240 -10 240 -10 200 -10 c 0,7,8
 123 -10 123 -10 81.5 35 c 128,-1,9
 40 80 40 80 40 163 c 2,10,-1
 40 538 l 2,11,12
 40 621 40 621 81.5 665.5 c 128,-1,13
 123 710 123 710 200 710 c 0,14,15
 278 710 278 710 319.5 665.5 c 128,-1,16
 361 621 361 621 361 538 c 2,17,-1
 361 163 l 2,18,19
 361 79 361 79 319 34 c 1,20,21
 331 6 331 6 372 6 c 2,0,-1
200 61 m 0,22,23
 283 61 283 61 283 158 c 2,24,-1
 283 543 l 2,25,26
 283 639 283 639 200 639 c 0,27,28
 118 639 118 639 118 543 c 2,29,-1
 118 158 l 2,30,31
 118 61 118 61 200 61 c 0,22,23
EndSplineSet
EndChar

StartChar: R
Encoding: 82 82 54
Width: 401
GlyphClass: 2
Flags: W
AnchorPoint: "Anchor-11" 0 0 basechar 0
AnchorPoint: "Anchor-10" 0 0 basechar 0
AnchorPoint: "Anchor-9" 191 690 basechar 0
AnchorPoint: "Anchor-8" 0 0 basechar 0
AnchorPoint: "Anchor-7" 209 0 basechar 0
LayerCount: 2
Fore
SplineSet
126 0 m 1,0,-1
 48 0 l 1,1,-1
 48 700 l 1,2,-1
 201 700 l 2,3,4
 284 700 284 700 321.5 661.5 c 128,-1,5
 359 623 359 623 359 541 c 2,6,-1
 359 498 l 2,7,8
 359 382 359 382 278 357 c 1,9,-1
 278 356 l 1,10,11
 360 335 360 335 360 210 c 2,12,-1
 360 85 l 2,13,14
 360 27 360 27 370 0 c 1,15,-1
 291 0 l 1,16,17
 282 30 282 30 282 85 c 2,18,-1
 282 214 l 2,19,20
 282 270 282 270 261 293 c 128,-1,21
 240 316 240 316 189 316 c 2,22,-1
 126 316 l 1,23,-1
 126 0 l 1,0,-1
126 629 m 1,24,-1
 126 387 l 1,25,-1
 189 387 l 2,26,27
 237 387 237 387 259 409.5 c 128,-1,28
 281 432 281 432 281 483 c 2,29,-1
 281 533 l 2,30,31
 281 584 281 584 262 606.5 c 128,-1,32
 243 629 243 629 199 629 c 2,33,-1
 126 629 l 1,24,-1
EndSplineSet
EndChar

StartChar: S
Encoding: 83 83 55
Width: 369
GlyphClass: 2
Flags: W
AnchorPoint: "Anchor-11" 0 0 basechar 0
AnchorPoint: "Anchor-10" 0 0 basechar 0
AnchorPoint: "Anchor-9" 184 690 basechar 0
AnchorPoint: "Anchor-8" 0 0 basechar 0
AnchorPoint: "Anchor-7" 184 0 basechar 0
LayerCount: 2
Fore
SplineSet
28 160 m 2,0,-1
 28 199 l 1,1,-1
 102 199 l 1,2,-1
 102 154 l 2,3,4
 102 61 102 61 183 61 c 0,5,6
 265 61 265 61 265 155 c 0,7,8
 265 202 265 202 241 240 c 0,9,10
 219 277 219 277 157 328 c 0,11,12
 85 387 85 387 56 435 c 0,13,14
 28 482 28 482 28 543 c 0,15,16
 28 622 28 622 69 666 c 128,-1,17
 110 710 110 710 185 710 c 128,-1,18
 260 710 260 710 299.5 666 c 128,-1,19
 339 622 339 622 339 541 c 2,20,-1
 339 513 l 1,21,-1
 265 513 l 1,22,-1
 265 546 l 2,23,24
 265 639 265 639 185 639 c 128,-1,25
 105 639 105 639 105 548 c 0,26,27
 105 505 105 505 129 469 c 128,-1,28
 153 433 153 433 216 382 c 0,29,30
 289 322 289 322 315 273 c 0,31,32
 343 226 343 226 343 161 c 0,33,34
 343 79 343 79 301.5 34.5 c 128,-1,35
 260 -10 260 -10 184 -10 c 128,-1,36
 108 -10 108 -10 68 34 c 128,-1,37
 28 78 28 78 28 160 c 2,0,-1
EndSplineSet
EndChar

StartChar: T
Encoding: 84 84 56
Width: 359
GlyphClass: 2
Flags: W
AnchorPoint: "Anchor-11" 0 0 basechar 0
AnchorPoint: "Anchor-10" 180 350 basechar 0
AnchorPoint: "Anchor-9" 180 690 basechar 0
AnchorPoint: "Anchor-8" 0 0 basechar 0
AnchorPoint: "Anchor-7" 180 0 basechar 0
LayerCount: 2
Fore
SplineSet
219 0 m 1,0,-1
 141 0 l 1,1,-1
 141 629 l 1,2,-1
 17 629 l 1,3,-1
 17 700 l 1,4,-1
 343 700 l 1,5,-1
 343 629 l 1,6,-1
 219 629 l 1,7,-1
 219 0 l 1,0,-1
EndSplineSet
EndChar

StartChar: U
Encoding: 85 85 57
Width: 403
GlyphClass: 2
Flags: W
AnchorPoint: "Anchor-11" 0 0 basechar 0
AnchorPoint: "Anchor-10" 0 0 basechar 0
AnchorPoint: "Anchor-9" 202 690 basechar 0
AnchorPoint: "Anchor-8" 298 0 basechar 0
AnchorPoint: "Anchor-7" 202 0 basechar 0
LayerCount: 2
Fore
SplineSet
202 -10 m 0,0,1
 124 -10 124 -10 84 34.5 c 128,-1,2
 44 79 44 79 44 163 c 2,3,-1
 44 700 l 1,4,-1
 122 700 l 1,5,-1
 122 157 l 2,6,7
 122 61 122 61 203 61 c 128,-1,8
 284 61 284 61 284 157 c 2,9,-1
 284 700 l 1,10,-1
 360 700 l 1,11,-1
 360 163 l 2,12,13
 360 79 360 79 319.5 34.5 c 128,-1,14
 279 -10 279 -10 202 -10 c 0,0,1
EndSplineSet
EndChar

StartChar: V
Encoding: 86 86 58
Width: 388
GlyphClass: 2
Flags: W
AnchorPoint: "Anchor-11" 0 0 basechar 0
AnchorPoint: "Anchor-10" 0 0 basechar 0
AnchorPoint: "Anchor-9" 194 690 basechar 0
AnchorPoint: "Anchor-8" 0 0 basechar 0
AnchorPoint: "Anchor-7" 194 0 basechar 0
LayerCount: 2
Fore
SplineSet
247 0 m 1,0,-1
 143 0 l 1,1,-1
 18 700 l 1,2,-1
 97 700 l 1,3,-1
 198 106 l 1,4,-1
 299 700 l 1,5,-1
 371 700 l 1,6,-1
 247 0 l 1,0,-1
EndSplineSet
EndChar

StartChar: W
Encoding: 87 87 59
Width: 558
GlyphClass: 2
Flags: W
AnchorPoint: "Anchor-11" 0 0 basechar 0
AnchorPoint: "Anchor-10" 0 0 basechar 0
AnchorPoint: "Anchor-9" 279 690 basechar 0
AnchorPoint: "Anchor-8" 0 0 basechar 0
AnchorPoint: "Anchor-7" 279 0 basechar 0
LayerCount: 2
Fore
SplineSet
211 0 m 1,0,-1
 106 0 l 1,1,-1
 20 700 l 1,2,-1
 96 700 l 1,3,-1
 166 108 l 1,4,-1
 238 700 l 1,5,-1
 326 700 l 1,6,-1
 399 108 l 1,7,-1
 469 700 l 1,8,-1
 538 700 l 1,9,-1
 452 0 l 1,10,-1
 352 0 l 1,11,-1
 282 546 l 1,12,-1
 211 0 l 1,0,-1
EndSplineSet
EndChar

StartChar: X
Encoding: 88 88 60
Width: 400
GlyphClass: 2
Flags: W
AnchorPoint: "Anchor-11" 0 0 basechar 0
AnchorPoint: "Anchor-10" 0 0 basechar 0
AnchorPoint: "Anchor-9" 207 700 basechar 0
AnchorPoint: "Anchor-8" 0 0 basechar 0
AnchorPoint: "Anchor-7" 207 0 basechar 0
LayerCount: 2
Fore
SplineSet
91 0 m 1,0,-1
 16 0 l 1,1,-1
 154 358 l 1,2,-1
 22 700 l 1,3,-1
 105 700 l 1,4,-1
 203 438 l 1,5,-1
 303 700 l 1,6,-1
 378 700 l 1,7,-1
 246 358 l 1,8,-1
 384 0 l 1,9,-1
 301 0 l 1,10,-1
 196 279 l 1,11,-1
 91 0 l 1,0,-1
EndSplineSet
EndChar

StartChar: Y
Encoding: 89 89 61
Width: 389
GlyphClass: 2
Flags: W
AnchorPoint: "Anchor-11" 0 0 basechar 0
AnchorPoint: "Anchor-10" 0 0 basechar 0
AnchorPoint: "Anchor-9" 195 690 basechar 0
AnchorPoint: "Anchor-8" 0 0 basechar 0
AnchorPoint: "Anchor-7" 195 0 basechar 0
LayerCount: 2
Fore
SplineSet
234 0 m 1,0,-1
 156 0 l 1,1,-1
 156 307 l 1,2,-1
 15 700 l 1,3,-1
 98 700 l 1,4,-1
 198 408 l 1,5,-1
 298 700 l 1,6,-1
 375 700 l 1,7,-1
 234 307 l 1,8,-1
 234 0 l 1,0,-1
EndSplineSet
EndChar

StartChar: Z
Encoding: 90 90 62
Width: 355
GlyphClass: 2
Flags: W
AnchorPoint: "Anchor-11" 0 0 basechar 0
AnchorPoint: "Anchor-10" 0 0 basechar 0
AnchorPoint: "Anchor-9" 182 690 basechar 0
AnchorPoint: "Anchor-8" 0 0 basechar 0
AnchorPoint: "Anchor-7" 177 0 basechar 0
LayerCount: 2
Fore
SplineSet
332 0 m 1,0,-1
 21 0 l 1,1,-1
 21 70 l 1,2,-1
 248 629 l 1,3,-1
 31 629 l 1,4,-1
 31 700 l 1,5,-1
 332 700 l 1,6,-1
 332 631 l 1,7,-1
 105 71 l 1,8,-1
 332 71 l 1,9,-1
 332 0 l 1,0,-1
EndSplineSet
EndChar

StartChar: bracketleft
Encoding: 91 91 63
Width: 264
GlyphClass: 2
Flags: W
LayerCount: 2
Fore
SplineSet
231 -100 m 1,0,-1
 64 -100 l 1,1,-1
 64 700 l 1,2,-1
 231 700 l 1,3,-1
 231 640 l 1,4,-1
 136 640 l 1,5,-1
 136 -40 l 1,6,-1
 231 -40 l 1,7,-1
 231 -100 l 1,0,-1
EndSplineSet
EndChar

StartChar: backslash
Encoding: 92 92 64
Width: 373
GlyphClass: 2
Flags: W
LayerCount: 2
Fore
SplineSet
358 -100 m 1,0,-1
 291 -100 l 1,1,-1
 15 700 l 1,2,-1
 82 700 l 1,3,-1
 358 -100 l 1,0,-1
EndSplineSet
EndChar

StartChar: bracketright
Encoding: 93 93 65
Width: 264
GlyphClass: 2
Flags: W
LayerCount: 2
Fore
SplineSet
201 -100 m 1,0,-1
 34 -100 l 1,1,-1
 34 -40 l 1,2,-1
 129 -40 l 1,3,-1
 129 640 l 1,4,-1
 34 640 l 1,5,-1
 34 700 l 1,6,-1
 201 700 l 1,7,-1
 201 -100 l 1,0,-1
EndSplineSet
EndChar

StartChar: asciicircum
Encoding: 94 94 66
Width: 400
GlyphClass: 2
Flags: W
LayerCount: 2
Fore
SplineSet
98 431 m 1,0,-1
 29 431 l 1,1,-1
 172 700 l 1,2,-1
 229 700 l 1,3,-1
 371 431 l 1,4,-1
 303 431 l 1,5,-1
 200 624 l 1,6,-1
 98 431 l 1,0,-1
EndSplineSet
EndChar

StartChar: underscore
Encoding: 95 95 67
Width: 300
GlyphClass: 2
Flags: W
LayerCount: 2
Fore
SplineSet
300 -103 m 1,0,-1
 0 -103 l 1,1,-1
 0 -52 l 1,2,-1
 300 -52 l 1,3,-1
 300 -103 l 1,0,-1
EndSplineSet
EndChar

StartChar: grave
Encoding: 96 96 68
Width: 500
GlyphClass: 4
Flags: W
AnchorPoint: "Anchor-13" 250 693 basemark 0
LayerCount: 2
Fore
SplineSet
299 565 m 1,0,-1
 238 565 l 1,1,-1
 142 693 l 1,2,-1
 229 693 l 1,3,-1
 299 565 l 1,0,-1
EndSplineSet
EndChar

StartChar: a
Encoding: 97 97 69
Width: 367
GlyphClass: 2
Flags: W
AnchorPoint: "Anchor-11" 0 0 basechar 0
AnchorPoint: "Anchor-10" 0 0 basechar 0
AnchorPoint: "Anchor-9" 179 503 basechar 0
AnchorPoint: "Anchor-8" 335 0 basechar 0
AnchorPoint: "Anchor-7" 0 0 basechar 0
LayerCount: 2
Fore
SplineSet
332 0 m 1,0,-1
 263 0 l 1,1,2
 258 19 258 19 255 68 c 1,3,4
 224 -10 224 -10 138 -10 c 0,5,6
 86 -10 86 -10 56 23.5 c 128,-1,7
 26 57 26 57 26 114 c 0,8,9
 26 172 26 172 54.5 209.5 c 128,-1,10
 83 247 83 247 151 279 c 0,11,12
 213 307 213 307 230 321 c 0,13,14
 246 334 246 334 246 361 c 2,15,-1
 246 373 l 2,16,17
 246 448 246 448 181 448 c 0,18,19
 148 448 148 448 129.5 428 c 128,-1,20
 111 408 111 408 111 371 c 2,21,-1
 111 356 l 1,22,-1
 40 356 l 1,23,-1
 40 367 l 2,24,25
 40 437 40 437 77 475 c 128,-1,26
 114 513 114 513 182 513 c 0,27,28
 321 513 321 513 321 361 c 2,29,-1
 321 137 l 2,30,31
 321 49 321 49 332 0 c 1,0,-1
164 56 m 0,32,33
 202 56 202 56 224 86 c 128,-1,34
 246 116 246 116 246 170 c 2,35,-1
 246 271 l 1,36,37
 235 256 235 256 173 224 c 0,38,39
 102 188 102 188 102 125 c 0,40,41
 102 56 102 56 164 56 c 0,32,33
EndSplineSet
Substitution2: "<11,2> Diagonal Fractions lookup 30 nested-substitutions 0 subtable" ordfeminine
Substitution2: "<11,2> Diagonal Fractions lookup 28 nested-substitutions 0 subtable" ordfeminine
Substitution2: "Single Substitution lookup 27 subtable" ordfeminine
Substitution2: "'aalt' Access All Alternates in Latin lookup 0 subtable" ordfeminine
EndChar

StartChar: b
Encoding: 98 98 70
Width: 384
GlyphClass: 2
Flags: W
AnchorPoint: "Anchor-11" 0 0 basechar 0
AnchorPoint: "Anchor-10" 0 0 basechar 0
AnchorPoint: "Anchor-9" 85 690 basechar 0
AnchorPoint: "Anchor-8" 0 0 basechar 0
AnchorPoint: "Anchor-7" 193 0 basechar 0
LayerCount: 2
Fore
SplineSet
226 513 m 0,0,1
 344 513 344 513 344 368 c 2,2,-1
 344 136 l 2,3,4
 344 -10 344 -10 226 -10 c 0,5,6
 144 -10 144 -10 113 71 c 1,7,-1
 103 0 l 1,8,-1
 48 0 l 1,9,-1
 48 700 l 1,10,-1
 123 700 l 1,11,-1
 123 453 l 1,12,13
 158 513 158 513 226 513 c 0,0,1
269 142 m 2,14,-1
 269 362 l 2,15,16
 269 446 269 446 204 446 c 0,17,18
 167 446 167 446 145 416.5 c 128,-1,19
 123 387 123 387 123 334 c 2,20,-1
 123 169 l 2,21,22
 123 116 123 116 145 86.5 c 128,-1,23
 167 57 167 57 204 57 c 0,24,25
 269 57 269 57 269 142 c 2,14,-1
EndSplineSet
EndChar

StartChar: c
Encoding: 99 99 71
Width: 359
GlyphClass: 2
Flags: W
AnchorPoint: "Anchor-11" 0 0 basechar 0
AnchorPoint: "Anchor-10" 0 0 basechar 0
AnchorPoint: "Anchor-9" 183 503 basechar 0
AnchorPoint: "Anchor-8" 0 0 basechar 0
AnchorPoint: "Anchor-7" 185 0 basechar 0
LayerCount: 2
Fore
SplineSet
185 -10 m 0,0,1
 113 -10 113 -10 75.5 31.5 c 128,-1,2
 38 73 38 73 38 151 c 2,3,-1
 38 353 l 2,4,5
 38 431 38 431 75.5 472 c 128,-1,6
 113 513 113 513 185 513 c 0,7,8
 256 513 256 513 292.5 471.5 c 128,-1,9
 329 430 329 430 329 353 c 2,10,-1
 329 331 l 1,11,-1
 256 331 l 1,12,-1
 256 360 l 2,13,14
 256 446 256 446 185 446 c 128,-1,15
 114 446 114 446 114 360 c 2,16,-1
 114 144 l 2,17,18
 114 57 114 57 185 57 c 128,-1,19
 256 57 256 57 256 144 c 2,20,-1
 256 183 l 1,21,-1
 329 183 l 1,22,-1
 329 151 l 2,23,24
 329 73 329 73 292.5 31.5 c 128,-1,25
 256 -10 256 -10 185 -10 c 0,0,1
EndSplineSet
EndChar

StartChar: d
Encoding: 100 100 72
Width: 384
GlyphClass: 2
Flags: W
AnchorPoint: "Anchor-11" 0 0 basechar 0
AnchorPoint: "Anchor-10" 283 600 basechar 0
AnchorPoint: "Anchor-9" 298 690 basechar 0
AnchorPoint: "Anchor-8" 0 0 basechar 0
AnchorPoint: "Anchor-7" 185 0 basechar 0
LayerCount: 2
Fore
SplineSet
347 0 m 1,0,-1
 278 0 l 1,1,2
 271 20 271 20 270 68 c 1,3,4
 237 -10 237 -10 157 -10 c 0,5,6
 40 -10 40 -10 40 136 c 2,7,-1
 40 368 l 2,8,9
 40 513 40 513 157 513 c 0,10,11
 226 513 226 513 261 453 c 1,12,-1
 261 700 l 1,13,-1
 336 700 l 1,14,-1
 336 137 l 2,15,16
 336 49 336 49 347 0 c 1,0,-1
180 57 m 0,17,18
 217 57 217 57 239 86.5 c 128,-1,19
 261 116 261 116 261 169 c 2,20,-1
 261 334 l 2,21,22
 261 387 261 387 239 416.5 c 128,-1,23
 217 446 217 446 180 446 c 0,24,25
 116 446 116 446 116 362 c 2,26,-1
 116 142 l 2,27,28
 116 57 116 57 180 57 c 0,17,18
EndSplineSet
EndChar

StartChar: e
Encoding: 101 101 73
Width: 370
GlyphClass: 2
Flags: W
AnchorPoint: "Anchor-11" 0 0 basechar 0
AnchorPoint: "Anchor-10" 0 0 basechar 0
AnchorPoint: "Anchor-9" 186 503 basechar 0
AnchorPoint: "Anchor-8" 320 0 basechar 0
AnchorPoint: "Anchor-7" 186 0 basechar 0
LayerCount: 2
Fore
SplineSet
187 513 m 0,0,1
 259 513 259 513 297.5 471 c 128,-1,2
 336 429 336 429 336 351 c 2,3,-1
 336 240 l 1,4,-1
 114 240 l 1,5,-1
 114 146 l 2,6,7
 114 57 114 57 188 57 c 0,8,9
 263 57 263 57 263 146 c 2,10,-1
 263 161 l 1,11,-1
 336 161 l 1,12,-1
 336 153 l 2,13,14
 336 75 336 75 297.5 32.5 c 128,-1,15
 259 -10 259 -10 187 -10 c 128,-1,16
 115 -10 115 -10 76.5 32.5 c 128,-1,17
 38 75 38 75 38 153 c 2,18,-1
 38 351 l 2,19,20
 38 429 38 429 76 471 c 128,-1,21
 114 513 114 513 187 513 c 0,0,1
114 358 m 2,22,-1
 114 302 l 1,23,-1
 262 302 l 1,24,-1
 262 358 l 2,25,26
 262 446 262 446 187 446 c 0,27,28
 114 446 114 446 114 358 c 2,22,-1
EndSplineSet
EndChar

StartChar: f
Encoding: 102 102 74
Width: 262
GlyphClass: 2
Flags: W
AnchorPoint: "Anchor-11" 0 0 basechar 0
AnchorPoint: "Anchor-10" 0 0 basechar 0
AnchorPoint: "Anchor-9" 156 690 basechar 0
AnchorPoint: "Anchor-8" 0 0 basechar 0
AnchorPoint: "Anchor-7" 133 0 basechar 0
LayerCount: 2
Fore
SplineSet
205 643 m 0,0,1
 179 643 179 643 167.5 630.5 c 128,-1,2
 156 618 156 618 156 587 c 2,3,-1
 156 503 l 1,4,-1
 247 503 l 1,5,-1
 247 439 l 1,6,-1
 156 439 l 1,7,-1
 156 0 l 1,8,-1
 81 0 l 1,9,-1
 81 439 l 1,10,-1
 17 439 l 1,11,-1
 17 503 l 1,12,-1
 81 503 l 1,13,-1
 81 596 l 2,14,15
 81 710 81 710 191 710 c 0,16,17
 226 710 226 710 247 700 c 1,18,-1
 247 635 l 1,19,20
 226 643 226 643 205 643 c 0,0,1
EndSplineSet
EndChar

StartChar: g
Encoding: 103 103 75
Width: 382
GlyphClass: 2
Flags: W
AnchorPoint: "Anchor-11" 0 0 basechar 0
AnchorPoint: "Anchor-10" 0 0 basechar 0
AnchorPoint: "Anchor-9" 181 503 basechar 0
AnchorPoint: "Anchor-8" 0 0 basechar 0
AnchorPoint: "Anchor-7" 191 -155 basechar 0
LayerCount: 2
Fore
SplineSet
268 436 m 1,0,-1
 269 503 l 1,1,-1
 334 503 l 1,2,-1
 334 -15 l 2,3,4
 334 -91 334 -91 299 -128 c 128,-1,5
 264 -165 264 -165 187 -165 c 0,6,7
 43 -165 43 -165 43 -36 c 2,8,-1
 43 -32 l 1,9,-1
 115 -32 l 1,10,-1
 115 -39 l 2,11,12
 115 -102 115 -102 186 -102 c 0,13,14
 259 -102 259 -102 259 -20 c 2,15,-1
 259 72 l 1,16,17
 224 12 224 12 156 12 c 0,18,19
 39 12 39 12 39 158 c 2,20,-1
 39 368 l 2,21,22
 39 513 39 513 156 513 c 0,23,24
 236 513 236 513 268 436 c 1,0,-1
179 79 m 0,25,26
 215 79 215 79 237 108.5 c 128,-1,27
 259 138 259 138 259 191 c 2,28,-1
 259 334 l 2,29,30
 259 387 259 387 237 416.5 c 128,-1,31
 215 446 215 446 179 446 c 0,32,33
 114 446 114 446 114 362 c 2,34,-1
 114 164 l 2,35,36
 114 79 114 79 179 79 c 0,25,26
EndSplineSet
EndChar

StartChar: h
Encoding: 104 104 76
Width: 385
GlyphClass: 2
Flags: W
AnchorPoint: "Anchor-11" 0 0 basechar 0
AnchorPoint: "Anchor-10" 101 600 basechar 0
AnchorPoint: "Anchor-9" 85 690 basechar 0
AnchorPoint: "Anchor-8" 0 0 basechar 0
AnchorPoint: "Anchor-7" 193 0 basechar 0
LayerCount: 2
Fore
SplineSet
225 513 m 0,0,1
 341 513 341 513 341 368 c 2,2,-1
 341 0 l 1,3,-1
 265 0 l 1,4,-1
 265 358 l 2,5,6
 265 446 265 446 202 446 c 0,7,8
 166 446 166 446 144.5 416.5 c 128,-1,9
 123 387 123 387 123 334 c 2,10,-1
 123 0 l 1,11,-1
 48 0 l 1,12,-1
 48 700 l 1,13,-1
 123 700 l 1,14,-1
 123 455 l 1,15,16
 157 513 157 513 225 513 c 0,0,1
EndSplineSet
EndChar

StartChar: i
Encoding: 105 105 77
Width: 171
GlyphClass: 2
Flags: W
AnchorPoint: "Anchor-11" 0 0 basechar 0
AnchorPoint: "Anchor-10" 0 0 basechar 0
AnchorPoint: "Anchor-9" 85 683 basechar 0
AnchorPoint: "Anchor-8" 153 0 basechar 0
AnchorPoint: "Anchor-7" 85 0 basechar 0
LayerCount: 2
Fore
SplineSet
123 575 m 1,0,-1
 48 575 l 1,1,-1
 48 683 l 1,2,-1
 123 683 l 1,3,-1
 123 575 l 1,0,-1
123 0 m 1,4,-1
 48 0 l 1,5,-1
 48 503 l 1,6,-1
 123 503 l 1,7,-1
 123 0 l 1,4,-1
EndSplineSet
Substitution2: "Single Substitution lookup 25 subtable" dotlessi
Substitution2: "'locl' Localized Forms in Latin lookup 11 subtable" i.aalt
Substitution2: "'locl' Localized Forms in Latin lookup 10 subtable" i.aalt
Substitution2: "'locl' Localized Forms in Latin lookup 9 subtable" i.aalt
Substitution2: "'locl' Localized Forms in Latin lookup 8 subtable" i.aalt
Substitution2: "'locl' Localized Forms in Latin lookup 7 subtable" i.aalt
Substitution2: "'aalt' Access All Alternates in Latin lookup 0 subtable" i.aalt
EndChar

StartChar: j
Encoding: 106 106 78
Width: 171
GlyphClass: 2
Flags: W
AnchorPoint: "Anchor-11" 0 0 basechar 0
AnchorPoint: "Anchor-10" 0 0 basechar 0
AnchorPoint: "Anchor-9" 85 683 basechar 0
AnchorPoint: "Anchor-8" 0 0 basechar 0
AnchorPoint: "Anchor-7" 85 -155 basechar 0
LayerCount: 2
Fore
SplineSet
123 575 m 1,0,-1
 48 575 l 1,1,-1
 48 683 l 1,2,-1
 123 683 l 1,3,-1
 123 575 l 1,0,-1
30 -165 m 0,4,5
 1 -165 1 -165 -18 -155 c 1,6,-1
 -18 -91 l 1,7,8
 0 -98 0 -98 16 -98 c 0,9,10
 33 -98 33 -98 40.5 -89.5 c 128,-1,11
 48 -81 48 -81 48 -60 c 2,12,-1
 48 503 l 1,13,-1
 123 503 l 1,14,-1
 123 -66 l 2,15,16
 123 -165 123 -165 30 -165 c 0,4,5
EndSplineSet
Substitution2: "Single Substitution lookup 25 subtable" uni0237
EndChar

StartChar: k
Encoding: 107 107 79
Width: 383
GlyphClass: 2
Flags: W
AnchorPoint: "Anchor-11" 0 0 basechar 0
AnchorPoint: "Anchor-10" 0 0 basechar 0
AnchorPoint: "Anchor-9" 0 0 basechar 0
AnchorPoint: "Anchor-8" 0 0 basechar 0
AnchorPoint: "Anchor-7" 204 0 basechar 0
LayerCount: 2
Fore
SplineSet
367 0 m 1,0,-1
 285 0 l 1,1,-1
 183 241 l 1,2,-1
 123 152 l 1,3,-1
 123 0 l 1,4,-1
 48 0 l 1,5,-1
 48 700 l 1,6,-1
 123 700 l 1,7,-1
 123 258 l 1,8,-1
 280 503 l 1,9,-1
 361 503 l 1,10,-1
 235 314 l 1,11,-1
 367 0 l 1,0,-1
EndSplineSet
EndChar

StartChar: l
Encoding: 108 108 80
Width: 171
GlyphClass: 2
Flags: W
AnchorPoint: "Anchor-11" 198 700 basechar 0
AnchorPoint: "Anchor-10" 85 350 basechar 0
AnchorPoint: "Anchor-9" 85 690 basechar 0
AnchorPoint: "Anchor-8" 0 0 basechar 0
AnchorPoint: "Anchor-7" 85 0 basechar 0
LayerCount: 2
Fore
SplineSet
123 0 m 1,0,-1
 48 0 l 1,1,-1
 48 700 l 1,2,-1
 123 700 l 1,3,-1
 123 0 l 1,0,-1
EndSplineSet
EndChar

StartChar: m
Encoding: 109 109 81
Width: 590
GlyphClass: 2
Flags: W
AnchorPoint: "Anchor-11" 0 0 basechar 0
AnchorPoint: "Anchor-10" 0 0 basechar 0
AnchorPoint: "Anchor-9" 295 503 basechar 0
AnchorPoint: "Anchor-8" 0 0 basechar 0
AnchorPoint: "Anchor-7" 295 0 basechar 0
LayerCount: 2
Fore
SplineSet
433 513 m 0,0,1
 546 513 546 513 546 372 c 2,2,-1
 546 0 l 1,3,-1
 471 0 l 1,4,-1
 471 367 l 2,5,6
 471 446 471 446 411 446 c 0,7,8
 377 446 377 446 356 416.5 c 128,-1,9
 335 387 335 387 335 334 c 2,10,-1
 335 0 l 1,11,-1
 259 0 l 1,12,-1
 259 367 l 2,13,14
 259 446 259 446 199 446 c 0,15,16
 165 446 165 446 144 416.5 c 128,-1,17
 123 387 123 387 123 334 c 2,18,-1
 123 0 l 1,19,-1
 48 0 l 1,20,-1
 48 503 l 1,21,-1
 113 503 l 1,22,-1
 114 437 l 1,23,24
 145 513 145 513 222 513 c 0,25,26
 303 513 303 513 326 439 c 1,27,28
 358 513 358 513 433 513 c 0,0,1
EndSplineSet
EndChar

StartChar: n
Encoding: 110 110 82
Width: 385
GlyphClass: 2
Flags: W
AnchorPoint: "Anchor-11" 0 0 basechar 0
AnchorPoint: "Anchor-10" 0 0 basechar 0
AnchorPoint: "Anchor-9" 193 503 basechar 0
AnchorPoint: "Anchor-8" 0 0 basechar 0
AnchorPoint: "Anchor-7" 193 0 basechar 0
LayerCount: 2
Fore
SplineSet
225 513 m 0,0,1
 341 513 341 513 341 368 c 2,2,-1
 341 0 l 1,3,-1
 265 0 l 1,4,-1
 265 358 l 2,5,6
 265 446 265 446 202 446 c 0,7,8
 166 446 166 446 144.5 416.5 c 128,-1,9
 123 387 123 387 123 334 c 2,10,-1
 123 0 l 1,11,-1
 48 0 l 1,12,-1
 48 503 l 1,13,-1
 113 503 l 1,14,-1
 114 437 l 1,15,16
 145 513 145 513 225 513 c 0,0,1
EndSplineSet
EndChar

StartChar: o
Encoding: 111 111 83
Width: 371
GlyphClass: 2
Flags: W
AnchorPoint: "Anchor-11" 351 503 basechar 0
AnchorPoint: "Anchor-10" 186 252 basechar 0
AnchorPoint: "Anchor-9" 186 503 basechar 0
AnchorPoint: "Anchor-8" 334 10 basechar 0
AnchorPoint: "Anchor-7" 186 0 basechar 0
LayerCount: 2
Fore
SplineSet
186 -10 m 0,0,1
 114 -10 114 -10 76 32.5 c 128,-1,2
 38 75 38 75 38 153 c 2,3,-1
 38 351 l 2,4,5
 38 429 38 429 76 471 c 128,-1,6
 114 513 114 513 186 513 c 0,7,8
 257 513 257 513 295.5 471 c 128,-1,9
 334 429 334 429 334 351 c 2,10,-1
 334 153 l 2,11,12
 334 75 334 75 295.5 32.5 c 128,-1,13
 257 -10 257 -10 186 -10 c 0,0,1
186 57 m 0,14,15
 258 57 258 57 258 146 c 2,16,-1
 258 358 l 2,17,18
 258 446 258 446 186 446 c 0,19,20
 113 446 113 446 113 358 c 2,21,-1
 113 146 l 2,22,23
 113 57 113 57 186 57 c 0,14,15
EndSplineSet
Substitution2: "<11,2> Diagonal Fractions lookup 30 nested-substitutions 0 subtable" ordmasculine
Substitution2: "<11,2> Diagonal Fractions lookup 28 nested-substitutions 0 subtable" ordmasculine
Substitution2: "Single Substitution lookup 27 subtable" ordmasculine
Substitution2: "'aalt' Access All Alternates in Latin lookup 0 subtable" ordmasculine
EndChar

StartChar: p
Encoding: 112 112 84
Width: 384
GlyphClass: 2
Flags: W
AnchorPoint: "Anchor-11" 0 0 basechar 0
AnchorPoint: "Anchor-10" 0 0 basechar 0
AnchorPoint: "Anchor-9" 196 503 basechar 0
AnchorPoint: "Anchor-8" 0 0 basechar 0
AnchorPoint: "Anchor-7" 193 0 basechar 0
LayerCount: 2
Fore
SplineSet
226 513 m 0,0,1
 344 513 344 513 344 368 c 2,2,-1
 344 136 l 2,3,4
 344 -10 344 -10 226 -10 c 0,5,6
 158 -10 158 -10 123 50 c 1,7,-1
 123 -155 l 1,8,-1
 48 -155 l 1,9,-1
 48 503 l 1,10,-1
 113 503 l 1,11,-1
 114 435 l 1,12,13
 146 513 146 513 226 513 c 0,0,1
268 142 m 2,14,-1
 268 362 l 2,15,16
 268 446 268 446 204 446 c 0,17,18
 167 446 167 446 145 416.5 c 128,-1,19
 123 387 123 387 123 334 c 2,20,-1
 123 169 l 2,21,22
 123 116 123 116 145 86.5 c 128,-1,23
 167 57 167 57 204 57 c 0,24,25
 268 57 268 57 268 142 c 2,14,-1
EndSplineSet
EndChar

StartChar: q
Encoding: 113 113 85
Width: 384
GlyphClass: 2
Flags: W
LayerCount: 2
Fore
SplineSet
271 432 m 1,0,-1
 281 503 l 1,1,-1
 336 503 l 1,2,-1
 336 -155 l 1,3,-1
 261 -155 l 1,4,-1
 261 50 l 1,5,6
 226 -10 226 -10 158 -10 c 0,7,8
 40 -10 40 -10 40 136 c 2,9,-1
 40 368 l 2,10,11
 40 513 40 513 158 513 c 0,12,13
 240 513 240 513 271 432 c 1,0,-1
180 57 m 0,14,15
 217 57 217 57 239 86.5 c 128,-1,16
 261 116 261 116 261 169 c 2,17,-1
 261 334 l 2,18,19
 261 387 261 387 239 416.5 c 128,-1,20
 217 446 217 446 180 446 c 0,21,22
 116 446 116 446 116 362 c 2,23,-1
 116 142 l 2,24,25
 116 57 116 57 180 57 c 0,14,15
EndSplineSet
EndChar

StartChar: r
Encoding: 114 114 86
Width: 264
GlyphClass: 2
Flags: W
AnchorPoint: "Anchor-11" 0 0 basechar 0
AnchorPoint: "Anchor-10" 0 0 basechar 0
AnchorPoint: "Anchor-9" 142 503 basechar 0
AnchorPoint: "Anchor-8" 0 0 basechar 0
AnchorPoint: "Anchor-7" 85 0 basechar 0
LayerCount: 2
Fore
SplineSet
219 513 m 0,0,1
 240 513 240 513 252 507 c 1,2,-1
 252 433 l 1,3,4
 237 438 237 438 221 438 c 0,5,6
 123 438 123 438 123 293 c 2,7,-1
 123 0 l 1,8,-1
 48 0 l 1,9,-1
 48 503 l 1,10,-1
 113 503 l 1,11,-1
 114 420 l 1,12,13
 140 513 140 513 219 513 c 0,0,1
EndSplineSet
EndChar

StartChar: s
Encoding: 115 115 87
Width: 339
GlyphClass: 2
Flags: W
AnchorPoint: "Anchor-11" 0 0 basechar 0
AnchorPoint: "Anchor-10" 0 0 basechar 0
AnchorPoint: "Anchor-9" 167 503 basechar 0
AnchorPoint: "Anchor-8" 0 0 basechar 0
AnchorPoint: "Anchor-7" 170 0 basechar 0
LayerCount: 2
Fore
SplineSet
173 -10 m 0,0,1
 104 -10 104 -10 65.5 28.5 c 128,-1,2
 27 67 27 67 27 135 c 2,3,-1
 27 152 l 1,4,-1
 100 152 l 1,5,-1
 100 133 l 2,6,7
 100 56 100 56 169 56 c 128,-1,8
 238 56 238 56 238 129 c 0,9,10
 238 151 238 151 224 170 c 0,11,12
 216 182 216 182 205 191.5 c 128,-1,13
 194 201 194 201 183.5 207 c 128,-1,14
 173 213 173 213 151 224 c 0,15,16
 114 244 114 244 107 249 c 0,17,18
 90 260 90 260 72 277 c 0,19,20
 32 313 32 313 32 379 c 0,21,22
 32 441 32 441 68 477 c 128,-1,23
 104 513 104 513 168 513 c 0,24,25
 231 513 231 513 267.5 475.5 c 128,-1,26
 304 438 304 438 304 373 c 2,27,-1
 304 363 l 1,28,-1
 233 363 l 1,29,-1
 233 375 l 2,30,31
 233 448 233 448 169 448 c 0,32,33
 140 448 140 448 122.5 430 c 128,-1,34
 105 412 105 412 105 380 c 0,35,36
 105 356 105 356 119 336 c 0,37,38
 132 319 132 319 146.5 309 c 128,-1,39
 161 299 161 299 195 282 c 0,40,41
 244 257 244 257 274 229 c 0,42,43
 313 194 313 194 313 130 c 0,44,45
 313 64 313 64 276 27 c 128,-1,46
 239 -10 239 -10 173 -10 c 0,0,1
EndSplineSet
EndChar

StartChar: t
Encoding: 116 116 88
Width: 265
GlyphClass: 2
Flags: W
AnchorPoint: "Anchor-11" 0 0 basechar 0
AnchorPoint: "Anchor-10" 127 260 basechar 0
AnchorPoint: "Anchor-9" 121 638 basechar 0
AnchorPoint: "Anchor-8" 0 0 basechar 0
AnchorPoint: "Anchor-7" 154 0 basechar 0
LayerCount: 2
Fore
SplineSet
245 503 m 1,0,-1
 245 439 l 1,1,-1
 154 439 l 1,2,-1
 154 113 l 2,3,4
 154 83 154 83 165 70 c 128,-1,5
 176 57 176 57 203 57 c 0,6,7
 224 57 224 57 245 65 c 1,8,-1
 245 0 l 1,9,10
 224 -10 224 -10 189 -10 c 0,11,12
 78 -10 78 -10 78 105 c 2,13,-1
 78 439 l 1,14,-1
 16 439 l 1,15,-1
 16 503 l 1,16,-1
 81 503 l 1,17,-1
 89 648 l 1,18,-1
 154 648 l 1,19,-1
 154 503 l 1,20,-1
 245 503 l 1,0,-1
EndSplineSet
EndChar

StartChar: u
Encoding: 117 117 89
Width: 385
GlyphClass: 2
Flags: W
AnchorPoint: "Anchor-11" 364 503 basechar 0
AnchorPoint: "Anchor-10" 0 0 basechar 0
AnchorPoint: "Anchor-9" 191 503 basechar 0
AnchorPoint: "Anchor-8" 342 0 basechar 0
AnchorPoint: "Anchor-7" 193 0 basechar 0
LayerCount: 2
Fore
SplineSet
262 169 m 2,0,-1
 262 503 l 1,1,-1
 337 503 l 1,2,-1
 337 0 l 1,3,-1
 272 0 l 1,4,-1
 271 67 l 1,5,6
 239 -10 239 -10 160 -10 c 0,7,8
 44 -10 44 -10 44 136 c 2,9,-1
 44 503 l 1,10,-1
 120 503 l 1,11,-1
 120 145 l 2,12,13
 120 57 120 57 183 57 c 0,14,15
 219 57 219 57 240.5 86.5 c 128,-1,16
 262 116 262 116 262 169 c 2,0,-1
EndSplineSet
EndChar

StartChar: v
Encoding: 118 118 90
Width: 357
GlyphClass: 2
Flags: W
AnchorPoint: "Anchor-11" 0 0 basechar 0
AnchorPoint: "Anchor-10" 0 0 basechar 0
AnchorPoint: "Anchor-9" 179 503 basechar 0
AnchorPoint: "Anchor-8" 0 0 basechar 0
AnchorPoint: "Anchor-7" 178 0 basechar 0
LayerCount: 2
Fore
SplineSet
226 0 m 1,0,-1
 132 0 l 1,1,-1
 18 503 l 1,2,-1
 95 503 l 1,3,-1
 182 101 l 1,4,-1
 269 503 l 1,5,-1
 340 503 l 1,6,-1
 226 0 l 1,0,-1
EndSplineSet
EndChar

StartChar: w
Encoding: 119 119 91
Width: 534
GlyphClass: 2
Flags: W
AnchorPoint: "Anchor-11" 0 0 basechar 0
AnchorPoint: "Anchor-10" 0 0 basechar 0
AnchorPoint: "Anchor-9" 268 503 basechar 0
AnchorPoint: "Anchor-8" 0 0 basechar 0
AnchorPoint: "Anchor-7" 268 0 basechar 0
LayerCount: 2
Fore
SplineSet
204 0 m 1,0,-1
 107 0 l 1,1,-1
 20 503 l 1,2,-1
 94 503 l 1,3,-1
 164 104 l 1,4,-1
 231 503 l 1,5,-1
 310 503 l 1,6,-1
 377 104 l 1,7,-1
 447 503 l 1,8,-1
 515 503 l 1,9,-1
 428 0 l 1,10,-1
 336 0 l 1,11,-1
 270 363 l 1,12,-1
 204 0 l 1,0,-1
EndSplineSet
EndChar

StartChar: x
Encoding: 120 120 92
Width: 367
GlyphClass: 2
Flags: W
AnchorPoint: "Anchor-11" 0 0 basechar 0
AnchorPoint: "Anchor-10" 0 0 basechar 0
AnchorPoint: "Anchor-9" 219 686 basechar 0
AnchorPoint: "Anchor-8" 0 0 basechar 0
AnchorPoint: "Anchor-7" 219 0 basechar 0
LayerCount: 2
Fore
SplineSet
92 0 m 1,0,-1
 17 0 l 1,1,-1
 138 258 l 1,2,-1
 23 503 l 1,3,-1
 105 503 l 1,4,-1
 187 321 l 1,5,-1
 269 503 l 1,6,-1
 344 503 l 1,7,-1
 229 258 l 1,8,-1
 350 0 l 1,9,-1
 267 0 l 1,10,-1
 180 197 l 1,11,-1
 92 0 l 1,0,-1
EndSplineSet
EndChar

StartChar: y
Encoding: 121 121 93
Width: 355
GlyphClass: 2
Flags: W
AnchorPoint: "Anchor-11" 0 0 basechar 0
AnchorPoint: "Anchor-10" 0 0 basechar 0
AnchorPoint: "Anchor-9" 178 503 basechar 0
AnchorPoint: "Anchor-8" 0 0 basechar 0
AnchorPoint: "Anchor-7" 178 0 basechar 0
LayerCount: 2
Fore
SplineSet
89 -165 m 0,0,1
 55 -165 55 -165 38 -155 c 1,2,-1
 38 -90 l 1,3,4
 56 -98 56 -98 78 -98 c 0,5,6
 105 -98 105 -98 117.5 -87 c 128,-1,7
 130 -76 130 -76 137 -46 c 2,8,-1
 147 -10 l 1,9,-1
 17 503 l 1,10,-1
 94 503 l 1,11,-1
 184 120 l 1,12,-1
 266 503 l 1,13,-1
 337 503 l 1,14,-1
 210 -57 l 2,15,16
 197 -115 197 -115 169 -140 c 128,-1,17
 141 -165 141 -165 89 -165 c 0,0,1
EndSplineSet
EndChar

StartChar: z
Encoding: 122 122 94
Width: 328
GlyphClass: 2
Flags: W
AnchorPoint: "Anchor-11" 0 0 basechar 0
AnchorPoint: "Anchor-10" 164 252 basechar 0
AnchorPoint: "Anchor-9" 168 503 basechar 0
AnchorPoint: "Anchor-8" 0 0 basechar 0
AnchorPoint: "Anchor-7" 164 0 basechar 0
LayerCount: 2
Fore
SplineSet
302 0 m 1,0,-1
 24 0 l 1,1,-1
 24 63 l 1,2,-1
 222 439 l 1,3,-1
 34 439 l 1,4,-1
 34 503 l 1,5,-1
 302 503 l 1,6,-1
 302 440 l 1,7,-1
 104 65 l 1,8,-1
 302 65 l 1,9,-1
 302 0 l 1,0,-1
EndSplineSet
EndChar

StartChar: braceleft
Encoding: 123 123 95
Width: 264
GlyphClass: 2
Flags: W
LayerCount: 2
Fore
SplineSet
237 -100 m 1,0,-1
 192 -100 l 2,1,2
 89 -100 89 -100 89 8 c 2,3,-1
 89 196 l 2,4,5
 89 238 89 238 75.5 254 c 128,-1,6
 62 270 62 270 25 270 c 1,7,-1
 25 331 l 1,8,9
 62 331 62 331 75.5 346.5 c 128,-1,10
 89 362 89 362 89 403 c 2,11,-1
 89 593 l 2,12,13
 89 646 89 646 116 673 c 128,-1,14
 143 700 143 700 192 700 c 2,15,-1
 237 700 l 1,16,-1
 237 639 l 1,17,-1
 220 639 l 2,18,19
 186 639 186 639 174 623.5 c 128,-1,20
 162 608 162 608 162 567 c 2,21,-1
 162 394 l 2,22,23
 162 318 162 318 103 301 c 1,24,-1
 103 299 l 1,25,26
 162 284 162 284 162 205 c 2,27,-1
 162 33 l 2,28,29
 162 -8 162 -8 174 -23.5 c 128,-1,30
 186 -39 186 -39 220 -39 c 2,31,-1
 237 -39 l 1,32,-1
 237 -100 l 1,0,-1
EndSplineSet
EndChar

StartChar: bar
Encoding: 124 124 96
Width: 300
GlyphClass: 2
Flags: W
LayerCount: 2
Fore
SplineSet
183 -200 m 1,0,-1
 117 -200 l 1,1,-1
 117 801 l 1,2,-1
 183 801 l 1,3,-1
 183 -200 l 1,0,-1
EndSplineSet
EndChar

StartChar: braceright
Encoding: 125 125 97
Width: 264
GlyphClass: 2
Flags: W
LayerCount: 2
Fore
SplineSet
72 -100 m 2,0,-1
 28 -100 l 1,1,-1
 28 -39 l 1,2,-1
 44 -39 l 2,3,4
 78 -39 78 -39 90.5 -23.5 c 128,-1,5
 103 -8 103 -8 103 33 c 2,6,-1
 103 205 l 2,7,8
 103 285 103 285 162 299 c 1,9,-1
 162 301 l 1,10,11
 103 318 103 318 103 394 c 2,12,-1
 103 567 l 2,13,14
 103 608 103 608 90.5 623.5 c 128,-1,15
 78 639 78 639 44 639 c 2,16,-1
 28 639 l 1,17,-1
 28 700 l 1,18,-1
 72 700 l 2,19,20
 121 700 121 700 148 673 c 128,-1,21
 175 646 175 646 175 593 c 2,22,-1
 175 403 l 2,23,24
 175 362 175 362 189 346.5 c 128,-1,25
 203 331 203 331 240 331 c 1,26,-1
 240 270 l 1,27,28
 203 270 203 270 189 254 c 128,-1,29
 175 238 175 238 175 196 c 2,30,-1
 175 8 l 2,31,32
 175 -100 175 -100 72 -100 c 2,0,-1
EndSplineSet
EndChar

StartChar: asciitilde
Encoding: 126 126 98
Width: 400
GlyphClass: 2
Flags: W
LayerCount: 2
Fore
SplineSet
61 235 m 1,0,-1
 17 268 l 1,1,2
 46 318 46 318 71 340 c 128,-1,3
 96 362 96 362 130 362 c 0,4,5
 162 362 162 362 206 331 c 0,6,7
 252 301 252 301 270 301 c 0,8,9
 289 301 289 301 303 314.5 c 128,-1,10
 317 328 317 328 340 365 c 1,11,-1
 384 332 l 1,12,13
 356 282 356 282 330.5 260 c 128,-1,14
 305 238 305 238 271 238 c 0,15,16
 241 238 241 238 195 269 c 0,17,18
 150 299 150 299 131 299 c 128,-1,19
 112 299 112 299 98 285.5 c 128,-1,20
 84 272 84 272 61 235 c 1,0,-1
EndSplineSet
EndChar

StartChar: exclamdown
Encoding: 161 161 100
Width: 198
GlyphClass: 2
Flags: W
LayerCount: 2
Fore
SplineSet
139 403 m 1,0,-1
 60 403 l 1,1,-1
 60 503 l 1,2,-1
 139 503 l 1,3,-1
 139 403 l 1,0,-1
138 -198 m 1,4,-1
 60 -198 l 1,5,-1
 60 132 l 1,6,-1
 70 328 l 1,7,-1
 128 328 l 1,8,-1
 138 132 l 1,9,-1
 138 -198 l 1,4,-1
EndSplineSet
EndChar

StartChar: cent
Encoding: 162 162 101
Width: 400
GlyphClass: 2
Flags: W
LayerCount: 2
Fore
SplineSet
360 481 m 2,0,-1
 360 450 l 1,1,-1
 287 450 l 1,2,-1
 287 486 l 2,3,4
 287 530 287 530 266 553.5 c 128,-1,5
 245 577 245 577 206 577 c 0,6,7
 169 577 169 577 148 553.5 c 128,-1,8
 127 530 127 530 127 486 c 2,9,-1
 127 214 l 2,10,11
 127 170 127 170 148 146.5 c 128,-1,12
 169 123 169 123 206 123 c 0,13,14
 245 123 245 123 266 146.5 c 128,-1,15
 287 170 287 170 287 214 c 2,16,-1
 287 270 l 1,17,-1
 360 270 l 1,18,-1
 360 219 l 2,19,20
 360 149 360 149 328 106 c 128,-1,21
 296 63 296 63 236 54 c 1,22,-1
 236 -20 l 1,23,-1
 171 -20 l 1,24,-1
 171 54 l 1,25,26
 112 64 112 64 80.5 106.5 c 128,-1,27
 49 149 49 149 49 219 c 2,28,-1
 49 481 l 2,29,30
 49 551 49 551 80.5 593.5 c 128,-1,31
 112 636 112 636 171 646 c 1,32,-1
 171 710 l 1,33,-1
 236 710 l 1,34,-1
 236 646 l 1,35,36
 296 637 296 637 328 594 c 128,-1,37
 360 551 360 551 360 481 c 2,0,-1
EndSplineSet
EndChar

StartChar: sterling
Encoding: 163 163 102
Width: 400
GlyphClass: 2
Flags: W
LayerCount: 2
Fore
SplineSet
359 0 m 1,0,-1
 41 0 l 1,1,-1
 41 67 l 1,2,3
 86 96 86 96 112 140.5 c 128,-1,4
 138 185 138 185 138 232 c 0,5,6
 138 250 138 250 135 266 c 1,7,-1
 44 266 l 1,8,-1
 44 328 l 1,9,-1
 122 328 l 1,10,-1
 98 378 l 2,11,12
 88 398 88 398 73 431 c 0,13,14
 52 485 52 485 52 549 c 0,15,16
 52 622 52 622 92 666 c 128,-1,17
 132 710 132 710 207 710 c 0,18,19
 284 710 284 710 324 665 c 128,-1,20
 364 620 364 620 364 538 c 2,21,-1
 364 505 l 1,22,-1
 290 505 l 1,23,-1
 290 543 l 2,24,25
 290 639 290 639 209 639 c 0,26,27
 130 639 130 639 130 543 c 0,28,29
 130 500 130 500 141 461 c 0,30,31
 153 424 153 424 171 383 c 0,32,33
 191 343 191 343 195 328 c 1,34,-1
 330 328 l 1,35,-1
 330 266 l 1,36,-1
 209 266 l 1,37,38
 211 242 211 242 211 238 c 0,39,40
 211 155 211 155 130 71 c 1,41,-1
 359 71 l 1,42,-1
 359 0 l 1,0,-1
EndSplineSet
EndChar

StartChar: currency
Encoding: 164 164 103
Width: 400
GlyphClass: 2
Flags: W
LayerCount: 2
Fore
SplineSet
303 282 m 1,0,-1
 359 229 l 1,1,-1
 322 192 l 1,2,-1
 270 249 l 1,3,4
 238 228 238 228 201 228 c 128,-1,5
 164 228 164 228 132 249 c 1,6,-1
 80 192 l 1,7,-1
 43 229 l 1,8,-1
 99 282 l 1,9,10
 78 313 78 313 78 350 c 128,-1,11
 78 387 78 387 99 418 c 1,12,-1
 43 471 l 1,13,-1
 80 508 l 1,14,-1
 132 452 l 1,15,16
 164 473 164 473 201 473 c 128,-1,17
 238 473 238 473 270 452 c 1,18,-1
 322 508 l 1,19,-1
 359 471 l 1,20,-1
 303 418 l 1,21,22
 323 389 323 389 323 350 c 128,-1,23
 323 311 323 311 303 282 c 1,0,-1
266 350 m 0,24,25
 266 379 266 379 248 397.5 c 128,-1,26
 230 416 230 416 201 416 c 128,-1,27
 172 416 172 416 153.5 397.5 c 128,-1,28
 135 379 135 379 135 350 c 128,-1,29
 135 321 135 321 153.5 303 c 128,-1,30
 172 285 172 285 201 285 c 128,-1,31
 230 285 230 285 248 303.5 c 128,-1,32
 266 322 266 322 266 350 c 0,24,25
EndSplineSet
EndChar

StartChar: yen
Encoding: 165 165 104
Width: 400
GlyphClass: 2
Flags: W
LayerCount: 2
Fore
SplineSet
304 700 m 1,0,-1
 380 700 l 1,1,-1
 243 320 l 1,2,-1
 344 320 l 1,3,-1
 344 266 l 1,4,-1
 239 266 l 1,5,-1
 239 179 l 1,6,-1
 344 179 l 1,7,-1
 344 124 l 1,8,-1
 239 124 l 1,9,-1
 239 0 l 1,10,-1
 161 0 l 1,11,-1
 161 124 l 1,12,-1
 60 124 l 1,13,-1
 60 179 l 1,14,-1
 161 179 l 1,15,-1
 161 266 l 1,16,-1
 60 266 l 1,17,-1
 60 320 l 1,18,-1
 157 320 l 1,19,-1
 20 700 l 1,20,-1
 103 700 l 1,21,-1
 203 408 l 1,22,-1
 304 700 l 1,0,-1
EndSplineSet
EndChar

StartChar: brokenbar
Encoding: 166 166 105
Width: 300
GlyphClass: 2
Flags: W
LayerCount: 2
Fore
SplineSet
183 400 m 1,0,-1
 117 400 l 1,1,-1
 117 800 l 1,2,-1
 183 800 l 1,3,-1
 183 400 l 1,0,-1
183 -200 m 1,4,-1
 117 -200 l 1,5,-1
 117 200 l 1,6,-1
 183 200 l 1,7,-1
 183 -200 l 1,4,-1
EndSplineSet
EndChar

StartChar: section
Encoding: 167 167 106
Width: 415
GlyphClass: 2
Flags: W
LayerCount: 2
Fore
SplineSet
301 157 m 1,0,1
 359 111 359 111 359 38 c 0,2,3
 359 -27 359 -27 318 -67 c 128,-1,4
 277 -107 277 -107 208 -107 c 128,-1,5
 139 -107 139 -107 98 -66 c 128,-1,6
 57 -25 57 -25 57 44 c 2,7,-1
 57 56 l 1,8,-1
 129 56 l 1,9,-1
 129 42 l 2,10,11
 129 2 129 2 150 -20 c 128,-1,12
 171 -42 171 -42 207 -42 c 0,13,14
 241 -42 241 -42 263 -21 c 128,-1,15
 285 0 285 0 285 36 c 0,16,17
 285 63 285 63 267 86 c 0,18,19
 256 100 256 100 241.5 110.5 c 128,-1,20
 227 121 227 121 217.5 125.5 c 128,-1,21
 208 130 208 130 175 146 c 0,22,23
 133 166 133 166 122 172 c 0,24,25
 112 178 112 178 79 203 c 0,26,27
 33 242 33 242 33 311 c 0,28,29
 33 411 33 411 115 447 c 1,30,31
 57 490 57 490 57 566 c 0,32,33
 57 631 57 631 98 670.5 c 128,-1,34
 139 710 139 710 208 710 c 0,35,36
 275 710 275 710 317 669 c 128,-1,37
 359 628 359 628 359 560 c 2,38,-1
 359 548 l 1,39,-1
 287 548 l 1,40,-1
 287 562 l 2,41,42
 287 601 287 601 265.5 623 c 128,-1,43
 244 645 244 645 208 645 c 0,44,45
 175 645 175 645 153 623.5 c 128,-1,46
 131 602 131 602 131 567 c 0,47,48
 131 526 131 526 165 499 c 0,49,50
 197 477 197 477 241 457 c 0,51,52
 273 442 273 442 293 430 c 0,53,54
 309 421 309 421 336 400 c 0,55,56
 383 362 383 362 383 292 c 0,57,58
 383 191 383 191 301 157 c 1,0,1
108 319 m 0,59,60
 108 276 108 276 142 248 c 0,61,62
 171 226 171 226 219 204 c 2,63,-1
 236 196 l 1,64,65
 269 200 269 200 288 223.5 c 128,-1,66
 307 247 307 247 307 284 c 0,67,68
 307 328 307 328 272 355 c 0,69,70
 247 374 247 374 197 399 c 2,71,-1
 178 408 l 1,72,73
 146 404 146 404 127 380.5 c 128,-1,74
 108 357 108 357 108 319 c 0,59,60
EndSplineSet
EndChar

StartChar: dieresis
Encoding: 168 168 107
Width: 500
GlyphClass: 4
Flags: W
AnchorPoint: "Anchor-13" 250 683 basemark 0
LayerCount: 2
Fore
SplineSet
222 575 m 1,0,-1
 152 575 l 1,1,-1
 152 683 l 1,2,-1
 222 683 l 1,3,-1
 222 575 l 1,0,-1
348 575 m 1,4,-1
 278 575 l 1,5,-1
 278 683 l 1,6,-1
 348 683 l 1,7,-1
 348 575 l 1,4,-1
EndSplineSet
EndChar

StartChar: copyright
Encoding: 169 169 108
Width: 754
GlyphClass: 2
Flags: W
LayerCount: 2
Fore
SplineSet
626 92 m 0,0,1
 527 -10 527 -10 377 -10 c 128,-1,2
 227 -10 227 -10 128 92 c 0,3,4
 29 196 29 196 29 350 c 0,5,6
 29 505 29 505 128 607 c 0,7,8
 227 710 227 710 377 710 c 128,-1,9
 527 710 527 710 626 607 c 0,10,11
 725 505 725 505 725 350 c 0,12,13
 725 196 725 196 626 92 c 0,0,1
377 44 m 128,-1,15
 504 44 504 44 587 130 c 0,16,17
 670 218 670 218 670 350 c 0,18,19
 670 483 670 483 587 569 c 0,20,21
 504 656 504 656 377 656 c 256,22,23
 250 656 250 656 167 570 c 0,24,25
 85 485 85 485 85 350 c 128,-1,26
 85 215 85 215 167 130 c 0,27,14
 250 44 250 44 377 44 c 128,-1,15
374 131 m 0,28,29
 264 131 264 131 264 250 c 2,30,-1
 264 449 l 2,31,32
 264 570 264 570 374 570 c 0,33,34
 483 570 483 570 483 449 c 2,35,-1
 483 418 l 1,36,-1
 428 418 l 1,37,-1
 428 453 l 2,38,39
 428 516 428 516 375 516 c 128,-1,40
 322 516 322 516 322 453 c 2,41,-1
 322 247 l 2,42,43
 322 185 322 185 375 185 c 128,-1,44
 428 185 428 185 428 247 c 2,45,-1
 428 298 l 1,46,-1
 483 298 l 1,47,-1
 483 250 l 2,48,49
 483 193 483 193 455.5 162 c 128,-1,50
 428 131 428 131 374 131 c 0,28,29
EndSplineSet
EndChar

StartChar: ordfeminine
Encoding: 170 170 109
Width: 281
GlyphClass: 2
Flags: W
LayerCount: 2
Fore
SplineSet
117 542 m 0,0,1
 162 562 162 562 172 572 c 0,2,3
 184 582 184 582 184 601 c 2,4,-1
 184 610 l 2,5,6
 184 663 184 663 138 663 c 0,7,8
 87 663 87 663 87 608 c 2,9,-1
 87 597 l 1,10,-1
 35 597 l 1,11,-1
 35 606 l 2,12,13
 35 655 35 655 62 682.5 c 128,-1,14
 89 710 89 710 138 710 c 0,15,16
 238 710 238 710 238 601 c 2,17,-1
 238 440 l 2,18,19
 238 371 238 371 245 342 c 1,20,-1
 196 342 l 1,21,22
 193 352 193 352 190 387 c 1,23,24
 167 334 167 334 108 334 c 0,25,26
 69 334 69 334 47.5 357.5 c 128,-1,27
 26 381 26 381 26 423 c 0,28,29
 26 466 26 466 46.5 492.5 c 128,-1,30
 67 519 67 519 117 542 c 0,0,1
124 382 m 0,31,32
 184 382 184 382 184 463 c 2,33,-1
 184 536 l 1,34,35
 176 524 176 524 131 502 c 0,36,37
 80 476 80 476 80 431 c 0,38,39
 80 382 80 382 124 382 c 0,31,32
239 228 m 1,40,-1
 33 228 l 1,41,-1
 33 277 l 1,42,-1
 239 277 l 1,43,-1
 239 228 l 1,40,-1
EndSplineSet
EndChar

StartChar: guillemotleft
Encoding: 171 171 110
Width: 305
GlyphClass: 2
Flags: W
LayerCount: 2
Fore
SplineSet
150 196 m 1,0,-1
 92 196 l 1,1,-1
 27 300 l 1,2,-1
 92 400 l 1,3,-1
 150 400 l 1,4,-1
 99 300 l 1,5,-1
 150 196 l 1,0,-1
276 196 m 1,6,-1
 218 196 l 1,7,-1
 154 300 l 1,8,-1
 218 400 l 1,9,-1
 276 400 l 1,10,-1
 226 300 l 1,11,-1
 276 196 l 1,6,-1
EndSplineSet
EndChar

StartChar: logicalnot
Encoding: 172 172 111
Width: 400
GlyphClass: 2
Flags: W
LayerCount: 2
Fore
SplineSet
359 165 m 1,0,-1
 300 165 l 1,1,-1
 300 308 l 1,2,-1
 19 308 l 1,3,-1
 19 367 l 1,4,-1
 359 367 l 1,5,-1
 359 165 l 1,0,-1
EndSplineSet
EndChar

StartChar: uni00AD
Encoding: 173 173 112
Width: 265
GlyphClass: 2
Flags: W
LayerCount: 2
Fore
SplineSet
235 268 m 1,0,-1
 30 268 l 1,1,-1
 30 332 l 1,2,-1
 235 332 l 1,3,-1
 235 268 l 1,0,-1
EndSplineSet
EndChar

StartChar: registered
Encoding: 174 174 113
Width: 754
GlyphClass: 2
Flags: W
LayerCount: 2
Fore
SplineSet
626 92 m 0,0,1
 527 -10 527 -10 377 -10 c 128,-1,2
 227 -10 227 -10 128 92 c 0,3,4
 29 196 29 196 29 350 c 0,5,6
 29 505 29 505 128 607 c 0,7,8
 227 710 227 710 377 710 c 128,-1,9
 527 710 527 710 626 607 c 0,10,11
 725 505 725 505 725 350 c 0,12,13
 725 196 725 196 626 92 c 0,0,1
377 44 m 128,-1,15
 504 44 504 44 587 130 c 0,16,17
 670 218 670 218 670 350 c 0,18,19
 670 483 670 483 587 569 c 0,20,21
 504 656 504 656 377 656 c 256,22,23
 250 656 250 656 167 570 c 0,24,25
 85 485 85 485 85 350 c 128,-1,26
 85 215 85 215 167 130 c 0,27,14
 250 44 250 44 377 44 c 128,-1,15
331 136 m 1,28,-1
 273 136 l 1,29,-1
 273 564 l 1,30,-1
 383 564 l 2,31,32
 438 564 438 564 465 537.5 c 128,-1,33
 492 511 492 511 492 455 c 2,34,-1
 492 442 l 2,35,36
 492 368 492 368 437 349 c 1,37,-1
 437 348 l 1,38,39
 492 333 492 333 492 257 c 2,40,-1
 492 195 l 2,41,42
 492 156 492 156 501 136 c 1,43,-1
 441 136 l 1,44,45
 434 156 434 156 434 196 c 2,46,-1
 434 254 l 2,47,48
 434 290 434 290 420 304 c 128,-1,49
 406 318 406 318 371 318 c 2,50,-1
 331 318 l 1,51,-1
 331 136 l 1,28,-1
331 510 m 1,52,-1
 331 372 l 1,53,-1
 373 372 l 2,54,55
 405 372 405 372 419.5 386 c 128,-1,56
 434 400 434 400 434 433 c 2,57,-1
 434 449 l 2,58,59
 434 481 434 481 421.5 495.5 c 128,-1,60
 409 510 409 510 380 510 c 2,61,-1
 331 510 l 1,52,-1
EndSplineSet
EndChar

StartChar: macron
Encoding: 175 175 114
Width: 500
GlyphClass: 4
Flags: W
AnchorPoint: "Anchor-13" 250 659 basemark 0
LayerCount: 2
Fore
SplineSet
356 600 m 1,0,-1
 144 600 l 1,1,-1
 144 659 l 1,2,-1
 356 659 l 1,3,-1
 356 600 l 1,0,-1
EndSplineSet
EndChar

StartChar: degree
Encoding: 176 176 115
Width: 400
GlyphClass: 2
Flags: W
LayerCount: 2
Fore
SplineSet
283 511 m 128,-1,1
 249 477 249 477 200 477 c 128,-1,2
 151 477 151 477 117 511 c 0,3,4
 84 546 84 546 84 594 c 0,5,6
 84 643 84 643 117 676 c 0,7,8
 151 710 151 710 200 710 c 128,-1,9
 249 710 249 710 283 676 c 0,10,11
 317 643 317 643 317 594 c 128,-1,0
 317 545 317 545 283 511 c 128,-1,1
158 551 m 0,12,13
 175 534 175 534 200 534 c 128,-1,14
 225 534 225 534 242 551 c 0,15,16
 260 569 260 569 260 594 c 128,-1,17
 260 619 260 619 242 636 c 0,18,19
 225 654 225 654 200 654 c 128,-1,20
 175 654 175 654 158 636 c 0,21,22
 141 619 141 619 141 594 c 128,-1,23
 141 569 141 569 158 551 c 0,12,13
EndSplineSet
EndChar

StartChar: plusminus
Encoding: 177 177 116
Width: 400
GlyphClass: 2
Flags: W
LayerCount: 2
Fore
SplineSet
360 113 m 1,0,-1
 40 113 l 1,1,-1
 40 172 l 1,2,-1
 170 172 l 1,3,-1
 170 299 l 1,4,-1
 40 299 l 1,5,-1
 40 359 l 1,6,-1
 170 359 l 1,7,-1
 170 489 l 1,8,-1
 230 489 l 1,9,-1
 230 359 l 1,10,-1
 360 359 l 1,11,-1
 360 299 l 1,12,-1
 230 299 l 1,13,-1
 230 172 l 1,14,-1
 360 172 l 1,15,-1
 360 113 l 1,0,-1
EndSplineSet
EndChar

StartChar: uni00B2
Encoding: 178 178 117
Width: 283
GlyphClass: 2
Flags: W
LayerCount: 2
Fore
SplineSet
240 351 m 1,0,-1
 43 351 l 1,1,-1
 43 394 l 2,2,3
 43 444 43 444 60.5 483 c 128,-1,4
 78 522 78 522 120 564 c 0,5,6
 159 604 159 604 175 633.5 c 128,-1,7
 191 663 191 663 191 696 c 0,8,9
 191 757 191 757 143 757 c 0,10,11
 94 757 94 757 94 699 c 2,12,-1
 94 662 l 1,13,-1
 43 662 l 1,14,-1
 43 696 l 2,15,16
 43 748 43 748 68.5 776.5 c 128,-1,17
 94 805 94 805 144 805 c 128,-1,18
 194 805 194 805 219.5 777 c 128,-1,19
 245 749 245 749 245 698 c 0,20,21
 245 656 245 656 225.5 619 c 128,-1,22
 206 582 206 582 160 534 c 0,23,24
 123 494 123 494 109.5 468 c 128,-1,25
 96 442 96 442 96 410 c 2,26,-1
 96 400 l 1,27,-1
 240 400 l 1,28,-1
 240 351 l 1,0,-1
EndSplineSet
EndChar

StartChar: uni00B3
Encoding: 179 179 118
Width: 283
GlyphClass: 2
Flags: W
LayerCount: 2
Fore
SplineSet
138 341 m 0,0,1
 89 341 89 341 63 370 c 128,-1,2
 37 399 37 399 37 452 c 2,3,-1
 37 486 l 1,4,-1
 88 486 l 1,5,-1
 88 448 l 2,6,7
 88 390 88 390 137 390 c 128,-1,8
 186 390 186 390 186 453 c 2,9,-1
 186 495 l 2,10,11
 186 559 186 559 132 559 c 2,12,-1
 106 559 l 1,13,-1
 106 607 l 1,14,-1
 135 607 l 2,15,16
 186 607 186 607 186 666 c 2,17,-1
 186 693 l 2,18,19
 186 757 186 757 137 757 c 128,-1,20
 88 757 88 757 88 699 c 2,21,-1
 88 673 l 1,22,-1
 38 673 l 1,23,-1
 38 695 l 2,24,25
 38 805 38 805 139 805 c 128,-1,26
 240 805 240 805 240 695 c 2,27,-1
 240 675 l 2,28,29
 240 604 240 604 189 585 c 1,30,-1
 189 583 l 1,31,32
 240 566 240 566 240 491 c 2,33,-1
 240 452 l 2,34,35
 240 341 240 341 138 341 c 0,0,1
EndSplineSet
EndChar

StartChar: acute
Encoding: 180 180 119
Width: 500
GlyphClass: 4
Flags: W
AnchorPoint: "Anchor-13" 250 693 basemark 0
LayerCount: 2
Fore
SplineSet
263 565 m 1,0,-1
 201 565 l 1,1,-1
 272 693 l 1,2,-1
 359 693 l 1,3,-1
 263 565 l 1,0,-1
EndSplineSet
EndChar

StartChar: mu
Encoding: 181 181 120
Width: 388
GlyphClass: 2
Flags: W
LayerCount: 2
Fore
SplineSet
265 169 m 2,0,-1
 265 503 l 1,1,-1
 341 503 l 1,2,-1
 341 0 l 1,3,-1
 275 0 l 1,4,-1
 274 65 l 1,5,6
 242 -10 242 -10 163 -10 c 0,7,8
 145 -10 145 -10 123 -5 c 1,9,-1
 123 -155 l 1,10,-1
 48 -155 l 1,11,-1
 48 503 l 1,12,-1
 123 503 l 1,13,-1
 123 145 l 2,14,15
 123 57 123 57 186 57 c 0,16,17
 223 57 223 57 244 86 c 128,-1,18
 265 115 265 115 265 169 c 2,0,-1
EndSplineSet
EndChar

StartChar: paragraph
Encoding: 182 182 121
Width: 448
GlyphClass: 2
Flags: W
LayerCount: 2
Fore
SplineSet
250 -97 m 1,0,-1
 189 -97 l 1,1,-1
 189 304 l 1,2,3
 36 307 36 307 36 466 c 2,4,-1
 36 530 l 2,5,6
 36 700 36 700 199 700 c 2,7,-1
 389 700 l 1,8,-1
 389 -97 l 1,9,-1
 328 -97 l 1,10,-1
 328 641 l 1,11,-1
 250 641 l 1,12,-1
 250 -97 l 1,0,-1
EndSplineSet
EndChar

StartChar: periodcentered
Encoding: 183 183 122
Width: 183
GlyphClass: 2
Flags: W
LayerCount: 2
Fore
SplineSet
131 250 m 1,0,-1
 52 250 l 1,1,-1
 52 350 l 1,2,-1
 131 350 l 1,3,-1
 131 250 l 1,0,-1
EndSplineSet
EndChar

StartChar: cedilla
Encoding: 184 184 123
Width: 500
GlyphClass: 4
Flags: W
AnchorPoint: "Anchor-12" 255 -155 basemark 0
LayerCount: 2
Fore
SplineSet
250 -155 m 0,0,1
 161 -155 161 -155 161 -96 c 2,2,-1
 161 -88 l 1,3,-1
 217 -88 l 1,4,-1
 217 -96 l 2,5,6
 217 -120 217 -120 249 -120 c 0,7,8
 285 -120 285 -120 285 -93 c 128,-1,9
 285 -66 285 -66 246 -66 c 2,10,-1
 236 -66 l 1,11,-1
 236 10 l 1,12,-1
 275 10 l 1,13,-1
 275 -44 l 1,14,15
 342 -44 342 -44 342 -94 c 0,16,17
 342 -129 342 -129 320 -142 c 128,-1,18
 298 -155 298 -155 250 -155 c 0,0,1
EndSplineSet
EndChar

StartChar: uni00B9
Encoding: 185 185 124
Width: 283
GlyphClass: 2
Flags: W
LayerCount: 2
Fore
SplineSet
192 351 m 1,0,-1
 138 351 l 1,1,-1
 138 709 l 1,2,3
 105 698 105 698 62 697 c 1,4,-1
 62 737 l 1,5,6
 101 738 101 738 122 751 c 128,-1,7
 143 764 143 764 155 795 c 1,8,-1
 192 795 l 1,9,-1
 192 351 l 1,0,-1
EndSplineSet
EndChar

StartChar: ordmasculine
Encoding: 186 186 125
Width: 281
GlyphClass: 2
Flags: W
LayerCount: 2
Fore
SplineSet
141 334 m 0,0,1
 90 334 90 334 62.5 364.5 c 128,-1,2
 35 395 35 395 35 451 c 2,3,-1
 35 594 l 2,4,5
 35 650 35 650 62.5 680 c 128,-1,6
 90 710 90 710 141 710 c 0,7,8
 191 710 191 710 219 679.5 c 128,-1,9
 247 649 247 649 247 594 c 2,10,-1
 247 451 l 2,11,12
 247 395 247 395 219 364.5 c 128,-1,13
 191 334 191 334 141 334 c 0,0,1
141 383 m 0,14,15
 193 383 193 383 193 446 c 2,16,-1
 193 599 l 2,17,18
 193 662 193 662 141 662 c 0,19,20
 88 662 88 662 88 599 c 2,21,-1
 88 446 l 2,22,23
 88 383 88 383 141 383 c 0,14,15
243 229 m 1,24,-1
 38 229 l 1,25,-1
 38 277 l 1,26,-1
 243 277 l 1,27,-1
 243 229 l 1,24,-1
EndSplineSet
EndChar

StartChar: guillemotright
Encoding: 187 187 126
Width: 305
GlyphClass: 2
Flags: W
LayerCount: 2
Fore
SplineSet
87 196 m 1,0,-1
 30 196 l 1,1,-1
 79 300 l 1,2,-1
 30 400 l 1,3,-1
 87 400 l 1,4,-1
 152 300 l 1,5,-1
 87 196 l 1,0,-1
214 196 m 1,6,-1
 156 196 l 1,7,-1
 206 300 l 1,8,-1
 156 400 l 1,9,-1
 214 400 l 1,10,-1
 278 300 l 1,11,-1
 214 196 l 1,6,-1
EndSplineSet
EndChar

StartChar: onequarter
Encoding: 188 188 127
Width: 653
GlyphClass: 2
Flags: W
LayerCount: 2
Fore
SplineSet
192 256 m 1,0,-1
 138 256 l 1,1,-1
 138 614 l 1,2,3
 105 603 105 603 62 602 c 1,4,-1
 62 642 l 1,5,6
 101 643 101 643 122 656 c 128,-1,7
 143 669 143 669 155 700 c 1,8,-1
 192 700 l 1,9,-1
 192 256 l 1,0,-1
218 0 m 1,10,-1
 164 0 l 1,11,-1
 436 700 l 1,12,-1
 490 700 l 1,13,-1
 218 0 l 1,10,-1
593 0 m 1,14,-1
 539 0 l 1,15,-1
 539 87 l 1,16,-1
 397 87 l 1,17,-1
 397 136 l 1,18,-1
 534 444 l 1,19,-1
 593 444 l 1,20,-1
 593 135 l 1,21,-1
 628 135 l 1,22,-1
 628 87 l 1,23,-1
 593 87 l 1,24,-1
 593 0 l 1,14,-1
540 349 m 1,25,-1
 447 135 l 1,26,-1
 540 135 l 1,27,-1
 540 349 l 1,25,-1
EndSplineSet
EndChar

StartChar: onehalf
Encoding: 189 189 128
Width: 653
GlyphClass: 2
Flags: W
LayerCount: 2
Fore
SplineSet
192 256 m 1,0,-1
 138 256 l 1,1,-1
 138 614 l 1,2,3
 105 603 105 603 62 602 c 1,4,-1
 62 642 l 1,5,6
 101 643 101 643 122 656 c 128,-1,7
 143 669 143 669 155 700 c 1,8,-1
 192 700 l 1,9,-1
 192 256 l 1,0,-1
218 0 m 1,10,-1
 164 0 l 1,11,-1
 436 700 l 1,12,-1
 490 700 l 1,13,-1
 218 0 l 1,10,-1
610 0 m 1,14,-1
 413 0 l 1,15,-1
 413 43 l 2,16,17
 413 94 413 94 430.5 132.5 c 128,-1,18
 448 171 448 171 490 213 c 0,19,20
 529 253 529 253 545 282.5 c 128,-1,21
 561 312 561 312 561 345 c 0,22,23
 561 406 561 406 513 406 c 0,24,25
 464 406 464 406 464 348 c 2,26,-1
 464 311 l 1,27,-1
 413 311 l 1,28,-1
 413 345 l 2,29,30
 413 397 413 397 438.5 425.5 c 128,-1,31
 464 454 464 454 514 454 c 128,-1,32
 564 454 564 454 589.5 426 c 128,-1,33
 615 398 615 398 615 347 c 0,34,35
 615 305 615 305 595.5 268 c 128,-1,36
 576 231 576 231 530 183 c 0,37,38
 493 143 493 143 479.5 117 c 128,-1,39
 466 91 466 91 466 59 c 2,40,-1
 466 49 l 1,41,-1
 610 49 l 1,42,-1
 610 0 l 1,14,-1
EndSplineSet
EndChar

StartChar: threequarters
Encoding: 190 190 129
Width: 653
GlyphClass: 2
Flags: W
LayerCount: 2
Fore
SplineSet
138 246 m 0,0,1
 89 246 89 246 63 275 c 128,-1,2
 37 304 37 304 37 357 c 2,3,-1
 37 391 l 1,4,-1
 88 391 l 1,5,-1
 88 353 l 2,6,7
 88 295 88 295 137 295 c 128,-1,8
 186 295 186 295 186 358 c 2,9,-1
 186 400 l 2,10,11
 186 464 186 464 132 464 c 2,12,-1
 106 464 l 1,13,-1
 106 512 l 1,14,-1
 135 512 l 2,15,16
 186 512 186 512 186 571 c 2,17,-1
 186 598 l 2,18,19
 186 662 186 662 137 662 c 128,-1,20
 88 662 88 662 88 604 c 2,21,-1
 88 578 l 1,22,-1
 38 578 l 1,23,-1
 38 600 l 2,24,25
 38 710 38 710 139 710 c 128,-1,26
 240 710 240 710 240 600 c 2,27,-1
 240 580 l 2,28,29
 240 510 240 510 189 490 c 1,30,-1
 189 488 l 1,31,32
 240 472 240 472 240 396 c 2,33,-1
 240 357 l 2,34,35
 240 246 240 246 138 246 c 0,0,1
218 0 m 1,36,-1
 164 0 l 1,37,-1
 436 700 l 1,38,-1
 490 700 l 1,39,-1
 218 0 l 1,36,-1
593 0 m 1,40,-1
 539 0 l 1,41,-1
 539 87 l 1,42,-1
 397 87 l 1,43,-1
 397 136 l 1,44,-1
 534 444 l 1,45,-1
 593 444 l 1,46,-1
 593 135 l 1,47,-1
 628 135 l 1,48,-1
 628 87 l 1,49,-1
 593 87 l 1,50,-1
 593 0 l 1,40,-1
540 349 m 1,51,-1
 447 135 l 1,52,-1
 540 135 l 1,53,-1
 540 349 l 1,51,-1
EndSplineSet
EndChar

StartChar: questiondown
Encoding: 191 191 130
Width: 362
GlyphClass: 2
Flags: W
LayerCount: 2
Fore
SplineSet
238 403 m 1,0,-1
 159 403 l 1,1,-1
 159 503 l 1,2,-1
 238 503 l 1,3,-1
 238 403 l 1,0,-1
25 -38 m 0,4,5
 25 50 25 50 99 145 c 0,6,7
 135 192 135 192 149.5 223.5 c 128,-1,8
 164 255 164 255 164 290 c 2,9,-1
 164 328 l 1,10,-1
 232 328 l 1,11,-1
 232 287 l 2,12,13
 232 214 232 214 169 122 c 0,14,15
 132 70 132 70 117.5 35 c 128,-1,16
 103 0 103 0 103 -43 c 0,17,18
 103 -136 103 -136 183 -136 c 128,-1,19
 263 -136 263 -136 263 -40 c 2,20,-1
 263 24 l 1,21,-1
 337 24 l 1,22,-1
 337 -35 l 2,23,24
 337 -117 337 -117 297.5 -162 c 128,-1,25
 258 -207 258 -207 181 -207 c 128,-1,26
 104 -207 104 -207 64.5 -163 c 128,-1,27
 25 -119 25 -119 25 -38 c 0,4,5
EndSplineSet
EndChar

StartChar: Agrave
Encoding: 192 192 131
Width: 400
GlyphClass: 2
Flags: W
AnchorPoint: "Anchor-11" 0 0 basechar 0
AnchorPoint: "Anchor-10" 0 0 basechar 0
AnchorPoint: "Anchor-9" 200 880 basechar 0
AnchorPoint: "Anchor-8" 383 0 basechar 0
AnchorPoint: "Anchor-7" 200 0 basechar 0
LayerCount: 2
Fore
SplineSet
179 880 m 1,0,-1
 249 752 l 1,1,-1
 188 752 l 1,2,-1
 92 880 l 1,3,-1
 179 880 l 1,0,-1
383 0 m 1,4,-1
 304 0 l 1,5,-1
 278 149 l 1,6,-1
 116 149 l 1,7,-1
 90 0 l 1,8,-1
 17 0 l 1,9,-1
 147 700 l 1,10,-1
 252 700 l 1,11,-1
 383 0 l 1,4,-1
196 611 m 1,12,-1
 128 217 l 1,13,-1
 266 217 l 1,14,-1
 196 611 l 1,12,-1
EndSplineSet
EndChar

StartChar: Aacute
Encoding: 193 193 132
Width: 400
GlyphClass: 2
Flags: W
AnchorPoint: "Anchor-11" 0 0 basechar 0
AnchorPoint: "Anchor-10" 0 0 basechar 0
AnchorPoint: "Anchor-9" 200 880 basechar 0
AnchorPoint: "Anchor-8" 383 0 basechar 0
AnchorPoint: "Anchor-7" 200 0 basechar 0
LayerCount: 2
Fore
SplineSet
222 880 m 1,0,-1
 309 880 l 1,1,-1
 213 752 l 1,2,-1
 151 752 l 1,3,-1
 222 880 l 1,0,-1
383 0 m 1,4,-1
 304 0 l 1,5,-1
 278 149 l 1,6,-1
 116 149 l 1,7,-1
 90 0 l 1,8,-1
 17 0 l 1,9,-1
 147 700 l 1,10,-1
 252 700 l 1,11,-1
 383 0 l 1,4,-1
196 611 m 1,12,-1
 128 217 l 1,13,-1
 266 217 l 1,14,-1
 196 611 l 1,12,-1
EndSplineSet
EndChar

StartChar: Acircumflex
Encoding: 194 194 133
Width: 400
GlyphClass: 2
Flags: W
AnchorPoint: "Anchor-11" 0 0 basechar 0
AnchorPoint: "Anchor-10" 0 0 basechar 0
AnchorPoint: "Anchor-9" 200 880 basechar 0
AnchorPoint: "Anchor-8" 383 0 basechar 0
AnchorPoint: "Anchor-7" 200 0 basechar 0
LayerCount: 2
Fore
SplineSet
256 752 m 1,0,-1
 200 836 l 1,1,-1
 145 752 l 1,2,-1
 83 752 l 1,3,-1
 161 880 l 1,4,-1
 240 880 l 1,5,-1
 317 752 l 1,6,-1
 256 752 l 1,0,-1
383 0 m 1,7,-1
 304 0 l 1,8,-1
 278 149 l 1,9,-1
 116 149 l 1,10,-1
 90 0 l 1,11,-1
 17 0 l 1,12,-1
 147 700 l 1,13,-1
 252 700 l 1,14,-1
 383 0 l 1,7,-1
196 611 m 1,15,-1
 128 217 l 1,16,-1
 266 217 l 1,17,-1
 196 611 l 1,15,-1
EndSplineSet
EndChar

StartChar: Atilde
Encoding: 195 195 134
Width: 400
GlyphClass: 2
Flags: W
AnchorPoint: "Anchor-11" 0 0 basechar 0
AnchorPoint: "Anchor-10" 0 0 basechar 0
AnchorPoint: "Anchor-9" 200 857 basechar 0
AnchorPoint: "Anchor-8" 383 0 basechar 0
AnchorPoint: "Anchor-7" 200 0 basechar 0
LayerCount: 2
Fore
SplineSet
159 806 m 0,0,1
 136 806 136 806 120 766 c 1,2,-1
 79 789 l 1,3,4
 111 863 111 863 159 863 c 0,5,6
 183 863 183 863 212 842 c 0,7,8
 233 827 233 827 244 827 c 0,9,10
 267 827 267 827 283 867 c 1,11,-1
 324 844 l 1,12,13
 292 770 292 770 244 770 c 0,14,15
 218 770 218 770 191 791 c 0,16,17
 170 806 170 806 159 806 c 0,0,1
383 0 m 1,18,-1
 304 0 l 1,19,-1
 278 149 l 1,20,-1
 116 149 l 1,21,-1
 90 0 l 1,22,-1
 17 0 l 1,23,-1
 147 700 l 1,24,-1
 252 700 l 1,25,-1
 383 0 l 1,18,-1
196 611 m 1,26,-1
 128 217 l 1,27,-1
 266 217 l 1,28,-1
 196 611 l 1,26,-1
EndSplineSet
EndChar

StartChar: Adieresis
Encoding: 196 196 135
Width: 400
GlyphClass: 2
Flags: W
AnchorPoint: "Anchor-11" 0 0 basechar 0
AnchorPoint: "Anchor-10" 0 0 basechar 0
AnchorPoint: "Anchor-9" 200 870 basechar 0
AnchorPoint: "Anchor-8" 383 0 basechar 0
AnchorPoint: "Anchor-7" 200 0 basechar 0
LayerCount: 2
Fore
SplineSet
102 870 m 1,0,-1
 172 870 l 1,1,-1
 172 762 l 1,2,-1
 102 762 l 1,3,-1
 102 870 l 1,0,-1
228 870 m 1,4,-1
 298 870 l 1,5,-1
 298 762 l 1,6,-1
 228 762 l 1,7,-1
 228 870 l 1,4,-1
383 0 m 1,8,-1
 304 0 l 1,9,-1
 278 149 l 1,10,-1
 116 149 l 1,11,-1
 90 0 l 1,12,-1
 17 0 l 1,13,-1
 147 700 l 1,14,-1
 252 700 l 1,15,-1
 383 0 l 1,8,-1
196 611 m 1,16,-1
 128 217 l 1,17,-1
 266 217 l 1,18,-1
 196 611 l 1,16,-1
EndSplineSet
EndChar

StartChar: Aring
Encoding: 197 197 136
Width: 400
GlyphClass: 2
Flags: W
AnchorPoint: "Anchor-11" 0 0 basechar 0
AnchorPoint: "Anchor-10" 0 0 basechar 0
AnchorPoint: "Anchor-9" 200 910 basechar 0
AnchorPoint: "Anchor-8" 383 0 basechar 0
AnchorPoint: "Anchor-7" 200 0 basechar 0
LayerCount: 2
Fore
SplineSet
257 775 m 128,-1,1
 234 752 234 752 200 752 c 128,-1,2
 166 752 166 752 143 775 c 128,-1,3
 120 798 120 798 120 831 c 128,-1,4
 120 864 120 864 143 887 c 128,-1,5
 166 910 166 910 200 910 c 128,-1,6
 234 910 234 910 257 887 c 128,-1,7
 280 864 280 864 280 831 c 128,-1,0
 280 798 280 798 257 775 c 128,-1,1
225 858 m 0,8,9
 215 869 215 869 200 869 c 128,-1,10
 185 869 185 869 175 858 c 128,-1,11
 165 847 165 847 165 831 c 128,-1,12
 165 815 165 815 175 804 c 0,13,14
 185 794 185 794 200 794 c 128,-1,15
 215 794 215 794 225 804 c 0,16,17
 236 815 236 815 236 831 c 128,-1,18
 236 847 236 847 225 858 c 0,8,9
383 0 m 1,19,-1
 304 0 l 1,20,-1
 278 149 l 1,21,-1
 116 149 l 1,22,-1
 90 0 l 1,23,-1
 17 0 l 1,24,-1
 147 700 l 1,25,-1
 252 700 l 1,26,-1
 383 0 l 1,19,-1
196 611 m 1,27,-1
 128 217 l 1,28,-1
 266 217 l 1,29,-1
 196 611 l 1,27,-1
EndSplineSet
EndChar

StartChar: AE
Encoding: 198 198 137
Width: 581
GlyphClass: 2
Flags: W
AnchorPoint: "Anchor-11" 0 0 basechar 0
AnchorPoint: "Anchor-10" 0 0 basechar 0
AnchorPoint: "Anchor-9" 295 690 basechar 0
AnchorPoint: "Anchor-8" 0 0 basechar 0
AnchorPoint: "Anchor-7" 280 0 basechar 0
LayerCount: 2
Fore
SplineSet
560 700 m 1,0,-1
 560 629 l 1,1,-1
 352 629 l 1,2,-1
 352 401 l 1,3,-1
 521 401 l 1,4,-1
 521 330 l 1,5,-1
 352 330 l 1,6,-1
 352 71 l 1,7,-1
 560 71 l 1,8,-1
 560 0 l 1,9,-1
 274 0 l 1,10,-1
 274 149 l 1,11,-1
 135 149 l 1,12,-1
 90 0 l 1,13,-1
 15 0 l 1,14,-1
 232 700 l 1,15,-1
 560 700 l 1,0,-1
274 605 m 1,16,-1
 156 217 l 1,17,-1
 274 217 l 1,18,-1
 274 605 l 1,16,-1
EndSplineSet
EndChar

StartChar: Ccedilla
Encoding: 199 199 138
Width: 382
GlyphClass: 2
Flags: W
AnchorPoint: "Anchor-11" 0 0 basechar 0
AnchorPoint: "Anchor-10" 0 0 basechar 0
AnchorPoint: "Anchor-9" 195 690 basechar 0
AnchorPoint: "Anchor-8" 0 0 basechar 0
AnchorPoint: "Anchor-7" 198 -155 basechar 0
LayerCount: 2
Fore
SplineSet
352 543 m 2,0,-1
 352 471 l 1,1,-1
 278 471 l 1,2,-1
 278 548 l 2,3,4
 278 592 278 592 256.5 615.5 c 128,-1,5
 235 639 235 639 198 639 c 128,-1,6
 161 639 161 639 139.5 615.5 c 128,-1,7
 118 592 118 592 118 548 c 2,8,-1
 118 152 l 2,9,10
 118 108 118 108 139.5 84.5 c 128,-1,11
 161 61 161 61 198 61 c 128,-1,12
 235 61 235 61 256.5 84.5 c 128,-1,13
 278 108 278 108 278 152 c 2,14,-1
 278 250 l 1,15,-1
 352 250 l 1,16,-1
 352 157 l 2,17,18
 352 84 352 84 317.5 41 c 128,-1,19
 283 -2 283 -2 218 -9 c 1,20,-1
 218 -44 l 1,21,22
 285 -44 285 -44 285 -94 c 0,23,24
 285 -129 285 -129 263 -142 c 128,-1,25
 241 -155 241 -155 193 -155 c 0,26,27
 104 -155 104 -155 104 -96 c 2,28,-1
 104 -88 l 1,29,-1
 160 -88 l 1,30,-1
 160 -96 l 2,31,32
 160 -120 160 -120 192 -120 c 0,33,34
 228 -120 228 -120 228 -93 c 128,-1,35
 228 -66 228 -66 189 -66 c 2,36,-1
 179 -66 l 1,37,-1
 179 -9 l 1,38,39
 113 -5 113 -5 76.5 39 c 128,-1,40
 40 83 40 83 40 157 c 2,41,-1
 40 543 l 2,42,43
 40 622 40 622 80.5 666 c 128,-1,44
 121 710 121 710 196 710 c 128,-1,45
 271 710 271 710 311.5 666 c 128,-1,46
 352 622 352 622 352 543 c 2,0,-1
EndSplineSet
EndChar

StartChar: Egrave
Encoding: 200 200 139
Width: 356
GlyphClass: 2
Flags: W
AnchorPoint: "Anchor-11" 0 0 basechar 0
AnchorPoint: "Anchor-10" 0 0 basechar 0
AnchorPoint: "Anchor-9" 191 880 basechar 0
AnchorPoint: "Anchor-8" 335 0 basechar 0
AnchorPoint: "Anchor-7" 191 0 basechar 0
LayerCount: 2
Fore
SplineSet
240 752 m 1,0,-1
 179 752 l 1,1,-1
 83 880 l 1,2,-1
 170 880 l 1,3,-1
 240 752 l 1,0,-1
335 0 m 1,4,-1
 48 0 l 1,5,-1
 48 700 l 1,6,-1
 335 700 l 1,7,-1
 335 629 l 1,8,-1
 126 629 l 1,9,-1
 126 401 l 1,10,-1
 296 401 l 1,11,-1
 296 330 l 1,12,-1
 126 330 l 1,13,-1
 126 71 l 1,14,-1
 335 71 l 1,15,-1
 335 0 l 1,4,-1
EndSplineSet
EndChar

StartChar: Eacute
Encoding: 201 201 140
Width: 356
GlyphClass: 2
Flags: W
AnchorPoint: "Anchor-11" 0 0 basechar 0
AnchorPoint: "Anchor-10" 0 0 basechar 0
AnchorPoint: "Anchor-9" 191 880 basechar 0
AnchorPoint: "Anchor-8" 335 0 basechar 0
AnchorPoint: "Anchor-7" 191 0 basechar 0
LayerCount: 2
Fore
SplineSet
204 752 m 1,0,-1
 142 752 l 1,1,-1
 213 880 l 1,2,-1
 300 880 l 1,3,-1
 204 752 l 1,0,-1
335 0 m 1,4,-1
 48 0 l 1,5,-1
 48 700 l 1,6,-1
 335 700 l 1,7,-1
 335 629 l 1,8,-1
 126 629 l 1,9,-1
 126 401 l 1,10,-1
 296 401 l 1,11,-1
 296 330 l 1,12,-1
 126 330 l 1,13,-1
 126 71 l 1,14,-1
 335 71 l 1,15,-1
 335 0 l 1,4,-1
EndSplineSet
EndChar

StartChar: Ecircumflex
Encoding: 202 202 141
Width: 356
GlyphClass: 2
Flags: W
AnchorPoint: "Anchor-11" 0 0 basechar 0
AnchorPoint: "Anchor-10" 0 0 basechar 0
AnchorPoint: "Anchor-9" 191 880 basechar 0
AnchorPoint: "Anchor-8" 335 0 basechar 0
AnchorPoint: "Anchor-7" 191 0 basechar 0
LayerCount: 2
Fore
SplineSet
136 752 m 1,0,-1
 74 752 l 1,1,-1
 152 880 l 1,2,-1
 231 880 l 1,3,-1
 308 752 l 1,4,-1
 247 752 l 1,5,-1
 191 836 l 1,6,-1
 136 752 l 1,0,-1
335 0 m 1,7,-1
 48 0 l 1,8,-1
 48 700 l 1,9,-1
 335 700 l 1,10,-1
 335 629 l 1,11,-1
 126 629 l 1,12,-1
 126 401 l 1,13,-1
 296 401 l 1,14,-1
 296 330 l 1,15,-1
 126 330 l 1,16,-1
 126 71 l 1,17,-1
 335 71 l 1,18,-1
 335 0 l 1,7,-1
EndSplineSet
EndChar

StartChar: Edieresis
Encoding: 203 203 142
Width: 356
GlyphClass: 2
Flags: W
AnchorPoint: "Anchor-11" 0 0 basechar 0
AnchorPoint: "Anchor-10" 0 0 basechar 0
AnchorPoint: "Anchor-9" 191 870 basechar 0
AnchorPoint: "Anchor-8" 335 0 basechar 0
AnchorPoint: "Anchor-7" 191 0 basechar 0
LayerCount: 2
Fore
SplineSet
163 762 m 1,0,-1
 93 762 l 1,1,-1
 93 870 l 1,2,-1
 163 870 l 1,3,-1
 163 762 l 1,0,-1
289 762 m 1,4,-1
 219 762 l 1,5,-1
 219 870 l 1,6,-1
 289 870 l 1,7,-1
 289 762 l 1,4,-1
335 0 m 1,8,-1
 48 0 l 1,9,-1
 48 700 l 1,10,-1
 335 700 l 1,11,-1
 335 629 l 1,12,-1
 126 629 l 1,13,-1
 126 401 l 1,14,-1
 296 401 l 1,15,-1
 296 330 l 1,16,-1
 126 330 l 1,17,-1
 126 71 l 1,18,-1
 335 71 l 1,19,-1
 335 0 l 1,8,-1
EndSplineSet
EndChar

StartChar: Igrave
Encoding: 204 204 143
Width: 173
GlyphClass: 2
Flags: W
AnchorPoint: "Anchor-11" 0 0 basechar 0
AnchorPoint: "Anchor-10" 0 0 basechar 0
AnchorPoint: "Anchor-9" 87 880 basechar 0
AnchorPoint: "Anchor-8" 155 0 basechar 0
AnchorPoint: "Anchor-7" 87 0 basechar 0
LayerCount: 2
Fore
SplineSet
136 752 m 1,0,-1
 75 752 l 1,1,-1
 -22 880 l 1,2,-1
 66 880 l 1,3,-1
 136 752 l 1,0,-1
126 0 m 1,4,-1
 48 0 l 1,5,-1
 48 700 l 1,6,-1
 126 700 l 1,7,-1
 126 0 l 1,4,-1
EndSplineSet
EndChar

StartChar: Iacute
Encoding: 205 205 144
Width: 173
GlyphClass: 2
Flags: W
AnchorPoint: "Anchor-11" 0 0 basechar 0
AnchorPoint: "Anchor-10" 0 0 basechar 0
AnchorPoint: "Anchor-9" 87 880 basechar 0
AnchorPoint: "Anchor-8" 155 0 basechar 0
AnchorPoint: "Anchor-7" 87 0 basechar 0
LayerCount: 2
Fore
SplineSet
100 752 m 1,0,-1
 38 752 l 1,1,-1
 109 880 l 1,2,-1
 196 880 l 1,3,-1
 100 752 l 1,0,-1
126 0 m 1,4,-1
 48 0 l 1,5,-1
 48 700 l 1,6,-1
 126 700 l 1,7,-1
 126 0 l 1,4,-1
EndSplineSet
EndChar

StartChar: Icircumflex
Encoding: 206 206 145
Width: 173
GlyphClass: 2
Flags: W
AnchorPoint: "Anchor-11" 0 0 basechar 0
AnchorPoint: "Anchor-10" 0 0 basechar 0
AnchorPoint: "Anchor-9" 87 880 basechar 0
AnchorPoint: "Anchor-8" 155 0 basechar 0
AnchorPoint: "Anchor-7" 87 0 basechar 0
LayerCount: 2
Fore
SplineSet
32 752 m 1,0,-1
 -30 752 l 1,1,-1
 48 880 l 1,2,-1
 127 880 l 1,3,-1
 204 752 l 1,4,-1
 143 752 l 1,5,-1
 87 836 l 1,6,-1
 32 752 l 1,0,-1
126 0 m 1,7,-1
 48 0 l 1,8,-1
 48 700 l 1,9,-1
 126 700 l 1,10,-1
 126 0 l 1,7,-1
EndSplineSet
EndChar

StartChar: Idieresis
Encoding: 207 207 146
Width: 173
GlyphClass: 2
Flags: W
AnchorPoint: "Anchor-11" 0 0 basechar 0
AnchorPoint: "Anchor-10" 0 0 basechar 0
AnchorPoint: "Anchor-9" 87 870 basechar 0
AnchorPoint: "Anchor-8" 155 0 basechar 0
AnchorPoint: "Anchor-7" 87 0 basechar 0
LayerCount: 2
Fore
SplineSet
59 762 m 1,0,-1
 -11 762 l 1,1,-1
 -11 870 l 1,2,-1
 59 870 l 1,3,-1
 59 762 l 1,0,-1
185 762 m 1,4,-1
 115 762 l 1,5,-1
 115 870 l 1,6,-1
 185 870 l 1,7,-1
 185 762 l 1,4,-1
126 0 m 1,8,-1
 48 0 l 1,9,-1
 48 700 l 1,10,-1
 126 700 l 1,11,-1
 126 0 l 1,8,-1
EndSplineSet
EndChar

StartChar: Eth
Encoding: 208 208 147
Width: 421
GlyphClass: 2
Flags: W
AnchorPoint: "Anchor-11" 0 0 basechar 0
AnchorPoint: "Anchor-10" 118 365 basechar 0
AnchorPoint: "Anchor-9" 209 690 basechar 0
AnchorPoint: "Anchor-8" 0 0 basechar 0
AnchorPoint: "Anchor-7" 209 0 basechar 0
LayerCount: 2
Fore
SplineSet
62 700 m 1,0,-1
 222 700 l 2,1,2
 381 700 381 700 381 530 c 2,3,-1
 381 170 l 2,4,5
 381 0 381 0 222 0 c 2,6,-1
 62 0 l 1,7,-1
 62 331 l 1,8,-1
 17 331 l 1,9,-1
 17 399 l 1,10,-1
 62 399 l 1,11,-1
 62 700 l 1,0,-1
303 167 m 2,12,-1
 303 534 l 2,13,14
 303 584 303 584 283.5 606.5 c 128,-1,15
 264 629 264 629 221 629 c 2,16,-1
 140 629 l 1,17,-1
 140 399 l 1,18,-1
 218 399 l 1,19,-1
 218 331 l 1,20,-1
 140 331 l 1,21,-1
 140 71 l 1,22,-1
 221 71 l 2,23,24
 263 71 263 71 283 93.5 c 128,-1,25
 303 116 303 116 303 167 c 2,12,-1
EndSplineSet
EndChar

StartChar: Ntilde
Encoding: 209 209 148
Width: 425
GlyphClass: 2
Flags: W
AnchorPoint: "Anchor-11" 0 0 basechar 0
AnchorPoint: "Anchor-10" 0 0 basechar 0
AnchorPoint: "Anchor-9" 213 857 basechar 0
AnchorPoint: "Anchor-8" 0 0 basechar 0
AnchorPoint: "Anchor-7" 213 0 basechar 0
LayerCount: 2
Fore
SplineSet
133 766 m 1,0,-1
 92 789 l 1,1,2
 124 863 124 863 172 863 c 0,3,4
 196 863 196 863 225 842 c 0,5,6
 246 827 246 827 257 827 c 0,7,8
 280 827 280 827 296 867 c 1,9,-1
 337 844 l 1,10,11
 305 770 305 770 257 770 c 0,12,13
 231 770 231 770 204 791 c 0,14,15
 183 806 183 806 172 806 c 0,16,17
 149 806 149 806 133 766 c 1,0,-1
119 0 m 1,18,-1
 48 0 l 1,19,-1
 48 700 l 1,20,-1
 148 700 l 1,21,-1
 306 200 l 1,22,-1
 306 700 l 1,23,-1
 377 700 l 1,24,-1
 377 0 l 1,25,-1
 296 0 l 1,26,-1
 119 569 l 1,27,-1
 119 0 l 1,18,-1
EndSplineSet
EndChar

StartChar: Ograve
Encoding: 210 210 149
Width: 400
GlyphClass: 2
Flags: W
AnchorPoint: "Anchor-11" 0 0 basechar 0
AnchorPoint: "Anchor-10" 200 350 basechar 0
AnchorPoint: "Anchor-9" 200 880 basechar 0
AnchorPoint: "Anchor-8" 363 10 basechar 0
AnchorPoint: "Anchor-7" 200 0 basechar 0
LayerCount: 2
Fore
SplineSet
249 752 m 1,0,-1
 188 752 l 1,1,-1
 92 880 l 1,2,-1
 179 880 l 1,3,-1
 249 752 l 1,0,-1
200 -10 m 0,4,5
 123 -10 123 -10 81.5 35 c 128,-1,6
 40 80 40 80 40 163 c 2,7,-1
 40 538 l 2,8,9
 40 621 40 621 81.5 665.5 c 128,-1,10
 123 710 123 710 200 710 c 0,11,12
 278 710 278 710 319.5 665.5 c 128,-1,13
 361 621 361 621 361 538 c 2,14,-1
 361 163 l 2,15,16
 361 80 361 80 319.5 35 c 128,-1,17
 278 -10 278 -10 200 -10 c 0,4,5
200 61 m 0,18,19
 283 61 283 61 283 158 c 2,20,-1
 283 543 l 2,21,22
 283 639 283 639 200 639 c 0,23,24
 118 639 118 639 118 543 c 2,25,-1
 118 158 l 2,26,27
 118 61 118 61 200 61 c 0,18,19
EndSplineSet
EndChar

StartChar: Oacute
Encoding: 211 211 150
Width: 400
GlyphClass: 2
Flags: W
AnchorPoint: "Anchor-11" 0 0 basechar 0
AnchorPoint: "Anchor-10" 200 350 basechar 0
AnchorPoint: "Anchor-9" 200 880 basechar 0
AnchorPoint: "Anchor-8" 363 10 basechar 0
AnchorPoint: "Anchor-7" 200 0 basechar 0
LayerCount: 2
Fore
SplineSet
213 752 m 1,0,-1
 151 752 l 1,1,-1
 222 880 l 1,2,-1
 309 880 l 1,3,-1
 213 752 l 1,0,-1
200 -10 m 0,4,5
 123 -10 123 -10 81.5 35 c 128,-1,6
 40 80 40 80 40 163 c 2,7,-1
 40 538 l 2,8,9
 40 621 40 621 81.5 665.5 c 128,-1,10
 123 710 123 710 200 710 c 0,11,12
 278 710 278 710 319.5 665.5 c 128,-1,13
 361 621 361 621 361 538 c 2,14,-1
 361 163 l 2,15,16
 361 80 361 80 319.5 35 c 128,-1,17
 278 -10 278 -10 200 -10 c 0,4,5
200 61 m 0,18,19
 283 61 283 61 283 158 c 2,20,-1
 283 543 l 2,21,22
 283 639 283 639 200 639 c 0,23,24
 118 639 118 639 118 543 c 2,25,-1
 118 158 l 2,26,27
 118 61 118 61 200 61 c 0,18,19
EndSplineSet
EndChar

StartChar: Ocircumflex
Encoding: 212 212 151
Width: 400
GlyphClass: 2
Flags: W
AnchorPoint: "Anchor-11" 0 0 basechar 0
AnchorPoint: "Anchor-10" 200 350 basechar 0
AnchorPoint: "Anchor-9" 200 880 basechar 0
AnchorPoint: "Anchor-8" 363 10 basechar 0
AnchorPoint: "Anchor-7" 200 0 basechar 0
LayerCount: 2
Fore
SplineSet
145 752 m 1,0,-1
 83 752 l 1,1,-1
 161 880 l 1,2,-1
 240 880 l 1,3,-1
 317 752 l 1,4,-1
 256 752 l 1,5,-1
 200 836 l 1,6,-1
 145 752 l 1,0,-1
200 -10 m 0,7,8
 123 -10 123 -10 81.5 35 c 128,-1,9
 40 80 40 80 40 163 c 2,10,-1
 40 538 l 2,11,12
 40 621 40 621 81.5 665.5 c 128,-1,13
 123 710 123 710 200 710 c 0,14,15
 278 710 278 710 319.5 665.5 c 128,-1,16
 361 621 361 621 361 538 c 2,17,-1
 361 163 l 2,18,19
 361 80 361 80 319.5 35 c 128,-1,20
 278 -10 278 -10 200 -10 c 0,7,8
200 61 m 0,21,22
 283 61 283 61 283 158 c 2,23,-1
 283 543 l 2,24,25
 283 639 283 639 200 639 c 0,26,27
 118 639 118 639 118 543 c 2,28,-1
 118 158 l 2,29,30
 118 61 118 61 200 61 c 0,21,22
EndSplineSet
EndChar

StartChar: Otilde
Encoding: 213 213 152
Width: 400
GlyphClass: 2
Flags: W
AnchorPoint: "Anchor-11" 0 0 basechar 0
AnchorPoint: "Anchor-10" 200 350 basechar 0
AnchorPoint: "Anchor-9" 200 857 basechar 0
AnchorPoint: "Anchor-8" 363 10 basechar 0
AnchorPoint: "Anchor-7" 200 0 basechar 0
LayerCount: 2
Fore
SplineSet
120 766 m 1,0,-1
 79 789 l 1,1,2
 111 863 111 863 159 863 c 0,3,4
 183 863 183 863 212 842 c 0,5,6
 233 827 233 827 244 827 c 0,7,8
 267 827 267 827 283 867 c 1,9,-1
 324 844 l 1,10,11
 292 770 292 770 244 770 c 0,12,13
 218 770 218 770 191 791 c 0,14,15
 170 806 170 806 159 806 c 0,16,17
 136 806 136 806 120 766 c 1,0,-1
200 -10 m 0,18,19
 123 -10 123 -10 81.5 35 c 128,-1,20
 40 80 40 80 40 163 c 2,21,-1
 40 538 l 2,22,23
 40 621 40 621 81.5 665.5 c 128,-1,24
 123 710 123 710 200 710 c 0,25,26
 278 710 278 710 319.5 665.5 c 128,-1,27
 361 621 361 621 361 538 c 2,28,-1
 361 163 l 2,29,30
 361 80 361 80 319.5 35 c 128,-1,31
 278 -10 278 -10 200 -10 c 0,18,19
200 61 m 0,32,33
 283 61 283 61 283 158 c 2,34,-1
 283 543 l 2,35,36
 283 639 283 639 200 639 c 0,37,38
 118 639 118 639 118 543 c 2,39,-1
 118 158 l 2,40,41
 118 61 118 61 200 61 c 0,32,33
EndSplineSet
EndChar

StartChar: Odieresis
Encoding: 214 214 153
Width: 400
GlyphClass: 2
Flags: W
AnchorPoint: "Anchor-11" 0 0 basechar 0
AnchorPoint: "Anchor-10" 200 350 basechar 0
AnchorPoint: "Anchor-9" 200 870 basechar 0
AnchorPoint: "Anchor-8" 363 10 basechar 0
AnchorPoint: "Anchor-7" 200 0 basechar 0
LayerCount: 2
Fore
SplineSet
172 762 m 1,0,-1
 102 762 l 1,1,-1
 102 870 l 1,2,-1
 172 870 l 1,3,-1
 172 762 l 1,0,-1
298 762 m 1,4,-1
 228 762 l 1,5,-1
 228 870 l 1,6,-1
 298 870 l 1,7,-1
 298 762 l 1,4,-1
200 -10 m 0,8,9
 123 -10 123 -10 81.5 35 c 128,-1,10
 40 80 40 80 40 163 c 2,11,-1
 40 538 l 2,12,13
 40 621 40 621 81.5 665.5 c 128,-1,14
 123 710 123 710 200 710 c 0,15,16
 278 710 278 710 319.5 665.5 c 128,-1,17
 361 621 361 621 361 538 c 2,18,-1
 361 163 l 2,19,20
 361 80 361 80 319.5 35 c 128,-1,21
 278 -10 278 -10 200 -10 c 0,8,9
200 61 m 0,22,23
 283 61 283 61 283 158 c 2,24,-1
 283 543 l 2,25,26
 283 639 283 639 200 639 c 0,27,28
 118 639 118 639 118 543 c 2,29,-1
 118 158 l 2,30,31
 118 61 118 61 200 61 c 0,22,23
EndSplineSet
EndChar

StartChar: multiply
Encoding: 215 215 154
Width: 400
GlyphClass: 2
Flags: W
LayerCount: 2
Fore
SplineSet
201 260 m 1,0,-1
 87 143 l 1,1,-1
 46 184 l 1,2,-1
 160 300 l 1,3,-1
 47 416 l 1,4,-1
 88 457 l 1,5,-1
 201 341 l 1,6,-1
 315 458 l 1,7,-1
 356 417 l 1,8,-1
 242 300 l 1,9,-1
 356 184 l 1,10,-1
 315 143 l 1,11,-1
 201 260 l 1,0,-1
EndSplineSet
EndChar

StartChar: Oslash
Encoding: 216 216 155
Width: 400
GlyphClass: 2
Flags: W
AnchorPoint: "Anchor-11" 0 0 basechar 0
AnchorPoint: "Anchor-10" 200 350 basechar 0
AnchorPoint: "Anchor-9" 200 690 basechar 0
AnchorPoint: "Anchor-8" 363 10 basechar 0
AnchorPoint: "Anchor-7" 200 0 basechar 0
LayerCount: 2
Fore
SplineSet
323 726 m 1,0,-1
 367 707 l 1,1,-1
 340 638 l 1,2,3
 361 598 361 598 361 538 c 2,4,-1
 361 163 l 2,5,6
 361 80 361 80 319.5 35 c 128,-1,7
 278 -10 278 -10 200 -10 c 0,8,9
 137 -10 137 -10 96 22 c 1,10,-1
 77 -26 l 1,11,-1
 33 -7 l 1,12,-1
 61 64 l 1,13,14
 40 103 40 103 40 163 c 2,15,-1
 40 538 l 2,16,17
 40 621 40 621 81.5 665.5 c 128,-1,18
 123 710 123 710 200 710 c 0,19,20
 264 710 264 710 305 679 c 1,21,-1
 323 726 l 1,0,-1
118 543 m 2,22,-1
 118 208 l 1,23,-1
 273 599 l 1,24,25
 254 639 254 639 200 639 c 0,26,27
 118 639 118 639 118 543 c 2,22,-1
283 158 m 2,28,-1
 283 495 l 1,29,-1
 128 103 l 1,30,31
 148 61 148 61 200 61 c 0,32,33
 283 61 283 61 283 158 c 2,28,-1
EndSplineSet
EndChar

StartChar: Ugrave
Encoding: 217 217 156
Width: 403
GlyphClass: 2
Flags: W
AnchorPoint: "Anchor-11" 0 0 basechar 0
AnchorPoint: "Anchor-10" 0 0 basechar 0
AnchorPoint: "Anchor-9" 202 880 basechar 0
AnchorPoint: "Anchor-8" 298 0 basechar 0
AnchorPoint: "Anchor-7" 202 0 basechar 0
LayerCount: 2
Fore
SplineSet
251 752 m 1,0,-1
 190 752 l 1,1,-1
 94 880 l 1,2,-1
 181 880 l 1,3,-1
 251 752 l 1,0,-1
202 -10 m 0,4,5
 124 -10 124 -10 84 34.5 c 128,-1,6
 44 79 44 79 44 163 c 2,7,-1
 44 700 l 1,8,-1
 122 700 l 1,9,-1
 122 157 l 2,10,11
 122 61 122 61 203 61 c 128,-1,12
 284 61 284 61 284 157 c 2,13,-1
 284 700 l 1,14,-1
 360 700 l 1,15,-1
 360 163 l 2,16,17
 360 79 360 79 319.5 34.5 c 128,-1,18
 279 -10 279 -10 202 -10 c 0,4,5
EndSplineSet
EndChar

StartChar: Uacute
Encoding: 218 218 157
Width: 403
GlyphClass: 2
Flags: W
AnchorPoint: "Anchor-11" 0 0 basechar 0
AnchorPoint: "Anchor-10" 0 0 basechar 0
AnchorPoint: "Anchor-9" 202 880 basechar 0
AnchorPoint: "Anchor-8" 298 0 basechar 0
AnchorPoint: "Anchor-7" 202 0 basechar 0
LayerCount: 2
Fore
SplineSet
215 752 m 1,0,-1
 153 752 l 1,1,-1
 224 880 l 1,2,-1
 311 880 l 1,3,-1
 215 752 l 1,0,-1
202 -10 m 0,4,5
 124 -10 124 -10 84 34.5 c 128,-1,6
 44 79 44 79 44 163 c 2,7,-1
 44 700 l 1,8,-1
 122 700 l 1,9,-1
 122 157 l 2,10,11
 122 61 122 61 203 61 c 128,-1,12
 284 61 284 61 284 157 c 2,13,-1
 284 700 l 1,14,-1
 360 700 l 1,15,-1
 360 163 l 2,16,17
 360 79 360 79 319.5 34.5 c 128,-1,18
 279 -10 279 -10 202 -10 c 0,4,5
EndSplineSet
EndChar

StartChar: Ucircumflex
Encoding: 219 219 158
Width: 403
GlyphClass: 2
Flags: W
AnchorPoint: "Anchor-11" 0 0 basechar 0
AnchorPoint: "Anchor-10" 0 0 basechar 0
AnchorPoint: "Anchor-9" 202 880 basechar 0
AnchorPoint: "Anchor-8" 298 0 basechar 0
AnchorPoint: "Anchor-7" 202 0 basechar 0
LayerCount: 2
Fore
SplineSet
147 752 m 1,0,-1
 85 752 l 1,1,-1
 163 880 l 1,2,-1
 242 880 l 1,3,-1
 319 752 l 1,4,-1
 258 752 l 1,5,-1
 202 836 l 1,6,-1
 147 752 l 1,0,-1
202 -10 m 0,7,8
 124 -10 124 -10 84 34.5 c 128,-1,9
 44 79 44 79 44 163 c 2,10,-1
 44 700 l 1,11,-1
 122 700 l 1,12,-1
 122 157 l 2,13,14
 122 61 122 61 203 61 c 128,-1,15
 284 61 284 61 284 157 c 2,16,-1
 284 700 l 1,17,-1
 360 700 l 1,18,-1
 360 163 l 2,19,20
 360 79 360 79 319.5 34.5 c 128,-1,21
 279 -10 279 -10 202 -10 c 0,7,8
EndSplineSet
EndChar

StartChar: Udieresis
Encoding: 220 220 159
Width: 403
GlyphClass: 2
Flags: W
AnchorPoint: "Anchor-11" 0 0 basechar 0
AnchorPoint: "Anchor-10" 0 0 basechar 0
AnchorPoint: "Anchor-9" 202 870 basechar 0
AnchorPoint: "Anchor-8" 298 0 basechar 0
AnchorPoint: "Anchor-7" 202 0 basechar 0
LayerCount: 2
Fore
SplineSet
174 762 m 1,0,-1
 104 762 l 1,1,-1
 104 870 l 1,2,-1
 174 870 l 1,3,-1
 174 762 l 1,0,-1
300 762 m 1,4,-1
 230 762 l 1,5,-1
 230 870 l 1,6,-1
 300 870 l 1,7,-1
 300 762 l 1,4,-1
202 -10 m 0,8,9
 124 -10 124 -10 84 34.5 c 128,-1,10
 44 79 44 79 44 163 c 2,11,-1
 44 700 l 1,12,-1
 122 700 l 1,13,-1
 122 157 l 2,14,15
 122 61 122 61 203 61 c 128,-1,16
 284 61 284 61 284 157 c 2,17,-1
 284 700 l 1,18,-1
 360 700 l 1,19,-1
 360 163 l 2,20,21
 360 79 360 79 319.5 34.5 c 128,-1,22
 279 -10 279 -10 202 -10 c 0,8,9
EndSplineSet
EndChar

StartChar: Yacute
Encoding: 221 221 160
Width: 389
GlyphClass: 2
Flags: W
AnchorPoint: "Anchor-11" 0 0 basechar 0
AnchorPoint: "Anchor-10" 0 0 basechar 0
AnchorPoint: "Anchor-9" 195 880 basechar 0
AnchorPoint: "Anchor-8" 0 0 basechar 0
AnchorPoint: "Anchor-7" 195 0 basechar 0
LayerCount: 2
Fore
SplineSet
208 752 m 1,0,-1
 146 752 l 1,1,-1
 217 880 l 1,2,-1
 304 880 l 1,3,-1
 208 752 l 1,0,-1
234 0 m 1,4,-1
 156 0 l 1,5,-1
 156 307 l 1,6,-1
 15 700 l 1,7,-1
 98 700 l 1,8,-1
 198 408 l 1,9,-1
 298 700 l 1,10,-1
 375 700 l 1,11,-1
 234 307 l 1,12,-1
 234 0 l 1,4,-1
EndSplineSet
EndChar

StartChar: Thorn
Encoding: 222 222 161
Width: 383
GlyphClass: 2
Flags: W
LayerCount: 2
Fore
SplineSet
126 0 m 1,0,-1
 48 0 l 1,1,-1
 48 700 l 1,2,-1
 126 700 l 1,3,-1
 126 595 l 1,4,-1
 201 595 l 2,5,6
 359 595 359 595 359 425 c 2,7,-1
 359 365 l 2,8,9
 359 195 359 195 201 195 c 2,10,-1
 126 195 l 1,11,-1
 126 0 l 1,0,-1
126 523 m 1,12,-1
 126 266 l 1,13,-1
 201 266 l 2,14,15
 243 266 243 266 262 287.5 c 128,-1,16
 281 309 281 309 281 360 c 2,17,-1
 281 429 l 2,18,19
 281 480 281 480 262 501.5 c 128,-1,20
 243 523 243 523 201 523 c 2,21,-1
 126 523 l 1,12,-1
EndSplineSet
EndChar

StartChar: germandbls
Encoding: 223 223 162
Width: 393
GlyphClass: 2
Flags: W
LayerCount: 2
Fore
SplineSet
238 -10 m 0,0,1
 203 -10 203 -10 180 0 c 1,2,-1
 180 66 l 1,3,4
 198 57 198 57 225 57 c 0,5,6
 298 57 298 57 298 136 c 0,7,8
 298 161 298 161 287 178 c 128,-1,9
 276 195 276 195 250 217 c 0,10,11
 227 237 227 237 217 248 c 0,12,13
 182 285 182 285 182 355 c 0,14,15
 182 405 182 405 216 454 c 0,16,17
 252 510 252 510 252 567 c 0,18,19
 252 644 252 644 189 644 c 0,20,21
 123 644 123 644 123 561 c 2,22,-1
 123 0 l 1,23,-1
 48 0 l 1,24,-1
 48 556 l 2,25,26
 48 710 48 710 191 710 c 0,27,28
 254 710 254 710 291 673 c 128,-1,29
 328 636 328 636 328 566 c 0,30,31
 328 501 328 501 289 441 c 0,32,33
 258 395 258 395 258 354 c 0,34,35
 258 333 258 333 266 314 c 0,36,37
 278 288 278 288 310 261 c 0,38,39
 335 240 335 240 341 232 c 0,40,41
 373 198 373 198 373 136 c 0,42,43
 373 69 373 69 336.5 29.5 c 128,-1,44
 300 -10 300 -10 238 -10 c 0,0,1
EndSplineSet
EndChar

StartChar: agrave
Encoding: 224 224 163
Width: 367
GlyphClass: 2
Flags: W
AnchorPoint: "Anchor-11" 0 0 basechar 0
AnchorPoint: "Anchor-10" 0 0 basechar 0
AnchorPoint: "Anchor-9" 179 693 basechar 0
AnchorPoint: "Anchor-8" 335 0 basechar 0
AnchorPoint: "Anchor-7" 0 0 basechar 0
LayerCount: 2
Fore
SplineSet
158 693 m 1,0,-1
 228 565 l 1,1,-1
 167 565 l 1,2,-1
 71 693 l 1,3,-1
 158 693 l 1,0,-1
332 0 m 1,4,-1
 263 0 l 1,5,6
 258 19 258 19 255 68 c 1,7,8
 224 -10 224 -10 138 -10 c 0,9,10
 86 -10 86 -10 56 23.5 c 128,-1,11
 26 57 26 57 26 114 c 0,12,13
 26 172 26 172 54.5 209.5 c 128,-1,14
 83 247 83 247 151 279 c 0,15,16
 213 307 213 307 230 321 c 0,17,18
 246 334 246 334 246 361 c 2,19,-1
 246 373 l 2,20,21
 246 448 246 448 181 448 c 0,22,23
 148 448 148 448 129.5 428 c 128,-1,24
 111 408 111 408 111 371 c 2,25,-1
 111 356 l 1,26,-1
 40 356 l 1,27,-1
 40 367 l 2,28,29
 40 437 40 437 77 475 c 128,-1,30
 114 513 114 513 182 513 c 0,31,32
 321 513 321 513 321 361 c 2,33,-1
 321 137 l 2,34,35
 321 49 321 49 332 0 c 1,4,-1
164 56 m 0,36,37
 202 56 202 56 224 86 c 128,-1,38
 246 116 246 116 246 170 c 2,39,-1
 246 271 l 1,40,41
 235 256 235 256 173 224 c 0,42,43
 102 188 102 188 102 125 c 0,44,45
 102 56 102 56 164 56 c 0,36,37
EndSplineSet
EndChar

StartChar: aacute
Encoding: 225 225 164
Width: 367
GlyphClass: 2
Flags: W
AnchorPoint: "Anchor-11" 0 0 basechar 0
AnchorPoint: "Anchor-10" 0 0 basechar 0
AnchorPoint: "Anchor-9" 179 693 basechar 0
AnchorPoint: "Anchor-8" 335 0 basechar 0
AnchorPoint: "Anchor-7" 0 0 basechar 0
LayerCount: 2
Fore
SplineSet
201 693 m 1,0,-1
 288 693 l 1,1,-1
 192 565 l 1,2,-1
 130 565 l 1,3,-1
 201 693 l 1,0,-1
332 0 m 1,4,-1
 263 0 l 1,5,6
 258 19 258 19 255 68 c 1,7,8
 224 -10 224 -10 138 -10 c 0,9,10
 86 -10 86 -10 56 23.5 c 128,-1,11
 26 57 26 57 26 114 c 0,12,13
 26 172 26 172 54.5 209.5 c 128,-1,14
 83 247 83 247 151 279 c 0,15,16
 213 307 213 307 230 321 c 0,17,18
 246 334 246 334 246 361 c 2,19,-1
 246 373 l 2,20,21
 246 448 246 448 181 448 c 0,22,23
 148 448 148 448 129.5 428 c 128,-1,24
 111 408 111 408 111 371 c 2,25,-1
 111 356 l 1,26,-1
 40 356 l 1,27,-1
 40 367 l 2,28,29
 40 437 40 437 77 475 c 128,-1,30
 114 513 114 513 182 513 c 0,31,32
 321 513 321 513 321 361 c 2,33,-1
 321 137 l 2,34,35
 321 49 321 49 332 0 c 1,4,-1
164 56 m 0,36,37
 202 56 202 56 224 86 c 128,-1,38
 246 116 246 116 246 170 c 2,39,-1
 246 271 l 1,40,41
 235 256 235 256 173 224 c 0,42,43
 102 188 102 188 102 125 c 0,44,45
 102 56 102 56 164 56 c 0,36,37
EndSplineSet
EndChar

StartChar: acircumflex
Encoding: 226 226 165
Width: 367
GlyphClass: 2
Flags: W
AnchorPoint: "Anchor-11" 0 0 basechar 0
AnchorPoint: "Anchor-10" 0 0 basechar 0
AnchorPoint: "Anchor-9" 179 693 basechar 0
AnchorPoint: "Anchor-8" 335 0 basechar 0
AnchorPoint: "Anchor-7" 0 0 basechar 0
LayerCount: 2
Fore
SplineSet
235 565 m 1,0,-1
 179 649 l 1,1,-1
 124 565 l 1,2,-1
 62 565 l 1,3,-1
 140 693 l 1,4,-1
 219 693 l 1,5,-1
 296 565 l 1,6,-1
 235 565 l 1,0,-1
332 0 m 1,7,-1
 263 0 l 1,8,9
 258 19 258 19 255 68 c 1,10,11
 224 -10 224 -10 138 -10 c 0,12,13
 86 -10 86 -10 56 23.5 c 128,-1,14
 26 57 26 57 26 114 c 0,15,16
 26 172 26 172 54.5 209.5 c 128,-1,17
 83 247 83 247 151 279 c 0,18,19
 213 307 213 307 230 321 c 0,20,21
 246 334 246 334 246 361 c 2,22,-1
 246 373 l 2,23,24
 246 448 246 448 181 448 c 0,25,26
 148 448 148 448 129.5 428 c 128,-1,27
 111 408 111 408 111 371 c 2,28,-1
 111 356 l 1,29,-1
 40 356 l 1,30,-1
 40 367 l 2,31,32
 40 437 40 437 77 475 c 128,-1,33
 114 513 114 513 182 513 c 0,34,35
 321 513 321 513 321 361 c 2,36,-1
 321 137 l 2,37,38
 321 49 321 49 332 0 c 1,7,-1
164 56 m 0,39,40
 202 56 202 56 224 86 c 128,-1,41
 246 116 246 116 246 170 c 2,42,-1
 246 271 l 1,43,44
 235 256 235 256 173 224 c 0,45,46
 102 188 102 188 102 125 c 0,47,48
 102 56 102 56 164 56 c 0,39,40
EndSplineSet
EndChar

StartChar: atilde
Encoding: 227 227 166
Width: 367
GlyphClass: 2
Flags: W
AnchorPoint: "Anchor-11" 0 0 basechar 0
AnchorPoint: "Anchor-10" 0 0 basechar 0
AnchorPoint: "Anchor-9" 179 670 basechar 0
AnchorPoint: "Anchor-8" 335 0 basechar 0
AnchorPoint: "Anchor-7" 0 0 basechar 0
LayerCount: 2
Fore
SplineSet
138 619 m 0,0,1
 115 619 115 619 99 579 c 1,2,-1
 58 602 l 1,3,4
 90 676 90 676 138 676 c 0,5,6
 162 676 162 676 191 655 c 0,7,8
 212 640 212 640 223 640 c 0,9,10
 246 640 246 640 262 680 c 1,11,-1
 303 657 l 1,12,13
 271 583 271 583 223 583 c 0,14,15
 197 583 197 583 170 604 c 0,16,17
 149 619 149 619 138 619 c 0,0,1
332 0 m 1,18,-1
 263 0 l 1,19,20
 258 19 258 19 255 68 c 1,21,22
 224 -10 224 -10 138 -10 c 0,23,24
 86 -10 86 -10 56 23.5 c 128,-1,25
 26 57 26 57 26 114 c 0,26,27
 26 172 26 172 54.5 209.5 c 128,-1,28
 83 247 83 247 151 279 c 0,29,30
 213 307 213 307 230 321 c 0,31,32
 246 334 246 334 246 361 c 2,33,-1
 246 373 l 2,34,35
 246 448 246 448 181 448 c 0,36,37
 148 448 148 448 129.5 428 c 128,-1,38
 111 408 111 408 111 371 c 2,39,-1
 111 356 l 1,40,-1
 40 356 l 1,41,-1
 40 367 l 2,42,43
 40 437 40 437 77 475 c 128,-1,44
 114 513 114 513 182 513 c 0,45,46
 321 513 321 513 321 361 c 2,47,-1
 321 137 l 2,48,49
 321 49 321 49 332 0 c 1,18,-1
164 56 m 0,50,51
 202 56 202 56 224 86 c 128,-1,52
 246 116 246 116 246 170 c 2,53,-1
 246 271 l 1,54,55
 235 256 235 256 173 224 c 0,56,57
 102 188 102 188 102 125 c 0,58,59
 102 56 102 56 164 56 c 0,50,51
EndSplineSet
EndChar

StartChar: adieresis
Encoding: 228 228 167
Width: 367
GlyphClass: 2
Flags: W
AnchorPoint: "Anchor-11" 0 0 basechar 0
AnchorPoint: "Anchor-10" 0 0 basechar 0
AnchorPoint: "Anchor-9" 179 683 basechar 0
AnchorPoint: "Anchor-8" 335 0 basechar 0
AnchorPoint: "Anchor-7" 0 0 basechar 0
LayerCount: 2
Fore
SplineSet
81 683 m 1,0,-1
 151 683 l 1,1,-1
 151 575 l 1,2,-1
 81 575 l 1,3,-1
 81 683 l 1,0,-1
207 683 m 1,4,-1
 277 683 l 1,5,-1
 277 575 l 1,6,-1
 207 575 l 1,7,-1
 207 683 l 1,4,-1
332 0 m 1,8,-1
 263 0 l 1,9,10
 258 19 258 19 255 68 c 1,11,12
 224 -10 224 -10 138 -10 c 0,13,14
 86 -10 86 -10 56 23.5 c 128,-1,15
 26 57 26 57 26 114 c 0,16,17
 26 172 26 172 54.5 209.5 c 128,-1,18
 83 247 83 247 151 279 c 0,19,20
 213 307 213 307 230 321 c 0,21,22
 246 334 246 334 246 361 c 2,23,-1
 246 373 l 2,24,25
 246 448 246 448 181 448 c 0,26,27
 148 448 148 448 129.5 428 c 128,-1,28
 111 408 111 408 111 371 c 2,29,-1
 111 356 l 1,30,-1
 40 356 l 1,31,-1
 40 367 l 2,32,33
 40 437 40 437 77 475 c 128,-1,34
 114 513 114 513 182 513 c 0,35,36
 321 513 321 513 321 361 c 2,37,-1
 321 137 l 2,38,39
 321 49 321 49 332 0 c 1,8,-1
164 56 m 0,40,41
 202 56 202 56 224 86 c 128,-1,42
 246 116 246 116 246 170 c 2,43,-1
 246 271 l 1,44,45
 235 256 235 256 173 224 c 0,46,47
 102 188 102 188 102 125 c 0,48,49
 102 56 102 56 164 56 c 0,40,41
EndSplineSet
EndChar

StartChar: aring
Encoding: 229 229 168
Width: 367
GlyphClass: 2
Flags: W
AnchorPoint: "Anchor-11" 0 0 basechar 0
AnchorPoint: "Anchor-10" 0 0 basechar 0
AnchorPoint: "Anchor-9" 179 723 basechar 0
AnchorPoint: "Anchor-8" 335 0 basechar 0
AnchorPoint: "Anchor-7" 0 0 basechar 0
LayerCount: 2
Fore
SplineSet
236 588 m 128,-1,1
 213 565 213 565 179 565 c 128,-1,2
 145 565 145 565 122 588 c 128,-1,3
 99 611 99 611 99 644 c 128,-1,4
 99 677 99 677 122 700 c 128,-1,5
 145 723 145 723 179 723 c 128,-1,6
 213 723 213 723 236 700 c 128,-1,7
 259 677 259 677 259 644 c 128,-1,0
 259 611 259 611 236 588 c 128,-1,1
204 671 m 0,8,9
 194 682 194 682 179 682 c 128,-1,10
 164 682 164 682 154 671 c 128,-1,11
 144 660 144 660 144 644 c 128,-1,12
 144 628 144 628 154 617 c 0,13,14
 164 607 164 607 179 607 c 128,-1,15
 194 607 194 607 204 617 c 0,16,17
 215 628 215 628 215 644 c 128,-1,18
 215 660 215 660 204 671 c 0,8,9
332 0 m 1,19,-1
 263 0 l 1,20,21
 258 19 258 19 255 68 c 1,22,23
 224 -10 224 -10 138 -10 c 0,24,25
 86 -10 86 -10 56 23.5 c 128,-1,26
 26 57 26 57 26 114 c 0,27,28
 26 172 26 172 54.5 209.5 c 128,-1,29
 83 247 83 247 151 279 c 0,30,31
 213 307 213 307 230 321 c 0,32,33
 246 334 246 334 246 361 c 2,34,-1
 246 373 l 2,35,36
 246 448 246 448 181 448 c 0,37,38
 148 448 148 448 129.5 428 c 128,-1,39
 111 408 111 408 111 371 c 2,40,-1
 111 356 l 1,41,-1
 40 356 l 1,42,-1
 40 367 l 2,43,44
 40 437 40 437 77 475 c 128,-1,45
 114 513 114 513 182 513 c 0,46,47
 321 513 321 513 321 361 c 2,48,-1
 321 137 l 2,49,50
 321 49 321 49 332 0 c 1,19,-1
164 56 m 0,51,52
 202 56 202 56 224 86 c 128,-1,53
 246 116 246 116 246 170 c 2,54,-1
 246 271 l 1,55,56
 235 256 235 256 173 224 c 0,57,58
 102 188 102 188 102 125 c 0,59,60
 102 56 102 56 164 56 c 0,51,52
EndSplineSet
EndChar

StartChar: ae
Encoding: 230 230 169
Width: 578
GlyphClass: 2
Flags: W
AnchorPoint: "Anchor-11" 0 0 basechar 0
AnchorPoint: "Anchor-10" 0 0 basechar 0
AnchorPoint: "Anchor-9" 290 503 basechar 0
AnchorPoint: "Anchor-8" 0 0 basechar 0
AnchorPoint: "Anchor-7" 290 0 basechar 0
LayerCount: 2
Fore
SplineSet
544 351 m 2,0,-1
 544 240 l 1,1,-1
 322 240 l 1,2,-1
 322 146 l 2,3,4
 322 57 322 57 396 57 c 0,5,6
 471 57 471 57 471 146 c 2,7,-1
 471 161 l 1,8,-1
 544 161 l 1,9,-1
 544 153 l 2,10,11
 544 75 544 75 505.5 32.5 c 128,-1,12
 467 -10 467 -10 395 -10 c 0,13,14
 305 -10 305 -10 267 56 c 1,15,16
 232 -10 232 -10 147 -10 c 0,17,18
 91 -10 91 -10 58.5 23 c 128,-1,19
 26 56 26 56 26 114 c 128,-1,20
 26 172 26 172 54.5 209.5 c 128,-1,21
 83 247 83 247 151 279 c 0,22,23
 210 306 210 306 230 322 c 0,24,25
 246 335 246 335 246 361 c 2,26,-1
 246 373 l 2,27,28
 246 448 246 448 182 448 c 0,29,30
 149 448 149 448 130 428 c 128,-1,31
 111 408 111 408 111 371 c 2,32,-1
 111 356 l 1,33,-1
 40 356 l 1,34,-1
 40 367 l 2,35,36
 40 436 40 436 76.5 474.5 c 128,-1,37
 113 513 113 513 176 513 c 0,38,39
 260 513 260 513 287 452 c 1,40,41
 318 513 318 513 401 513 c 0,42,43
 469 513 469 513 506.5 471 c 128,-1,44
 544 429 544 429 544 351 c 2,0,-1
395 446 m 0,45,46
 322 446 322 446 322 358 c 2,47,-1
 322 302 l 1,48,-1
 470 302 l 1,49,-1
 470 358 l 2,50,51
 470 446 470 446 395 446 c 0,45,46
164 56 m 0,52,53
 203 56 203 56 224.5 85.5 c 128,-1,54
 246 115 246 115 246 169 c 2,55,-1
 246 271 l 1,56,57
 235 256 235 256 173 224 c 0,58,59
 102 188 102 188 102 125 c 0,60,61
 102 56 102 56 164 56 c 0,52,53
EndSplineSet
EndChar

StartChar: ccedilla
Encoding: 231 231 170
Width: 359
GlyphClass: 2
Flags: W
AnchorPoint: "Anchor-11" 0 0 basechar 0
AnchorPoint: "Anchor-10" 0 0 basechar 0
AnchorPoint: "Anchor-9" 183 503 basechar 0
AnchorPoint: "Anchor-8" 0 0 basechar 0
AnchorPoint: "Anchor-7" 185 -155 basechar 0
LayerCount: 2
Fore
SplineSet
329 353 m 2,0,-1
 329 331 l 1,1,-1
 256 331 l 1,2,-1
 256 360 l 2,3,4
 256 446 256 446 185 446 c 128,-1,5
 114 446 114 446 114 360 c 2,6,-1
 114 144 l 2,7,8
 114 57 114 57 185 57 c 128,-1,9
 256 57 256 57 256 144 c 2,10,-1
 256 183 l 1,11,-1
 329 183 l 1,12,-1
 329 151 l 2,13,14
 329 79 329 79 297.5 38 c 128,-1,15
 266 -3 266 -3 205 -9 c 1,16,-1
 205 -44 l 1,17,18
 272 -44 272 -44 272 -94 c 0,19,20
 272 -129 272 -129 250 -142 c 128,-1,21
 228 -155 228 -155 180 -155 c 0,22,23
 91 -155 91 -155 91 -96 c 2,24,-1
 91 -88 l 1,25,-1
 147 -88 l 1,26,-1
 147 -96 l 2,27,28
 147 -120 147 -120 179 -120 c 0,29,30
 215 -120 215 -120 215 -93 c 128,-1,31
 215 -66 215 -66 176 -66 c 2,32,-1
 166 -66 l 1,33,-1
 166 -9 l 1,34,35
 103 -4 103 -4 70.5 37.5 c 128,-1,36
 38 79 38 79 38 151 c 2,37,-1
 38 353 l 2,38,39
 38 431 38 431 75.5 472 c 128,-1,40
 113 513 113 513 185 513 c 0,41,42
 256 513 256 513 292.5 471.5 c 128,-1,43
 329 430 329 430 329 353 c 2,0,-1
EndSplineSet
EndChar

StartChar: egrave
Encoding: 232 232 171
Width: 370
GlyphClass: 2
Flags: W
AnchorPoint: "Anchor-11" 0 0 basechar 0
AnchorPoint: "Anchor-10" 0 0 basechar 0
AnchorPoint: "Anchor-9" 186 693 basechar 0
AnchorPoint: "Anchor-8" 320 0 basechar 0
AnchorPoint: "Anchor-7" 186 0 basechar 0
LayerCount: 2
Fore
SplineSet
165 693 m 1,0,-1
 235 565 l 1,1,-1
 174 565 l 1,2,-1
 78 693 l 1,3,-1
 165 693 l 1,0,-1
187 513 m 0,4,5
 259 513 259 513 297.5 471 c 128,-1,6
 336 429 336 429 336 351 c 2,7,-1
 336 240 l 1,8,-1
 114 240 l 1,9,-1
 114 146 l 2,10,11
 114 57 114 57 188 57 c 0,12,13
 263 57 263 57 263 146 c 2,14,-1
 263 161 l 1,15,-1
 336 161 l 1,16,-1
 336 153 l 2,17,18
 336 75 336 75 297.5 32.5 c 128,-1,19
 259 -10 259 -10 187 -10 c 128,-1,20
 115 -10 115 -10 76.5 32.5 c 128,-1,21
 38 75 38 75 38 153 c 2,22,-1
 38 351 l 2,23,24
 38 429 38 429 76 471 c 128,-1,25
 114 513 114 513 187 513 c 0,4,5
114 358 m 2,26,-1
 114 302 l 1,27,-1
 262 302 l 1,28,-1
 262 358 l 2,29,30
 262 446 262 446 187 446 c 0,31,32
 114 446 114 446 114 358 c 2,26,-1
EndSplineSet
EndChar

StartChar: eacute
Encoding: 233 233 172
Width: 370
GlyphClass: 2
Flags: W
AnchorPoint: "Anchor-11" 0 0 basechar 0
AnchorPoint: "Anchor-10" 0 0 basechar 0
AnchorPoint: "Anchor-9" 186 693 basechar 0
AnchorPoint: "Anchor-8" 320 0 basechar 0
AnchorPoint: "Anchor-7" 186 0 basechar 0
LayerCount: 2
Fore
SplineSet
208 693 m 1,0,-1
 295 693 l 1,1,-1
 199 565 l 1,2,-1
 137 565 l 1,3,-1
 208 693 l 1,0,-1
187 513 m 0,4,5
 259 513 259 513 297.5 471 c 128,-1,6
 336 429 336 429 336 351 c 2,7,-1
 336 240 l 1,8,-1
 114 240 l 1,9,-1
 114 146 l 2,10,11
 114 57 114 57 188 57 c 0,12,13
 263 57 263 57 263 146 c 2,14,-1
 263 161 l 1,15,-1
 336 161 l 1,16,-1
 336 153 l 2,17,18
 336 75 336 75 297.5 32.5 c 128,-1,19
 259 -10 259 -10 187 -10 c 128,-1,20
 115 -10 115 -10 76.5 32.5 c 128,-1,21
 38 75 38 75 38 153 c 2,22,-1
 38 351 l 2,23,24
 38 429 38 429 76 471 c 128,-1,25
 114 513 114 513 187 513 c 0,4,5
114 358 m 2,26,-1
 114 302 l 1,27,-1
 262 302 l 1,28,-1
 262 358 l 2,29,30
 262 446 262 446 187 446 c 0,31,32
 114 446 114 446 114 358 c 2,26,-1
EndSplineSet
EndChar

StartChar: ecircumflex
Encoding: 234 234 173
Width: 370
GlyphClass: 2
Flags: W
AnchorPoint: "Anchor-11" 0 0 basechar 0
AnchorPoint: "Anchor-10" 0 0 basechar 0
AnchorPoint: "Anchor-9" 186 693 basechar 0
AnchorPoint: "Anchor-8" 320 0 basechar 0
AnchorPoint: "Anchor-7" 186 0 basechar 0
LayerCount: 2
Fore
SplineSet
242 565 m 1,0,-1
 186 649 l 1,1,-1
 131 565 l 1,2,-1
 69 565 l 1,3,-1
 147 693 l 1,4,-1
 226 693 l 1,5,-1
 303 565 l 1,6,-1
 242 565 l 1,0,-1
187 513 m 0,7,8
 259 513 259 513 297.5 471 c 128,-1,9
 336 429 336 429 336 351 c 2,10,-1
 336 240 l 1,11,-1
 114 240 l 1,12,-1
 114 146 l 2,13,14
 114 57 114 57 188 57 c 0,15,16
 263 57 263 57 263 146 c 2,17,-1
 263 161 l 1,18,-1
 336 161 l 1,19,-1
 336 153 l 2,20,21
 336 75 336 75 297.5 32.5 c 128,-1,22
 259 -10 259 -10 187 -10 c 128,-1,23
 115 -10 115 -10 76.5 32.5 c 128,-1,24
 38 75 38 75 38 153 c 2,25,-1
 38 351 l 2,26,27
 38 429 38 429 76 471 c 128,-1,28
 114 513 114 513 187 513 c 0,7,8
114 358 m 2,29,-1
 114 302 l 1,30,-1
 262 302 l 1,31,-1
 262 358 l 2,32,33
 262 446 262 446 187 446 c 0,34,35
 114 446 114 446 114 358 c 2,29,-1
EndSplineSet
EndChar

StartChar: edieresis
Encoding: 235 235 174
Width: 370
GlyphClass: 2
Flags: W
AnchorPoint: "Anchor-11" 0 0 basechar 0
AnchorPoint: "Anchor-10" 0 0 basechar 0
AnchorPoint: "Anchor-9" 186 683 basechar 0
AnchorPoint: "Anchor-8" 320 0 basechar 0
AnchorPoint: "Anchor-7" 186 0 basechar 0
LayerCount: 2
Fore
SplineSet
88 683 m 1,0,-1
 158 683 l 1,1,-1
 158 575 l 1,2,-1
 88 575 l 1,3,-1
 88 683 l 1,0,-1
214 683 m 1,4,-1
 284 683 l 1,5,-1
 284 575 l 1,6,-1
 214 575 l 1,7,-1
 214 683 l 1,4,-1
187 513 m 0,8,9
 259 513 259 513 297.5 471 c 128,-1,10
 336 429 336 429 336 351 c 2,11,-1
 336 240 l 1,12,-1
 114 240 l 1,13,-1
 114 146 l 2,14,15
 114 57 114 57 188 57 c 0,16,17
 263 57 263 57 263 146 c 2,18,-1
 263 161 l 1,19,-1
 336 161 l 1,20,-1
 336 153 l 2,21,22
 336 75 336 75 297.5 32.5 c 128,-1,23
 259 -10 259 -10 187 -10 c 128,-1,24
 115 -10 115 -10 76.5 32.5 c 128,-1,25
 38 75 38 75 38 153 c 2,26,-1
 38 351 l 2,27,28
 38 429 38 429 76 471 c 128,-1,29
 114 513 114 513 187 513 c 0,8,9
114 358 m 2,30,-1
 114 302 l 1,31,-1
 262 302 l 1,32,-1
 262 358 l 2,33,34
 262 446 262 446 187 446 c 0,35,36
 114 446 114 446 114 358 c 2,30,-1
EndSplineSet
EndChar

StartChar: igrave
Encoding: 236 236 175
Width: 171
GlyphClass: 2
Flags: W
AnchorPoint: "Anchor-11" 0 0 basechar 0
AnchorPoint: "Anchor-10" 0 0 basechar 0
AnchorPoint: "Anchor-9" 85 693 basechar 0
AnchorPoint: "Anchor-8" 153 0 basechar 0
AnchorPoint: "Anchor-7" 85 0 basechar 0
LayerCount: 2
Fore
SplineSet
134 565 m 1,0,-1
 73 565 l 1,1,-1
 -24 693 l 1,2,-1
 64 693 l 1,3,-1
 134 565 l 1,0,-1
123 0 m 1,4,-1
 48 0 l 1,5,-1
 48 503 l 1,6,-1
 123 503 l 1,7,-1
 123 0 l 1,4,-1
EndSplineSet
EndChar

StartChar: iacute
Encoding: 237 237 176
Width: 171
GlyphClass: 2
Flags: W
AnchorPoint: "Anchor-11" 0 0 basechar 0
AnchorPoint: "Anchor-10" 0 0 basechar 0
AnchorPoint: "Anchor-9" 85 693 basechar 0
AnchorPoint: "Anchor-8" 153 0 basechar 0
AnchorPoint: "Anchor-7" 85 0 basechar 0
LayerCount: 2
Fore
SplineSet
98 565 m 1,0,-1
 36 565 l 1,1,-1
 107 693 l 1,2,-1
 194 693 l 1,3,-1
 98 565 l 1,0,-1
123 0 m 1,4,-1
 48 0 l 1,5,-1
 48 503 l 1,6,-1
 123 503 l 1,7,-1
 123 0 l 1,4,-1
EndSplineSet
EndChar

StartChar: icircumflex
Encoding: 238 238 177
Width: 171
GlyphClass: 2
Flags: W
AnchorPoint: "Anchor-11" 0 0 basechar 0
AnchorPoint: "Anchor-10" 0 0 basechar 0
AnchorPoint: "Anchor-9" 85 693 basechar 0
AnchorPoint: "Anchor-8" 153 0 basechar 0
AnchorPoint: "Anchor-7" 85 0 basechar 0
LayerCount: 2
Fore
SplineSet
30 565 m 1,0,-1
 -32 565 l 1,1,-1
 46 693 l 1,2,-1
 125 693 l 1,3,-1
 202 565 l 1,4,-1
 141 565 l 1,5,-1
 85 649 l 1,6,-1
 30 565 l 1,0,-1
123 0 m 1,7,-1
 48 0 l 1,8,-1
 48 503 l 1,9,-1
 123 503 l 1,10,-1
 123 0 l 1,7,-1
EndSplineSet
EndChar

StartChar: idieresis
Encoding: 239 239 178
Width: 171
GlyphClass: 2
Flags: W
AnchorPoint: "Anchor-11" 0 0 basechar 0
AnchorPoint: "Anchor-10" 0 0 basechar 0
AnchorPoint: "Anchor-9" 85 683 basechar 0
AnchorPoint: "Anchor-8" 153 0 basechar 0
AnchorPoint: "Anchor-7" 85 0 basechar 0
LayerCount: 2
Fore
SplineSet
57 575 m 1,0,-1
 -13 575 l 1,1,-1
 -13 683 l 1,2,-1
 57 683 l 1,3,-1
 57 575 l 1,0,-1
183 575 m 1,4,-1
 113 575 l 1,5,-1
 113 683 l 1,6,-1
 183 683 l 1,7,-1
 183 575 l 1,4,-1
123 0 m 1,8,-1
 48 0 l 1,9,-1
 48 503 l 1,10,-1
 123 503 l 1,11,-1
 123 0 l 1,8,-1
EndSplineSet
EndChar

StartChar: eth
Encoding: 240 240 179
Width: 374
GlyphClass: 2
Flags: W
LayerCount: 2
Fore
SplineSet
269 700 m 1,0,-1
 338 700 l 1,1,-1
 257 622 l 1,2,3
 333 522 333 522 333 338 c 2,4,-1
 333 153 l 2,5,6
 333 75 333 75 295 32.5 c 128,-1,7
 257 -10 257 -10 185 -10 c 128,-1,8
 113 -10 113 -10 75 32.5 c 128,-1,9
 37 75 37 75 37 153 c 2,10,-1
 37 335 l 2,11,12
 37 480 37 480 155 480 c 0,13,14
 221 480 221 480 257 423 c 1,15,16
 250 509 250 509 207 574 c 1,17,-1
 147 516 l 1,18,-1
 77 516 l 1,19,-1
 178 613 l 1,20,21
 128 666 128 666 60 700 c 1,22,-1
 164 700 l 1,23,24
 202 680 202 680 225 657 c 1,25,-1
 269 700 l 1,0,-1
258 146 m 2,26,-1
 258 301 l 2,27,28
 258 354 258 354 236 383.5 c 128,-1,29
 214 413 214 413 177 413 c 0,30,31
 113 413 113 413 113 329 c 2,32,-1
 113 146 l 2,33,34
 113 57 113 57 185 57 c 0,35,36
 258 57 258 57 258 146 c 2,26,-1
EndSplineSet
EndChar

StartChar: ntilde
Encoding: 241 241 180
Width: 385
GlyphClass: 2
Flags: W
AnchorPoint: "Anchor-11" 0 0 basechar 0
AnchorPoint: "Anchor-10" 0 0 basechar 0
AnchorPoint: "Anchor-9" 193 670 basechar 0
AnchorPoint: "Anchor-8" 0 0 basechar 0
AnchorPoint: "Anchor-7" 193 0 basechar 0
LayerCount: 2
Fore
SplineSet
152 619 m 0,0,1
 129 619 129 619 113 579 c 1,2,-1
 72 602 l 1,3,4
 104 676 104 676 152 676 c 0,5,6
 176 676 176 676 205 655 c 0,7,8
 226 640 226 640 237 640 c 0,9,10
 260 640 260 640 276 680 c 1,11,-1
 317 657 l 1,12,13
 285 583 285 583 237 583 c 0,14,15
 211 583 211 583 184 604 c 0,16,17
 163 619 163 619 152 619 c 0,0,1
225 513 m 0,18,19
 341 513 341 513 341 368 c 2,20,-1
 341 0 l 1,21,-1
 265 0 l 1,22,-1
 265 358 l 2,23,24
 265 446 265 446 202 446 c 0,25,26
 166 446 166 446 144.5 416.5 c 128,-1,27
 123 387 123 387 123 334 c 2,28,-1
 123 0 l 1,29,-1
 48 0 l 1,30,-1
 48 503 l 1,31,-1
 113 503 l 1,32,-1
 114 437 l 1,33,34
 145 513 145 513 225 513 c 0,18,19
EndSplineSet
EndChar

StartChar: ograve
Encoding: 242 242 181
Width: 371
GlyphClass: 2
Flags: W
AnchorPoint: "Anchor-11" 351 503 basechar 0
AnchorPoint: "Anchor-10" 186 252 basechar 0
AnchorPoint: "Anchor-9" 186 693 basechar 0
AnchorPoint: "Anchor-8" 334 10 basechar 0
AnchorPoint: "Anchor-7" 186 0 basechar 0
LayerCount: 2
Fore
SplineSet
235 565 m 1,0,-1
 174 565 l 1,1,-1
 78 693 l 1,2,-1
 165 693 l 1,3,-1
 235 565 l 1,0,-1
186 -10 m 0,4,5
 114 -10 114 -10 76 32.5 c 128,-1,6
 38 75 38 75 38 153 c 2,7,-1
 38 351 l 2,8,9
 38 429 38 429 76 471 c 128,-1,10
 114 513 114 513 186 513 c 0,11,12
 257 513 257 513 295.5 471 c 128,-1,13
 334 429 334 429 334 351 c 2,14,-1
 334 153 l 2,15,16
 334 75 334 75 295.5 32.5 c 128,-1,17
 257 -10 257 -10 186 -10 c 0,4,5
186 57 m 0,18,19
 258 57 258 57 258 146 c 2,20,-1
 258 358 l 2,21,22
 258 446 258 446 186 446 c 0,23,24
 113 446 113 446 113 358 c 2,25,-1
 113 146 l 2,26,27
 113 57 113 57 186 57 c 0,18,19
EndSplineSet
EndChar

StartChar: oacute
Encoding: 243 243 182
Width: 371
GlyphClass: 2
Flags: W
AnchorPoint: "Anchor-11" 351 503 basechar 0
AnchorPoint: "Anchor-10" 186 252 basechar 0
AnchorPoint: "Anchor-9" 186 693 basechar 0
AnchorPoint: "Anchor-8" 334 10 basechar 0
AnchorPoint: "Anchor-7" 186 0 basechar 0
LayerCount: 2
Fore
SplineSet
199 565 m 1,0,-1
 137 565 l 1,1,-1
 208 693 l 1,2,-1
 295 693 l 1,3,-1
 199 565 l 1,0,-1
186 -10 m 0,4,5
 114 -10 114 -10 76 32.5 c 128,-1,6
 38 75 38 75 38 153 c 2,7,-1
 38 351 l 2,8,9
 38 429 38 429 76 471 c 128,-1,10
 114 513 114 513 186 513 c 0,11,12
 257 513 257 513 295.5 471 c 128,-1,13
 334 429 334 429 334 351 c 2,14,-1
 334 153 l 2,15,16
 334 75 334 75 295.5 32.5 c 128,-1,17
 257 -10 257 -10 186 -10 c 0,4,5
186 57 m 0,18,19
 258 57 258 57 258 146 c 2,20,-1
 258 358 l 2,21,22
 258 446 258 446 186 446 c 0,23,24
 113 446 113 446 113 358 c 2,25,-1
 113 146 l 2,26,27
 113 57 113 57 186 57 c 0,18,19
EndSplineSet
EndChar

StartChar: ocircumflex
Encoding: 244 244 183
Width: 371
GlyphClass: 2
Flags: W
AnchorPoint: "Anchor-11" 351 503 basechar 0
AnchorPoint: "Anchor-10" 186 252 basechar 0
AnchorPoint: "Anchor-9" 186 693 basechar 0
AnchorPoint: "Anchor-8" 334 10 basechar 0
AnchorPoint: "Anchor-7" 186 0 basechar 0
LayerCount: 2
Fore
SplineSet
131 565 m 1,0,-1
 69 565 l 1,1,-1
 147 693 l 1,2,-1
 226 693 l 1,3,-1
 303 565 l 1,4,-1
 242 565 l 1,5,-1
 186 649 l 1,6,-1
 131 565 l 1,0,-1
186 -10 m 0,7,8
 114 -10 114 -10 76 32.5 c 128,-1,9
 38 75 38 75 38 153 c 2,10,-1
 38 351 l 2,11,12
 38 429 38 429 76 471 c 128,-1,13
 114 513 114 513 186 513 c 0,14,15
 257 513 257 513 295.5 471 c 128,-1,16
 334 429 334 429 334 351 c 2,17,-1
 334 153 l 2,18,19
 334 75 334 75 295.5 32.5 c 128,-1,20
 257 -10 257 -10 186 -10 c 0,7,8
186 57 m 0,21,22
 258 57 258 57 258 146 c 2,23,-1
 258 358 l 2,24,25
 258 446 258 446 186 446 c 0,26,27
 113 446 113 446 113 358 c 2,28,-1
 113 146 l 2,29,30
 113 57 113 57 186 57 c 0,21,22
EndSplineSet
EndChar

StartChar: otilde
Encoding: 245 245 184
Width: 371
GlyphClass: 2
Flags: W
AnchorPoint: "Anchor-11" 351 503 basechar 0
AnchorPoint: "Anchor-10" 186 252 basechar 0
AnchorPoint: "Anchor-9" 186 670 basechar 0
AnchorPoint: "Anchor-8" 334 10 basechar 0
AnchorPoint: "Anchor-7" 186 0 basechar 0
LayerCount: 2
Fore
SplineSet
106 579 m 1,0,-1
 65 602 l 1,1,2
 97 676 97 676 145 676 c 0,3,4
 170 676 170 676 198 655 c 0,5,6
 219 640 219 640 230 640 c 0,7,8
 253 640 253 640 269 680 c 1,9,-1
 310 657 l 1,10,11
 278 583 278 583 230 583 c 0,12,13
 204 583 204 583 177 604 c 0,14,15
 156 619 156 619 145 619 c 0,16,17
 122 619 122 619 106 579 c 1,0,-1
186 -10 m 0,18,19
 114 -10 114 -10 76 32.5 c 128,-1,20
 38 75 38 75 38 153 c 2,21,-1
 38 351 l 2,22,23
 38 429 38 429 76 471 c 128,-1,24
 114 513 114 513 186 513 c 0,25,26
 257 513 257 513 295.5 471 c 128,-1,27
 334 429 334 429 334 351 c 2,28,-1
 334 153 l 2,29,30
 334 75 334 75 295.5 32.5 c 128,-1,31
 257 -10 257 -10 186 -10 c 0,18,19
186 57 m 0,32,33
 258 57 258 57 258 146 c 2,34,-1
 258 358 l 2,35,36
 258 446 258 446 186 446 c 0,37,38
 113 446 113 446 113 358 c 2,39,-1
 113 146 l 2,40,41
 113 57 113 57 186 57 c 0,32,33
EndSplineSet
EndChar

StartChar: odieresis
Encoding: 246 246 185
Width: 371
GlyphClass: 2
Flags: W
AnchorPoint: "Anchor-11" 351 503 basechar 0
AnchorPoint: "Anchor-10" 186 252 basechar 0
AnchorPoint: "Anchor-9" 186 683 basechar 0
AnchorPoint: "Anchor-8" 334 10 basechar 0
AnchorPoint: "Anchor-7" 186 0 basechar 0
LayerCount: 2
Fore
SplineSet
158 575 m 1,0,-1
 88 575 l 1,1,-1
 88 683 l 1,2,-1
 158 683 l 1,3,-1
 158 575 l 1,0,-1
284 575 m 1,4,-1
 214 575 l 1,5,-1
 214 683 l 1,6,-1
 284 683 l 1,7,-1
 284 575 l 1,4,-1
186 -10 m 0,8,9
 114 -10 114 -10 76 32.5 c 128,-1,10
 38 75 38 75 38 153 c 2,11,-1
 38 351 l 2,12,13
 38 429 38 429 76 471 c 128,-1,14
 114 513 114 513 186 513 c 0,15,16
 257 513 257 513 295.5 471 c 128,-1,17
 334 429 334 429 334 351 c 2,18,-1
 334 153 l 2,19,20
 334 75 334 75 295.5 32.5 c 128,-1,21
 257 -10 257 -10 186 -10 c 0,8,9
186 57 m 0,22,23
 258 57 258 57 258 146 c 2,24,-1
 258 358 l 2,25,26
 258 446 258 446 186 446 c 0,27,28
 113 446 113 446 113 358 c 2,29,-1
 113 146 l 2,30,31
 113 57 113 57 186 57 c 0,22,23
EndSplineSet
EndChar

StartChar: divide
Encoding: 247 247 186
Width: 400
GlyphClass: 2
Flags: W
LayerCount: 2
Fore
SplineSet
239 396 m 1,0,-1
 159 396 l 1,1,-1
 159 494 l 1,2,-1
 239 494 l 1,3,-1
 239 396 l 1,0,-1
369 270 m 1,4,-1
 29 270 l 1,5,-1
 29 330 l 1,6,-1
 369 330 l 1,7,-1
 369 270 l 1,4,-1
239 106 m 1,8,-1
 159 106 l 1,9,-1
 159 205 l 1,10,-1
 239 205 l 1,11,-1
 239 106 l 1,8,-1
EndSplineSet
EndChar

StartChar: oslash
Encoding: 248 248 187
Width: 371
GlyphClass: 2
Flags: W
AnchorPoint: "Anchor-11" 351 503 basechar 0
AnchorPoint: "Anchor-10" 186 252 basechar 0
AnchorPoint: "Anchor-9" 186 503 basechar 0
AnchorPoint: "Anchor-8" 334 10 basechar 0
AnchorPoint: "Anchor-7" 186 0 basechar 0
LayerCount: 2
Fore
SplineSet
332 513 m 1,0,-1
 306 458 l 1,1,2
 334 417 334 417 334 351 c 2,3,-1
 334 153 l 2,4,5
 334 75 334 75 295.5 32.5 c 128,-1,6
 257 -10 257 -10 186 -10 c 0,7,8
 132 -10 132 -10 98 14 c 1,9,-1
 78 -28 l 1,10,-1
 40 -9 l 1,11,-1
 66 46 l 1,12,13
 38 86 38 86 38 153 c 2,14,-1
 38 351 l 2,15,16
 38 429 38 429 76 471 c 128,-1,17
 114 513 114 513 186 513 c 0,18,19
 239 513 239 513 274 490 c 1,20,-1
 294 532 l 1,21,-1
 332 513 l 1,0,-1
113 358 m 2,22,-1
 113 146 l 1,23,-1
 242 421 l 1,24,25
 226 446 226 446 186 446 c 0,26,27
 113 446 113 446 113 358 c 2,22,-1
186 57 m 0,28,29
 258 57 258 57 258 146 c 2,30,-1
 258 355 l 1,31,-1
 129 82 l 1,32,33
 148 57 148 57 186 57 c 0,28,29
EndSplineSet
EndChar

StartChar: ugrave
Encoding: 249 249 188
Width: 385
GlyphClass: 2
Flags: W
AnchorPoint: "Anchor-11" 364 503 basechar 0
AnchorPoint: "Anchor-10" 0 0 basechar 0
AnchorPoint: "Anchor-9" 191 693 basechar 0
AnchorPoint: "Anchor-8" 342 0 basechar 0
AnchorPoint: "Anchor-7" 193 0 basechar 0
LayerCount: 2
Fore
SplineSet
170 693 m 1,0,-1
 240 565 l 1,1,-1
 179 565 l 1,2,-1
 83 693 l 1,3,-1
 170 693 l 1,0,-1
262 169 m 2,4,-1
 262 503 l 1,5,-1
 337 503 l 1,6,-1
 337 0 l 1,7,-1
 272 0 l 1,8,-1
 271 67 l 1,9,10
 239 -10 239 -10 160 -10 c 0,11,12
 44 -10 44 -10 44 136 c 2,13,-1
 44 503 l 1,14,-1
 120 503 l 1,15,-1
 120 145 l 2,16,17
 120 57 120 57 183 57 c 0,18,19
 219 57 219 57 240.5 86.5 c 128,-1,20
 262 116 262 116 262 169 c 2,4,-1
EndSplineSet
EndChar

StartChar: uacute
Encoding: 250 250 189
Width: 385
GlyphClass: 2
Flags: W
AnchorPoint: "Anchor-11" 364 503 basechar 0
AnchorPoint: "Anchor-10" 0 0 basechar 0
AnchorPoint: "Anchor-9" 191 693 basechar 0
AnchorPoint: "Anchor-8" 342 0 basechar 0
AnchorPoint: "Anchor-7" 193 0 basechar 0
LayerCount: 2
Fore
SplineSet
213 693 m 1,0,-1
 300 693 l 1,1,-1
 204 565 l 1,2,-1
 142 565 l 1,3,-1
 213 693 l 1,0,-1
262 169 m 2,4,-1
 262 503 l 1,5,-1
 337 503 l 1,6,-1
 337 0 l 1,7,-1
 272 0 l 1,8,-1
 271 67 l 1,9,10
 239 -10 239 -10 160 -10 c 0,11,12
 44 -10 44 -10 44 136 c 2,13,-1
 44 503 l 1,14,-1
 120 503 l 1,15,-1
 120 145 l 2,16,17
 120 57 120 57 183 57 c 0,18,19
 219 57 219 57 240.5 86.5 c 128,-1,20
 262 116 262 116 262 169 c 2,4,-1
EndSplineSet
EndChar

StartChar: ucircumflex
Encoding: 251 251 190
Width: 385
GlyphClass: 2
Flags: W
AnchorPoint: "Anchor-11" 364 503 basechar 0
AnchorPoint: "Anchor-10" 0 0 basechar 0
AnchorPoint: "Anchor-9" 191 693 basechar 0
AnchorPoint: "Anchor-8" 342 0 basechar 0
AnchorPoint: "Anchor-7" 193 0 basechar 0
LayerCount: 2
Fore
SplineSet
247 565 m 1,0,-1
 191 649 l 1,1,-1
 136 565 l 1,2,-1
 74 565 l 1,3,-1
 152 693 l 1,4,-1
 231 693 l 1,5,-1
 308 565 l 1,6,-1
 247 565 l 1,0,-1
262 169 m 2,7,-1
 262 503 l 1,8,-1
 337 503 l 1,9,-1
 337 0 l 1,10,-1
 272 0 l 1,11,-1
 271 67 l 1,12,13
 239 -10 239 -10 160 -10 c 0,14,15
 44 -10 44 -10 44 136 c 2,16,-1
 44 503 l 1,17,-1
 120 503 l 1,18,-1
 120 145 l 2,19,20
 120 57 120 57 183 57 c 0,21,22
 219 57 219 57 240.5 86.5 c 128,-1,23
 262 116 262 116 262 169 c 2,7,-1
EndSplineSet
EndChar

StartChar: udieresis
Encoding: 252 252 191
Width: 385
GlyphClass: 2
Flags: W
AnchorPoint: "Anchor-11" 364 503 basechar 0
AnchorPoint: "Anchor-10" 0 0 basechar 0
AnchorPoint: "Anchor-9" 191 683 basechar 0
AnchorPoint: "Anchor-8" 342 0 basechar 0
AnchorPoint: "Anchor-7" 193 0 basechar 0
LayerCount: 2
Fore
SplineSet
93 683 m 1,0,-1
 163 683 l 1,1,-1
 163 575 l 1,2,-1
 93 575 l 1,3,-1
 93 683 l 1,0,-1
219 683 m 1,4,-1
 289 683 l 1,5,-1
 289 575 l 1,6,-1
 219 575 l 1,7,-1
 219 683 l 1,4,-1
262 169 m 2,8,-1
 262 503 l 1,9,-1
 337 503 l 1,10,-1
 337 0 l 1,11,-1
 272 0 l 1,12,-1
 271 67 l 1,13,14
 239 -10 239 -10 160 -10 c 0,15,16
 44 -10 44 -10 44 136 c 2,17,-1
 44 503 l 1,18,-1
 120 503 l 1,19,-1
 120 145 l 2,20,21
 120 57 120 57 183 57 c 0,22,23
 219 57 219 57 240.5 86.5 c 128,-1,24
 262 116 262 116 262 169 c 2,8,-1
EndSplineSet
EndChar

StartChar: yacute
Encoding: 253 253 192
Width: 355
GlyphClass: 2
Flags: W
AnchorPoint: "Anchor-11" 0 0 basechar 0
AnchorPoint: "Anchor-10" 0 0 basechar 0
AnchorPoint: "Anchor-9" 178 693 basechar 0
AnchorPoint: "Anchor-8" 0 0 basechar 0
AnchorPoint: "Anchor-7" 178 0 basechar 0
LayerCount: 2
Fore
SplineSet
191 565 m 1,0,-1
 129 565 l 1,1,-1
 200 693 l 1,2,-1
 287 693 l 1,3,-1
 191 565 l 1,0,-1
89 -165 m 0,4,5
 55 -165 55 -165 38 -155 c 1,6,-1
 38 -90 l 1,7,8
 56 -98 56 -98 78 -98 c 0,9,10
 105 -98 105 -98 117.5 -87 c 128,-1,11
 130 -76 130 -76 137 -46 c 2,12,-1
 147 -10 l 1,13,-1
 17 503 l 1,14,-1
 94 503 l 1,15,-1
 184 120 l 1,16,-1
 266 503 l 1,17,-1
 337 503 l 1,18,-1
 210 -57 l 2,19,20
 197 -115 197 -115 169 -140 c 128,-1,21
 141 -165 141 -165 89 -165 c 0,4,5
EndSplineSet
EndChar

StartChar: thorn
Encoding: 254 254 193
Width: 384
GlyphClass: 2
Flags: W
LayerCount: 2
Fore
SplineSet
226 513 m 0,0,1
 344 513 344 513 344 368 c 2,2,-1
 344 136 l 2,3,4
 344 -10 344 -10 226 -10 c 0,5,6
 158 -10 158 -10 123 50 c 1,7,-1
 123 -155 l 1,8,-1
 48 -155 l 1,9,-1
 48 700 l 1,10,-1
 123 700 l 1,11,-1
 123 453 l 1,12,13
 158 513 158 513 226 513 c 0,0,1
268 142 m 2,14,-1
 268 362 l 2,15,16
 268 446 268 446 204 446 c 0,17,18
 167 446 167 446 145 416.5 c 128,-1,19
 123 387 123 387 123 334 c 2,20,-1
 123 169 l 2,21,22
 123 116 123 116 145 86.5 c 128,-1,23
 167 57 167 57 204 57 c 0,24,25
 268 57 268 57 268 142 c 2,14,-1
EndSplineSet
EndChar

StartChar: ydieresis
Encoding: 255 255 194
Width: 355
GlyphClass: 2
Flags: W
AnchorPoint: "Anchor-11" 0 0 basechar 0
AnchorPoint: "Anchor-10" 0 0 basechar 0
AnchorPoint: "Anchor-9" 178 683 basechar 0
AnchorPoint: "Anchor-8" 0 0 basechar 0
AnchorPoint: "Anchor-7" 178 0 basechar 0
LayerCount: 2
Fore
SplineSet
150 575 m 1,0,-1
 80 575 l 1,1,-1
 80 683 l 1,2,-1
 150 683 l 1,3,-1
 150 575 l 1,0,-1
276 575 m 1,4,-1
 206 575 l 1,5,-1
 206 683 l 1,6,-1
 276 683 l 1,7,-1
 276 575 l 1,4,-1
89 -165 m 0,8,9
 55 -165 55 -165 38 -155 c 1,10,-1
 38 -90 l 1,11,12
 56 -98 56 -98 78 -98 c 0,13,14
 105 -98 105 -98 117.5 -87 c 128,-1,15
 130 -76 130 -76 137 -46 c 2,16,-1
 147 -10 l 1,17,-1
 17 503 l 1,18,-1
 94 503 l 1,19,-1
 184 120 l 1,20,-1
 266 503 l 1,21,-1
 337 503 l 1,22,-1
 210 -57 l 2,23,24
 197 -115 197 -115 169 -140 c 128,-1,25
 141 -165 141 -165 89 -165 c 0,8,9
EndSplineSet
EndChar

StartChar: Amacron
Encoding: 256 256 195
Width: 400
GlyphClass: 2
Flags: W
AnchorPoint: "Anchor-11" 0 0 basechar 0
AnchorPoint: "Anchor-10" 0 0 basechar 0
AnchorPoint: "Anchor-9" 200 846 basechar 0
AnchorPoint: "Anchor-8" 383 0 basechar 0
AnchorPoint: "Anchor-7" 200 0 basechar 0
LayerCount: 2
Fore
SplineSet
94 846 m 1,0,-1
 306 846 l 1,1,-1
 306 787 l 1,2,-1
 94 787 l 1,3,-1
 94 846 l 1,0,-1
383 0 m 1,4,-1
 304 0 l 1,5,-1
 278 149 l 1,6,-1
 116 149 l 1,7,-1
 90 0 l 1,8,-1
 17 0 l 1,9,-1
 147 700 l 1,10,-1
 252 700 l 1,11,-1
 383 0 l 1,4,-1
196 611 m 1,12,-1
 128 217 l 1,13,-1
 266 217 l 1,14,-1
 196 611 l 1,12,-1
EndSplineSet
EndChar

StartChar: amacron
Encoding: 257 257 196
Width: 367
GlyphClass: 2
Flags: W
AnchorPoint: "Anchor-11" 0 0 basechar 0
AnchorPoint: "Anchor-10" 0 0 basechar 0
AnchorPoint: "Anchor-9" 179 659 basechar 0
AnchorPoint: "Anchor-8" 335 0 basechar 0
AnchorPoint: "Anchor-7" 0 0 basechar 0
LayerCount: 2
Fore
SplineSet
73 659 m 1,0,-1
 285 659 l 1,1,-1
 285 600 l 1,2,-1
 73 600 l 1,3,-1
 73 659 l 1,0,-1
332 0 m 1,4,-1
 263 0 l 1,5,6
 258 19 258 19 255 68 c 1,7,8
 224 -10 224 -10 138 -10 c 0,9,10
 86 -10 86 -10 56 23.5 c 128,-1,11
 26 57 26 57 26 114 c 0,12,13
 26 172 26 172 54.5 209.5 c 128,-1,14
 83 247 83 247 151 279 c 0,15,16
 213 307 213 307 230 321 c 0,17,18
 246 334 246 334 246 361 c 2,19,-1
 246 373 l 2,20,21
 246 448 246 448 181 448 c 0,22,23
 148 448 148 448 129.5 428 c 128,-1,24
 111 408 111 408 111 371 c 2,25,-1
 111 356 l 1,26,-1
 40 356 l 1,27,-1
 40 367 l 2,28,29
 40 437 40 437 77 475 c 128,-1,30
 114 513 114 513 182 513 c 0,31,32
 321 513 321 513 321 361 c 2,33,-1
 321 137 l 2,34,35
 321 49 321 49 332 0 c 1,4,-1
164 56 m 0,36,37
 202 56 202 56 224 86 c 128,-1,38
 246 116 246 116 246 170 c 2,39,-1
 246 271 l 1,40,41
 235 256 235 256 173 224 c 0,42,43
 102 188 102 188 102 125 c 0,44,45
 102 56 102 56 164 56 c 0,36,37
EndSplineSet
EndChar

StartChar: Abreve
Encoding: 258 258 197
Width: 400
GlyphClass: 2
Flags: W
AnchorPoint: "Anchor-11" 0 0 basechar 0
AnchorPoint: "Anchor-10" 0 0 basechar 0
AnchorPoint: "Anchor-9" 200 869 basechar 0
AnchorPoint: "Anchor-8" 383 0 basechar 0
AnchorPoint: "Anchor-7" 200 0 basechar 0
LayerCount: 2
Fore
SplineSet
95 869 m 1,0,-1
 144 869 l 1,1,2
 150 816 150 816 200 816 c 0,3,4
 252 816 252 816 258 869 c 1,5,-1
 306 869 l 1,6,7
 304 819 304 819 276.5 791 c 128,-1,8
 249 763 249 763 200 763 c 128,-1,9
 151 763 151 763 124 790.5 c 128,-1,10
 97 818 97 818 95 869 c 1,0,-1
383 0 m 1,11,-1
 304 0 l 1,12,-1
 278 149 l 1,13,-1
 116 149 l 1,14,-1
 90 0 l 1,15,-1
 17 0 l 1,16,-1
 147 700 l 1,17,-1
 252 700 l 1,18,-1
 383 0 l 1,11,-1
196 611 m 1,19,-1
 128 217 l 1,20,-1
 266 217 l 1,21,-1
 196 611 l 1,19,-1
EndSplineSet
EndChar

StartChar: abreve
Encoding: 259 259 198
Width: 367
GlyphClass: 2
Flags: W
AnchorPoint: "Anchor-11" 0 0 basechar 0
AnchorPoint: "Anchor-10" 0 0 basechar 0
AnchorPoint: "Anchor-9" 179 682 basechar 0
AnchorPoint: "Anchor-8" 335 0 basechar 0
AnchorPoint: "Anchor-7" 0 0 basechar 0
LayerCount: 2
Fore
SplineSet
74 682 m 1,0,-1
 123 682 l 1,1,2
 129 629 129 629 179 629 c 0,3,4
 231 629 231 629 237 682 c 1,5,-1
 285 682 l 1,6,7
 283 632 283 632 255.5 604 c 128,-1,8
 228 576 228 576 179 576 c 128,-1,9
 130 576 130 576 103 603.5 c 128,-1,10
 76 631 76 631 74 682 c 1,0,-1
332 0 m 1,11,-1
 263 0 l 1,12,13
 258 19 258 19 255 68 c 1,14,15
 224 -10 224 -10 138 -10 c 0,16,17
 86 -10 86 -10 56 23.5 c 128,-1,18
 26 57 26 57 26 114 c 0,19,20
 26 172 26 172 54.5 209.5 c 128,-1,21
 83 247 83 247 151 279 c 0,22,23
 213 307 213 307 230 321 c 0,24,25
 246 334 246 334 246 361 c 2,26,-1
 246 373 l 2,27,28
 246 448 246 448 181 448 c 0,29,30
 148 448 148 448 129.5 428 c 128,-1,31
 111 408 111 408 111 371 c 2,32,-1
 111 356 l 1,33,-1
 40 356 l 1,34,-1
 40 367 l 2,35,36
 40 437 40 437 77 475 c 128,-1,37
 114 513 114 513 182 513 c 0,38,39
 321 513 321 513 321 361 c 2,40,-1
 321 137 l 2,41,42
 321 49 321 49 332 0 c 1,11,-1
164 56 m 0,43,44
 202 56 202 56 224 86 c 128,-1,45
 246 116 246 116 246 170 c 2,46,-1
 246 271 l 1,47,48
 235 256 235 256 173 224 c 0,49,50
 102 188 102 188 102 125 c 0,51,52
 102 56 102 56 164 56 c 0,43,44
EndSplineSet
EndChar

StartChar: Aogonek
Encoding: 260 260 199
Width: 400
GlyphClass: 2
Flags: W
AnchorPoint: "Anchor-11" 0 0 basechar 0
AnchorPoint: "Anchor-10" 0 0 basechar 0
AnchorPoint: "Anchor-9" 200 690 basechar 0
AnchorPoint: "Anchor-8" 383 0 basechar 0
AnchorPoint: "Anchor-7" 200 0 basechar 0
LayerCount: 2
Fore
SplineSet
352 -108 m 0,0,1
 368 -108 368 -108 390 -99 c 1,2,-1
 389 -144 l 1,3,4
 361 -155 361 -155 332 -155 c 0,5,6
 248 -155 248 -155 248 -90 c 0,7,8
 248 -34 248 -34 311 0 c 1,9,-1
 304 0 l 1,10,-1
 278 149 l 1,11,-1
 116 149 l 1,12,-1
 90 0 l 1,13,-1
 17 0 l 1,14,-1
 147 700 l 1,15,-1
 252 700 l 1,16,-1
 383 0 l 1,17,-1
 353 0 l 1,18,19
 309 -30 309 -30 309 -70 c 0,20,21
 309 -108 309 -108 352 -108 c 0,0,1
196 611 m 1,22,-1
 128 217 l 1,23,-1
 266 217 l 1,24,-1
 196 611 l 1,22,-1
EndSplineSet
EndChar

StartChar: aogonek
Encoding: 261 261 200
Width: 367
GlyphClass: 2
Flags: W
AnchorPoint: "Anchor-11" 0 0 basechar 0
AnchorPoint: "Anchor-10" 0 0 basechar 0
AnchorPoint: "Anchor-9" 179 503 basechar 0
AnchorPoint: "Anchor-8" 335 0 basechar 0
AnchorPoint: "Anchor-7" 0 0 basechar 0
LayerCount: 2
Fore
SplineSet
301 -108 m 0,0,1
 316 -108 316 -108 339 -99 c 1,2,-1
 338 -144 l 1,3,4
 310 -155 310 -155 281 -155 c 0,5,6
 197 -155 197 -155 197 -90 c 0,7,8
 197 -36 197 -36 263 1 c 1,9,10
 256 21 256 21 255 68 c 1,11,12
 224 -10 224 -10 138 -10 c 0,13,14
 86 -10 86 -10 56 23.5 c 128,-1,15
 26 57 26 57 26 114 c 0,16,17
 26 172 26 172 54.5 209.5 c 128,-1,18
 83 247 83 247 151 279 c 0,19,20
 213 307 213 307 230 321 c 0,21,22
 246 334 246 334 246 361 c 2,23,-1
 246 373 l 2,24,25
 246 448 246 448 181 448 c 0,26,27
 148 448 148 448 129.5 428 c 128,-1,28
 111 408 111 408 111 371 c 2,29,-1
 111 356 l 1,30,-1
 40 356 l 1,31,-1
 40 367 l 2,32,33
 40 437 40 437 77 475 c 128,-1,34
 114 513 114 513 182 513 c 0,35,36
 321 513 321 513 321 361 c 2,37,-1
 321 137 l 2,38,39
 321 49 321 49 332 0 c 1,40,-1
 302 0 l 1,41,42
 258 -35 258 -35 258 -70 c 0,43,44
 258 -108 258 -108 301 -108 c 0,0,1
164 56 m 0,45,46
 202 56 202 56 224 86 c 128,-1,47
 246 116 246 116 246 170 c 2,48,-1
 246 271 l 1,49,50
 235 256 235 256 173 224 c 0,51,52
 102 188 102 188 102 125 c 0,53,54
 102 56 102 56 164 56 c 0,45,46
EndSplineSet
EndChar

StartChar: Cacute
Encoding: 262 262 201
Width: 382
GlyphClass: 2
Flags: W
AnchorPoint: "Anchor-11" 0 0 basechar 0
AnchorPoint: "Anchor-10" 0 0 basechar 0
AnchorPoint: "Anchor-9" 195 880 basechar 0
AnchorPoint: "Anchor-8" 0 0 basechar 0
AnchorPoint: "Anchor-7" 198 0 basechar 0
LayerCount: 2
Fore
SplineSet
208 752 m 1,0,-1
 146 752 l 1,1,-1
 217 880 l 1,2,-1
 304 880 l 1,3,-1
 208 752 l 1,0,-1
196 -10 m 0,4,5
 122 -10 122 -10 81 34 c 128,-1,6
 40 78 40 78 40 157 c 2,7,-1
 40 543 l 2,8,9
 40 622 40 622 80.5 666 c 128,-1,10
 121 710 121 710 196 710 c 128,-1,11
 271 710 271 710 311.5 666 c 128,-1,12
 352 622 352 622 352 543 c 2,13,-1
 352 471 l 1,14,-1
 278 471 l 1,15,-1
 278 548 l 2,16,17
 278 592 278 592 256.5 615.5 c 128,-1,18
 235 639 235 639 198 639 c 128,-1,19
 161 639 161 639 139.5 615.5 c 128,-1,20
 118 592 118 592 118 548 c 2,21,-1
 118 152 l 2,22,23
 118 108 118 108 139.5 84.5 c 128,-1,24
 161 61 161 61 198 61 c 128,-1,25
 235 61 235 61 256.5 84.5 c 128,-1,26
 278 108 278 108 278 152 c 2,27,-1
 278 250 l 1,28,-1
 352 250 l 1,29,-1
 352 157 l 2,30,31
 352 78 352 78 311.5 34 c 128,-1,32
 271 -10 271 -10 196 -10 c 0,4,5
EndSplineSet
EndChar

StartChar: cacute
Encoding: 263 263 202
Width: 359
GlyphClass: 2
Flags: W
AnchorPoint: "Anchor-11" 0 0 basechar 0
AnchorPoint: "Anchor-10" 0 0 basechar 0
AnchorPoint: "Anchor-9" 183 693 basechar 0
AnchorPoint: "Anchor-8" 0 0 basechar 0
AnchorPoint: "Anchor-7" 185 0 basechar 0
LayerCount: 2
Fore
SplineSet
196 565 m 1,0,-1
 134 565 l 1,1,-1
 205 693 l 1,2,-1
 292 693 l 1,3,-1
 196 565 l 1,0,-1
185 -10 m 0,4,5
 113 -10 113 -10 75.5 31.5 c 128,-1,6
 38 73 38 73 38 151 c 2,7,-1
 38 353 l 2,8,9
 38 431 38 431 75.5 472 c 128,-1,10
 113 513 113 513 185 513 c 0,11,12
 256 513 256 513 292.5 471.5 c 128,-1,13
 329 430 329 430 329 353 c 2,14,-1
 329 331 l 1,15,-1
 256 331 l 1,16,-1
 256 360 l 2,17,18
 256 446 256 446 185 446 c 128,-1,19
 114 446 114 446 114 360 c 2,20,-1
 114 144 l 2,21,22
 114 57 114 57 185 57 c 128,-1,23
 256 57 256 57 256 144 c 2,24,-1
 256 183 l 1,25,-1
 329 183 l 1,26,-1
 329 151 l 2,27,28
 329 73 329 73 292.5 31.5 c 128,-1,29
 256 -10 256 -10 185 -10 c 0,4,5
EndSplineSet
EndChar

StartChar: Ccircumflex
Encoding: 264 264 203
Width: 382
GlyphClass: 2
Flags: W
AnchorPoint: "Anchor-11" 0 0 basechar 0
AnchorPoint: "Anchor-10" 0 0 basechar 0
AnchorPoint: "Anchor-9" 195 880 basechar 0
AnchorPoint: "Anchor-8" 0 0 basechar 0
AnchorPoint: "Anchor-7" 198 0 basechar 0
LayerCount: 2
Fore
SplineSet
140 752 m 1,0,-1
 78 752 l 1,1,-1
 156 880 l 1,2,-1
 235 880 l 1,3,-1
 312 752 l 1,4,-1
 251 752 l 1,5,-1
 195 836 l 1,6,-1
 140 752 l 1,0,-1
196 -10 m 0,7,8
 122 -10 122 -10 81 34 c 128,-1,9
 40 78 40 78 40 157 c 2,10,-1
 40 543 l 2,11,12
 40 622 40 622 80.5 666 c 128,-1,13
 121 710 121 710 196 710 c 128,-1,14
 271 710 271 710 311.5 666 c 128,-1,15
 352 622 352 622 352 543 c 2,16,-1
 352 471 l 1,17,-1
 278 471 l 1,18,-1
 278 548 l 2,19,20
 278 592 278 592 256.5 615.5 c 128,-1,21
 235 639 235 639 198 639 c 128,-1,22
 161 639 161 639 139.5 615.5 c 128,-1,23
 118 592 118 592 118 548 c 2,24,-1
 118 152 l 2,25,26
 118 108 118 108 139.5 84.5 c 128,-1,27
 161 61 161 61 198 61 c 128,-1,28
 235 61 235 61 256.5 84.5 c 128,-1,29
 278 108 278 108 278 152 c 2,30,-1
 278 250 l 1,31,-1
 352 250 l 1,32,-1
 352 157 l 2,33,34
 352 78 352 78 311.5 34 c 128,-1,35
 271 -10 271 -10 196 -10 c 0,7,8
EndSplineSet
EndChar

StartChar: ccircumflex
Encoding: 265 265 204
Width: 359
GlyphClass: 2
Flags: W
AnchorPoint: "Anchor-11" 0 0 basechar 0
AnchorPoint: "Anchor-10" 0 0 basechar 0
AnchorPoint: "Anchor-9" 183 693 basechar 0
AnchorPoint: "Anchor-8" 0 0 basechar 0
AnchorPoint: "Anchor-7" 185 0 basechar 0
LayerCount: 2
Fore
SplineSet
128 565 m 1,0,-1
 66 565 l 1,1,-1
 144 693 l 1,2,-1
 223 693 l 1,3,-1
 300 565 l 1,4,-1
 239 565 l 1,5,-1
 183 649 l 1,6,-1
 128 565 l 1,0,-1
185 -10 m 0,7,8
 113 -10 113 -10 75.5 31.5 c 128,-1,9
 38 73 38 73 38 151 c 2,10,-1
 38 353 l 2,11,12
 38 431 38 431 75.5 472 c 128,-1,13
 113 513 113 513 185 513 c 0,14,15
 256 513 256 513 292.5 471.5 c 128,-1,16
 329 430 329 430 329 353 c 2,17,-1
 329 331 l 1,18,-1
 256 331 l 1,19,-1
 256 360 l 2,20,21
 256 446 256 446 185 446 c 128,-1,22
 114 446 114 446 114 360 c 2,23,-1
 114 144 l 2,24,25
 114 57 114 57 185 57 c 128,-1,26
 256 57 256 57 256 144 c 2,27,-1
 256 183 l 1,28,-1
 329 183 l 1,29,-1
 329 151 l 2,30,31
 329 73 329 73 292.5 31.5 c 128,-1,32
 256 -10 256 -10 185 -10 c 0,7,8
EndSplineSet
EndChar

StartChar: Cdotaccent
Encoding: 266 266 205
Width: 382
GlyphClass: 2
Flags: W
AnchorPoint: "Anchor-11" 0 0 basechar 0
AnchorPoint: "Anchor-10" 0 0 basechar 0
AnchorPoint: "Anchor-9" 195 870 basechar 0
AnchorPoint: "Anchor-8" 0 0 basechar 0
AnchorPoint: "Anchor-7" 198 0 basechar 0
LayerCount: 2
Fore
SplineSet
233 762 m 1,0,-1
 158 762 l 1,1,-1
 158 870 l 1,2,-1
 233 870 l 1,3,-1
 233 762 l 1,0,-1
196 -10 m 0,4,5
 122 -10 122 -10 81 34 c 128,-1,6
 40 78 40 78 40 157 c 2,7,-1
 40 543 l 2,8,9
 40 622 40 622 80.5 666 c 128,-1,10
 121 710 121 710 196 710 c 128,-1,11
 271 710 271 710 311.5 666 c 128,-1,12
 352 622 352 622 352 543 c 2,13,-1
 352 471 l 1,14,-1
 278 471 l 1,15,-1
 278 548 l 2,16,17
 278 592 278 592 256.5 615.5 c 128,-1,18
 235 639 235 639 198 639 c 128,-1,19
 161 639 161 639 139.5 615.5 c 128,-1,20
 118 592 118 592 118 548 c 2,21,-1
 118 152 l 2,22,23
 118 108 118 108 139.5 84.5 c 128,-1,24
 161 61 161 61 198 61 c 128,-1,25
 235 61 235 61 256.5 84.5 c 128,-1,26
 278 108 278 108 278 152 c 2,27,-1
 278 250 l 1,28,-1
 352 250 l 1,29,-1
 352 157 l 2,30,31
 352 78 352 78 311.5 34 c 128,-1,32
 271 -10 271 -10 196 -10 c 0,4,5
EndSplineSet
EndChar

StartChar: cdotaccent
Encoding: 267 267 206
Width: 359
GlyphClass: 2
Flags: W
AnchorPoint: "Anchor-11" 0 0 basechar 0
AnchorPoint: "Anchor-10" 0 0 basechar 0
AnchorPoint: "Anchor-9" 183 683 basechar 0
AnchorPoint: "Anchor-8" 0 0 basechar 0
AnchorPoint: "Anchor-7" 185 0 basechar 0
LayerCount: 2
Fore
SplineSet
221 575 m 1,0,-1
 146 575 l 1,1,-1
 146 683 l 1,2,-1
 221 683 l 1,3,-1
 221 575 l 1,0,-1
185 -10 m 0,4,5
 113 -10 113 -10 75.5 31.5 c 128,-1,6
 38 73 38 73 38 151 c 2,7,-1
 38 353 l 2,8,9
 38 431 38 431 75.5 472 c 128,-1,10
 113 513 113 513 185 513 c 0,11,12
 256 513 256 513 292.5 471.5 c 128,-1,13
 329 430 329 430 329 353 c 2,14,-1
 329 331 l 1,15,-1
 256 331 l 1,16,-1
 256 360 l 2,17,18
 256 446 256 446 185 446 c 128,-1,19
 114 446 114 446 114 360 c 2,20,-1
 114 144 l 2,21,22
 114 57 114 57 185 57 c 128,-1,23
 256 57 256 57 256 144 c 2,24,-1
 256 183 l 1,25,-1
 329 183 l 1,26,-1
 329 151 l 2,27,28
 329 73 329 73 292.5 31.5 c 128,-1,29
 256 -10 256 -10 185 -10 c 0,4,5
EndSplineSet
EndChar

StartChar: Ccaron
Encoding: 268 268 207
Width: 382
GlyphClass: 2
Flags: W
AnchorPoint: "Anchor-11" 0 0 basechar 0
AnchorPoint: "Anchor-10" 0 0 basechar 0
AnchorPoint: "Anchor-9" 195 880 basechar 0
AnchorPoint: "Anchor-8" 0 0 basechar 0
AnchorPoint: "Anchor-7" 198 0 basechar 0
LayerCount: 2
Fore
SplineSet
235 752 m 1,0,-1
 156 752 l 1,1,-1
 78 880 l 1,2,-1
 140 880 l 1,3,-1
 195 796 l 1,4,-1
 251 880 l 1,5,-1
 312 880 l 1,6,-1
 235 752 l 1,0,-1
196 -10 m 0,7,8
 122 -10 122 -10 81 34 c 128,-1,9
 40 78 40 78 40 157 c 2,10,-1
 40 543 l 2,11,12
 40 622 40 622 80.5 666 c 128,-1,13
 121 710 121 710 196 710 c 128,-1,14
 271 710 271 710 311.5 666 c 128,-1,15
 352 622 352 622 352 543 c 2,16,-1
 352 471 l 1,17,-1
 278 471 l 1,18,-1
 278 548 l 2,19,20
 278 592 278 592 256.5 615.5 c 128,-1,21
 235 639 235 639 198 639 c 128,-1,22
 161 639 161 639 139.5 615.5 c 128,-1,23
 118 592 118 592 118 548 c 2,24,-1
 118 152 l 2,25,26
 118 108 118 108 139.5 84.5 c 128,-1,27
 161 61 161 61 198 61 c 128,-1,28
 235 61 235 61 256.5 84.5 c 128,-1,29
 278 108 278 108 278 152 c 2,30,-1
 278 250 l 1,31,-1
 352 250 l 1,32,-1
 352 157 l 2,33,34
 352 78 352 78 311.5 34 c 128,-1,35
 271 -10 271 -10 196 -10 c 0,7,8
EndSplineSet
EndChar

StartChar: ccaron
Encoding: 269 269 208
Width: 359
GlyphClass: 2
Flags: W
AnchorPoint: "Anchor-11" 0 0 basechar 0
AnchorPoint: "Anchor-10" 0 0 basechar 0
AnchorPoint: "Anchor-9" 183 693 basechar 0
AnchorPoint: "Anchor-8" 0 0 basechar 0
AnchorPoint: "Anchor-7" 185 0 basechar 0
LayerCount: 2
Fore
SplineSet
223 565 m 1,0,-1
 144 565 l 1,1,-1
 66 693 l 1,2,-1
 128 693 l 1,3,-1
 183 609 l 1,4,-1
 239 693 l 1,5,-1
 300 693 l 1,6,-1
 223 565 l 1,0,-1
185 -10 m 0,7,8
 113 -10 113 -10 75.5 31.5 c 128,-1,9
 38 73 38 73 38 151 c 2,10,-1
 38 353 l 2,11,12
 38 431 38 431 75.5 472 c 128,-1,13
 113 513 113 513 185 513 c 0,14,15
 256 513 256 513 292.5 471.5 c 128,-1,16
 329 430 329 430 329 353 c 2,17,-1
 329 331 l 1,18,-1
 256 331 l 1,19,-1
 256 360 l 2,20,21
 256 446 256 446 185 446 c 128,-1,22
 114 446 114 446 114 360 c 2,23,-1
 114 144 l 2,24,25
 114 57 114 57 185 57 c 128,-1,26
 256 57 256 57 256 144 c 2,27,-1
 256 183 l 1,28,-1
 329 183 l 1,29,-1
 329 151 l 2,30,31
 329 73 329 73 292.5 31.5 c 128,-1,32
 256 -10 256 -10 185 -10 c 0,7,8
EndSplineSet
EndChar

StartChar: Dcaron
Encoding: 270 270 209
Width: 406
GlyphClass: 2
Flags: W
AnchorPoint: "Anchor-11" 0 0 basechar 0
AnchorPoint: "Anchor-10" 103 365 basechar 0
AnchorPoint: "Anchor-9" 194 880 basechar 0
AnchorPoint: "Anchor-8" 0 0 basechar 0
AnchorPoint: "Anchor-7" 194 0 basechar 0
LayerCount: 2
Fore
SplineSet
234 752 m 1,0,-1
 155 752 l 1,1,-1
 77 880 l 1,2,-1
 139 880 l 1,3,-1
 194 796 l 1,4,-1
 250 880 l 1,5,-1
 311 880 l 1,6,-1
 234 752 l 1,0,-1
208 0 m 2,7,-1
 48 0 l 1,8,-1
 48 700 l 1,9,-1
 208 700 l 2,10,11
 366 700 366 700 366 530 c 2,12,-1
 366 170 l 2,13,14
 366 0 366 0 208 0 c 2,7,-1
126 629 m 1,15,-1
 126 71 l 1,16,-1
 206 71 l 2,17,18
 248 71 248 71 268 93.5 c 128,-1,19
 288 116 288 116 288 167 c 2,20,-1
 288 534 l 2,21,22
 288 584 288 584 268.5 606.5 c 128,-1,23
 249 629 249 629 206 629 c 2,24,-1
 126 629 l 1,15,-1
EndSplineSet
EndChar

StartChar: dcaron
Encoding: 271 271 210
Width: 440
GlyphClass: 2
Flags: W
AnchorPoint: "Anchor-11" 0 0 basechar 0
AnchorPoint: "Anchor-10" 283 600 basechar 0
AnchorPoint: "Anchor-9" 298 690 basechar 0
AnchorPoint: "Anchor-8" 0 0 basechar 0
AnchorPoint: "Anchor-7" 185 0 basechar 0
LayerCount: 2
Fore
SplineSet
261 700 m 1,0,-1
 336 700 l 1,1,-1
 336 137 l 2,2,3
 336 49 336 49 347 0 c 1,4,-1
 278 0 l 1,5,6
 271 20 271 20 270 68 c 1,7,8
 237 -10 237 -10 157 -10 c 0,9,10
 40 -10 40 -10 40 136 c 2,11,-1
 40 368 l 2,12,13
 40 513 40 513 157 513 c 0,14,15
 226 513 226 513 261 453 c 1,16,-1
 261 700 l 1,0,-1
374 606 m 1,17,-1
 374 700 l 1,18,-1
 447 700 l 1,19,-1
 447 613 l 1,20,-1
 410 512 l 1,21,-1
 378 512 l 1,22,-1
 402 606 l 1,23,-1
 374 606 l 1,17,-1
180 57 m 0,24,25
 217 57 217 57 239 86.5 c 128,-1,26
 261 116 261 116 261 169 c 2,27,-1
 261 334 l 2,28,29
 261 387 261 387 239 416.5 c 128,-1,30
 217 446 217 446 180 446 c 0,31,32
 116 446 116 446 116 362 c 2,33,-1
 116 142 l 2,34,35
 116 57 116 57 180 57 c 0,24,25
EndSplineSet
EndChar

StartChar: Dcroat
Encoding: 272 272 211
Width: 421
GlyphClass: 2
Flags: W
AnchorPoint: "Anchor-11" 0 0 basechar 0
AnchorPoint: "Anchor-10" 118 365 basechar 0
AnchorPoint: "Anchor-9" 209 690 basechar 0
AnchorPoint: "Anchor-8" 0 0 basechar 0
AnchorPoint: "Anchor-7" 209 0 basechar 0
LayerCount: 2
Fore
SplineSet
62 700 m 1,0,-1
 222 700 l 2,1,2
 381 700 381 700 381 530 c 2,3,-1
 381 170 l 2,4,5
 381 0 381 0 222 0 c 2,6,-1
 62 0 l 1,7,-1
 62 331 l 1,8,-1
 17 331 l 1,9,-1
 17 399 l 1,10,-1
 62 399 l 1,11,-1
 62 700 l 1,0,-1
303 167 m 2,12,-1
 303 534 l 2,13,14
 303 584 303 584 283.5 606.5 c 128,-1,15
 264 629 264 629 221 629 c 2,16,-1
 140 629 l 1,17,-1
 140 399 l 1,18,-1
 218 399 l 1,19,-1
 218 331 l 1,20,-1
 140 331 l 1,21,-1
 140 71 l 1,22,-1
 221 71 l 2,23,24
 263 71 263 71 283 93.5 c 128,-1,25
 303 116 303 116 303 167 c 2,12,-1
EndSplineSet
EndChar

StartChar: dcroat
Encoding: 273 273 212
Width: 384
GlyphClass: 2
Flags: W
AnchorPoint: "Anchor-11" 0 0 basechar 0
AnchorPoint: "Anchor-10" 283 600 basechar 0
AnchorPoint: "Anchor-9" 298 690 basechar 0
AnchorPoint: "Anchor-8" 0 0 basechar 0
AnchorPoint: "Anchor-7" 185 0 basechar 0
LayerCount: 2
Fore
SplineSet
384 628 m 1,0,-1
 384 570 l 1,1,-1
 336 570 l 1,2,-1
 336 137 l 2,3,4
 336 49 336 49 347 0 c 1,5,-1
 278 0 l 1,6,7
 271 20 271 20 270 68 c 1,8,9
 237 -10 237 -10 157 -10 c 0,10,11
 40 -10 40 -10 40 136 c 2,12,-1
 40 368 l 2,13,14
 40 513 40 513 157 513 c 0,15,16
 226 513 226 513 261 453 c 1,17,-1
 261 570 l 1,18,-1
 182 570 l 1,19,-1
 182 628 l 1,20,-1
 261 628 l 1,21,-1
 261 700 l 1,22,-1
 336 700 l 1,23,-1
 336 628 l 1,24,-1
 384 628 l 1,0,-1
180 57 m 0,25,26
 217 57 217 57 239 86.5 c 128,-1,27
 261 116 261 116 261 169 c 2,28,-1
 261 334 l 2,29,30
 261 387 261 387 239 416.5 c 128,-1,31
 217 446 217 446 180 446 c 0,32,33
 116 446 116 446 116 362 c 2,34,-1
 116 142 l 2,35,36
 116 57 116 57 180 57 c 0,25,26
EndSplineSet
EndChar

StartChar: Emacron
Encoding: 274 274 213
Width: 356
GlyphClass: 2
Flags: W
AnchorPoint: "Anchor-11" 0 0 basechar 0
AnchorPoint: "Anchor-10" 0 0 basechar 0
AnchorPoint: "Anchor-9" 191 846 basechar 0
AnchorPoint: "Anchor-8" 335 0 basechar 0
AnchorPoint: "Anchor-7" 191 0 basechar 0
LayerCount: 2
Fore
SplineSet
297 787 m 1,0,-1
 85 787 l 1,1,-1
 85 846 l 1,2,-1
 297 846 l 1,3,-1
 297 787 l 1,0,-1
335 0 m 1,4,-1
 48 0 l 1,5,-1
 48 700 l 1,6,-1
 335 700 l 1,7,-1
 335 629 l 1,8,-1
 126 629 l 1,9,-1
 126 401 l 1,10,-1
 296 401 l 1,11,-1
 296 330 l 1,12,-1
 126 330 l 1,13,-1
 126 71 l 1,14,-1
 335 71 l 1,15,-1
 335 0 l 1,4,-1
EndSplineSet
EndChar

StartChar: emacron
Encoding: 275 275 214
Width: 370
GlyphClass: 2
Flags: W
AnchorPoint: "Anchor-11" 0 0 basechar 0
AnchorPoint: "Anchor-10" 0 0 basechar 0
AnchorPoint: "Anchor-9" 186 659 basechar 0
AnchorPoint: "Anchor-8" 320 0 basechar 0
AnchorPoint: "Anchor-7" 186 0 basechar 0
LayerCount: 2
Fore
SplineSet
80 659 m 1,0,-1
 292 659 l 1,1,-1
 292 600 l 1,2,-1
 80 600 l 1,3,-1
 80 659 l 1,0,-1
187 513 m 0,4,5
 259 513 259 513 297.5 471 c 128,-1,6
 336 429 336 429 336 351 c 2,7,-1
 336 240 l 1,8,-1
 114 240 l 1,9,-1
 114 146 l 2,10,11
 114 57 114 57 188 57 c 0,12,13
 263 57 263 57 263 146 c 2,14,-1
 263 161 l 1,15,-1
 336 161 l 1,16,-1
 336 153 l 2,17,18
 336 75 336 75 297.5 32.5 c 128,-1,19
 259 -10 259 -10 187 -10 c 128,-1,20
 115 -10 115 -10 76.5 32.5 c 128,-1,21
 38 75 38 75 38 153 c 2,22,-1
 38 351 l 2,23,24
 38 429 38 429 76 471 c 128,-1,25
 114 513 114 513 187 513 c 0,4,5
114 358 m 2,26,-1
 114 302 l 1,27,-1
 262 302 l 1,28,-1
 262 358 l 2,29,30
 262 446 262 446 187 446 c 0,31,32
 114 446 114 446 114 358 c 2,26,-1
EndSplineSet
EndChar

StartChar: Ebreve
Encoding: 276 276 215
Width: 356
GlyphClass: 2
Flags: W
AnchorPoint: "Anchor-11" 0 0 basechar 0
AnchorPoint: "Anchor-10" 0 0 basechar 0
AnchorPoint: "Anchor-9" 191 869 basechar 0
AnchorPoint: "Anchor-8" 335 0 basechar 0
AnchorPoint: "Anchor-7" 191 0 basechar 0
LayerCount: 2
Fore
SplineSet
86 869 m 1,0,-1
 135 869 l 1,1,2
 141 816 141 816 191 816 c 0,3,4
 243 816 243 816 249 869 c 1,5,-1
 297 869 l 1,6,7
 295 819 295 819 267.5 791 c 128,-1,8
 240 763 240 763 191 763 c 128,-1,9
 142 763 142 763 115 790.5 c 128,-1,10
 88 818 88 818 86 869 c 1,0,-1
335 0 m 1,11,-1
 48 0 l 1,12,-1
 48 700 l 1,13,-1
 335 700 l 1,14,-1
 335 629 l 1,15,-1
 126 629 l 1,16,-1
 126 401 l 1,17,-1
 296 401 l 1,18,-1
 296 330 l 1,19,-1
 126 330 l 1,20,-1
 126 71 l 1,21,-1
 335 71 l 1,22,-1
 335 0 l 1,11,-1
EndSplineSet
EndChar

StartChar: ebreve
Encoding: 277 277 216
Width: 370
GlyphClass: 2
Flags: W
AnchorPoint: "Anchor-11" 0 0 basechar 0
AnchorPoint: "Anchor-10" 0 0 basechar 0
AnchorPoint: "Anchor-9" 186 682 basechar 0
AnchorPoint: "Anchor-8" 320 0 basechar 0
AnchorPoint: "Anchor-7" 186 0 basechar 0
LayerCount: 2
Fore
SplineSet
81 682 m 1,0,-1
 130 682 l 1,1,2
 136 629 136 629 186 629 c 0,3,4
 238 629 238 629 244 682 c 1,5,-1
 292 682 l 1,6,7
 290 632 290 632 262.5 604 c 128,-1,8
 235 576 235 576 186 576 c 128,-1,9
 137 576 137 576 110 603.5 c 128,-1,10
 83 631 83 631 81 682 c 1,0,-1
187 513 m 0,11,12
 259 513 259 513 297.5 471 c 128,-1,13
 336 429 336 429 336 351 c 2,14,-1
 336 240 l 1,15,-1
 114 240 l 1,16,-1
 114 146 l 2,17,18
 114 57 114 57 188 57 c 0,19,20
 263 57 263 57 263 146 c 2,21,-1
 263 161 l 1,22,-1
 336 161 l 1,23,-1
 336 153 l 2,24,25
 336 75 336 75 297.5 32.5 c 128,-1,26
 259 -10 259 -10 187 -10 c 128,-1,27
 115 -10 115 -10 76.5 32.5 c 128,-1,28
 38 75 38 75 38 153 c 2,29,-1
 38 351 l 2,30,31
 38 429 38 429 76 471 c 128,-1,32
 114 513 114 513 187 513 c 0,11,12
114 358 m 2,33,-1
 114 302 l 1,34,-1
 262 302 l 1,35,-1
 262 358 l 2,36,37
 262 446 262 446 187 446 c 0,38,39
 114 446 114 446 114 358 c 2,33,-1
EndSplineSet
EndChar

StartChar: Edotaccent
Encoding: 278 278 217
Width: 356
GlyphClass: 2
Flags: W
AnchorPoint: "Anchor-11" 0 0 basechar 0
AnchorPoint: "Anchor-10" 0 0 basechar 0
AnchorPoint: "Anchor-9" 191 870 basechar 0
AnchorPoint: "Anchor-8" 335 0 basechar 0
AnchorPoint: "Anchor-7" 191 0 basechar 0
LayerCount: 2
Fore
SplineSet
229 762 m 1,0,-1
 154 762 l 1,1,-1
 154 870 l 1,2,-1
 229 870 l 1,3,-1
 229 762 l 1,0,-1
335 0 m 1,4,-1
 48 0 l 1,5,-1
 48 700 l 1,6,-1
 335 700 l 1,7,-1
 335 629 l 1,8,-1
 126 629 l 1,9,-1
 126 401 l 1,10,-1
 296 401 l 1,11,-1
 296 330 l 1,12,-1
 126 330 l 1,13,-1
 126 71 l 1,14,-1
 335 71 l 1,15,-1
 335 0 l 1,4,-1
EndSplineSet
EndChar

StartChar: edotaccent
Encoding: 279 279 218
Width: 370
GlyphClass: 2
Flags: W
AnchorPoint: "Anchor-11" 0 0 basechar 0
AnchorPoint: "Anchor-10" 0 0 basechar 0
AnchorPoint: "Anchor-9" 186 683 basechar 0
AnchorPoint: "Anchor-8" 320 0 basechar 0
AnchorPoint: "Anchor-7" 186 0 basechar 0
LayerCount: 2
Fore
SplineSet
149 683 m 1,0,-1
 224 683 l 1,1,-1
 224 575 l 1,2,-1
 149 575 l 1,3,-1
 149 683 l 1,0,-1
187 513 m 0,4,5
 259 513 259 513 297.5 471 c 128,-1,6
 336 429 336 429 336 351 c 2,7,-1
 336 240 l 1,8,-1
 114 240 l 1,9,-1
 114 146 l 2,10,11
 114 57 114 57 188 57 c 0,12,13
 263 57 263 57 263 146 c 2,14,-1
 263 161 l 1,15,-1
 336 161 l 1,16,-1
 336 153 l 2,17,18
 336 75 336 75 297.5 32.5 c 128,-1,19
 259 -10 259 -10 187 -10 c 128,-1,20
 115 -10 115 -10 76.5 32.5 c 128,-1,21
 38 75 38 75 38 153 c 2,22,-1
 38 351 l 2,23,24
 38 429 38 429 76 471 c 128,-1,25
 114 513 114 513 187 513 c 0,4,5
114 358 m 2,26,-1
 114 302 l 1,27,-1
 262 302 l 1,28,-1
 262 358 l 2,29,30
 262 446 262 446 187 446 c 0,31,32
 114 446 114 446 114 358 c 2,26,-1
EndSplineSet
EndChar

StartChar: Eogonek
Encoding: 280 280 219
Width: 356
GlyphClass: 2
Flags: W
AnchorPoint: "Anchor-11" 0 0 basechar 0
AnchorPoint: "Anchor-10" 0 0 basechar 0
AnchorPoint: "Anchor-9" 191 690 basechar 0
AnchorPoint: "Anchor-8" 335 0 basechar 0
AnchorPoint: "Anchor-7" 191 0 basechar 0
LayerCount: 2
Fore
SplineSet
335 700 m 1,0,-1
 335 629 l 1,1,-1
 126 629 l 1,2,-1
 126 401 l 1,3,-1
 296 401 l 1,4,-1
 296 330 l 1,5,-1
 126 330 l 1,6,-1
 126 71 l 1,7,-1
 335 71 l 1,8,-1
 335 0 l 1,9,-1
 294 0 l 1,10,11
 254 -30 254 -30 254 -70 c 0,12,13
 254 -108 254 -108 297 -108 c 0,14,15
 312 -108 312 -108 335 -99 c 1,16,-1
 334 -144 l 1,17,18
 306 -155 306 -155 277 -155 c 0,19,20
 193 -155 193 -155 193 -91 c 0,21,22
 193 -37 193 -37 254 0 c 1,23,-1
 48 0 l 1,24,-1
 48 700 l 1,25,-1
 335 700 l 1,0,-1
EndSplineSet
EndChar

StartChar: eogonek
Encoding: 281 281 220
Width: 370
GlyphClass: 2
Flags: W
AnchorPoint: "Anchor-11" 0 0 basechar 0
AnchorPoint: "Anchor-10" 0 0 basechar 0
AnchorPoint: "Anchor-9" 186 503 basechar 0
AnchorPoint: "Anchor-8" 320 0 basechar 0
AnchorPoint: "Anchor-7" 186 0 basechar 0
LayerCount: 2
Fore
SplineSet
187 513 m 0,0,1
 259 513 259 513 297.5 471 c 128,-1,2
 336 429 336 429 336 351 c 2,3,-1
 336 240 l 1,4,-1
 114 240 l 1,5,-1
 114 146 l 2,6,7
 114 57 114 57 188 57 c 0,8,9
 263 57 263 57 263 146 c 2,10,-1
 263 161 l 1,11,-1
 336 161 l 1,12,-1
 336 153 l 2,13,14
 336 62 336 62 285 21 c 1,15,16
 240 -23 240 -23 240 -70 c 0,17,18
 240 -108 240 -108 283 -108 c 0,19,20
 298 -108 298 -108 321 -99 c 1,21,-1
 320 -144 l 1,22,23
 290 -155 290 -155 263 -155 c 0,24,25
 179 -155 179 -155 179 -90 c 0,26,27
 179 -42 179 -42 227 -6 c 1,28,29
 212 -10 212 -10 187 -10 c 0,30,31
 115 -10 115 -10 76.5 32.5 c 128,-1,32
 38 75 38 75 38 153 c 2,33,-1
 38 351 l 2,34,35
 38 429 38 429 76 471 c 128,-1,36
 114 513 114 513 187 513 c 0,0,1
114 358 m 2,37,-1
 114 302 l 1,38,-1
 262 302 l 1,39,-1
 262 358 l 2,40,41
 262 446 262 446 187 446 c 0,42,43
 114 446 114 446 114 358 c 2,37,-1
EndSplineSet
EndChar

StartChar: Ecaron
Encoding: 282 282 221
Width: 356
GlyphClass: 2
Flags: W
AnchorPoint: "Anchor-11" 0 0 basechar 0
AnchorPoint: "Anchor-10" 0 0 basechar 0
AnchorPoint: "Anchor-9" 191 880 basechar 0
AnchorPoint: "Anchor-8" 335 0 basechar 0
AnchorPoint: "Anchor-7" 191 0 basechar 0
LayerCount: 2
Fore
SplineSet
231 752 m 1,0,-1
 152 752 l 1,1,-1
 74 880 l 1,2,-1
 136 880 l 1,3,-1
 191 796 l 1,4,-1
 247 880 l 1,5,-1
 308 880 l 1,6,-1
 231 752 l 1,0,-1
335 0 m 1,7,-1
 48 0 l 1,8,-1
 48 700 l 1,9,-1
 335 700 l 1,10,-1
 335 629 l 1,11,-1
 126 629 l 1,12,-1
 126 401 l 1,13,-1
 296 401 l 1,14,-1
 296 330 l 1,15,-1
 126 330 l 1,16,-1
 126 71 l 1,17,-1
 335 71 l 1,18,-1
 335 0 l 1,7,-1
EndSplineSet
EndChar

StartChar: ecaron
Encoding: 283 283 222
Width: 370
GlyphClass: 2
Flags: W
AnchorPoint: "Anchor-11" 0 0 basechar 0
AnchorPoint: "Anchor-10" 0 0 basechar 0
AnchorPoint: "Anchor-9" 186 693 basechar 0
AnchorPoint: "Anchor-8" 320 0 basechar 0
AnchorPoint: "Anchor-7" 186 0 basechar 0
LayerCount: 2
Fore
SplineSet
303 693 m 1,0,-1
 226 565 l 1,1,-1
 147 565 l 1,2,-1
 69 693 l 1,3,-1
 131 693 l 1,4,-1
 186 609 l 1,5,-1
 242 693 l 1,6,-1
 303 693 l 1,0,-1
187 513 m 0,7,8
 259 513 259 513 297.5 471 c 128,-1,9
 336 429 336 429 336 351 c 2,10,-1
 336 240 l 1,11,-1
 114 240 l 1,12,-1
 114 146 l 2,13,14
 114 57 114 57 188 57 c 0,15,16
 263 57 263 57 263 146 c 2,17,-1
 263 161 l 1,18,-1
 336 161 l 1,19,-1
 336 153 l 2,20,21
 336 75 336 75 297.5 32.5 c 128,-1,22
 259 -10 259 -10 187 -10 c 128,-1,23
 115 -10 115 -10 76.5 32.5 c 128,-1,24
 38 75 38 75 38 153 c 2,25,-1
 38 351 l 2,26,27
 38 429 38 429 76 471 c 128,-1,28
 114 513 114 513 187 513 c 0,7,8
114 358 m 2,29,-1
 114 302 l 1,30,-1
 262 302 l 1,31,-1
 262 358 l 2,32,33
 262 446 262 446 187 446 c 0,34,35
 114 446 114 446 114 358 c 2,29,-1
EndSplineSet
EndChar

StartChar: Gcircumflex
Encoding: 284 284 223
Width: 393
GlyphClass: 2
Flags: W
AnchorPoint: "Anchor-11" 0 0 basechar 0
AnchorPoint: "Anchor-10" 0 0 basechar 0
AnchorPoint: "Anchor-9" 197 880 basechar 0
AnchorPoint: "Anchor-8" 0 0 basechar 0
AnchorPoint: "Anchor-7" 198 0 basechar 0
LayerCount: 2
Fore
SplineSet
142 752 m 1,0,-1
 80 752 l 1,1,-1
 158 880 l 1,2,-1
 237 880 l 1,3,-1
 314 752 l 1,4,-1
 253 752 l 1,5,-1
 197 836 l 1,6,-1
 142 752 l 1,0,-1
198 -10 m 0,7,8
 121 -10 121 -10 80.5 34.5 c 128,-1,9
 40 79 40 79 40 163 c 2,10,-1
 40 538 l 2,11,12
 40 621 40 621 80.5 665.5 c 128,-1,13
 121 710 121 710 198 710 c 0,14,15
 276 710 276 710 316.5 666 c 128,-1,16
 357 622 357 622 357 538 c 2,17,-1
 357 481 l 1,18,-1
 283 481 l 1,19,-1
 283 543 l 2,20,21
 283 639 283 639 200 639 c 0,22,23
 118 639 118 639 118 543 c 2,24,-1
 118 157 l 2,25,26
 118 61 118 61 200 61 c 0,27,28
 283 61 283 61 283 157 c 2,29,-1
 283 314 l 1,30,-1
 206 314 l 1,31,-1
 206 385 l 1,32,-1
 357 385 l 1,33,-1
 357 163 l 2,34,35
 357 79 357 79 316.5 34.5 c 128,-1,36
 276 -10 276 -10 198 -10 c 0,7,8
EndSplineSet
EndChar

StartChar: gcircumflex
Encoding: 285 285 224
Width: 382
GlyphClass: 2
Flags: W
AnchorPoint: "Anchor-11" 0 0 basechar 0
AnchorPoint: "Anchor-10" 0 0 basechar 0
AnchorPoint: "Anchor-9" 181 693 basechar 0
AnchorPoint: "Anchor-8" 0 0 basechar 0
AnchorPoint: "Anchor-7" 191 -155 basechar 0
LayerCount: 2
Fore
SplineSet
237 565 m 1,0,-1
 181 649 l 1,1,-1
 126 565 l 1,2,-1
 64 565 l 1,3,-1
 142 693 l 1,4,-1
 221 693 l 1,5,-1
 298 565 l 1,6,-1
 237 565 l 1,0,-1
268 436 m 1,7,-1
 269 503 l 1,8,-1
 334 503 l 1,9,-1
 334 -15 l 2,10,11
 334 -91 334 -91 299 -128 c 128,-1,12
 264 -165 264 -165 187 -165 c 0,13,14
 43 -165 43 -165 43 -36 c 2,15,-1
 43 -32 l 1,16,-1
 115 -32 l 1,17,-1
 115 -39 l 2,18,19
 115 -102 115 -102 186 -102 c 0,20,21
 259 -102 259 -102 259 -20 c 2,22,-1
 259 72 l 1,23,24
 224 12 224 12 156 12 c 0,25,26
 39 12 39 12 39 158 c 2,27,-1
 39 368 l 2,28,29
 39 513 39 513 156 513 c 0,30,31
 236 513 236 513 268 436 c 1,7,-1
179 79 m 0,32,33
 215 79 215 79 237 108.5 c 128,-1,34
 259 138 259 138 259 191 c 2,35,-1
 259 334 l 2,36,37
 259 387 259 387 237 416.5 c 128,-1,38
 215 446 215 446 179 446 c 0,39,40
 114 446 114 446 114 362 c 2,41,-1
 114 164 l 2,42,43
 114 79 114 79 179 79 c 0,32,33
EndSplineSet
EndChar

StartChar: Gbreve
Encoding: 286 286 225
Width: 393
GlyphClass: 2
Flags: W
AnchorPoint: "Anchor-11" 0 0 basechar 0
AnchorPoint: "Anchor-10" 0 0 basechar 0
AnchorPoint: "Anchor-9" 197 869 basechar 0
AnchorPoint: "Anchor-8" 0 0 basechar 0
AnchorPoint: "Anchor-7" 198 0 basechar 0
LayerCount: 2
Fore
SplineSet
92 869 m 1,0,-1
 141 869 l 1,1,2
 147 816 147 816 197 816 c 0,3,4
 249 816 249 816 255 869 c 1,5,-1
 303 869 l 1,6,7
 301 819 301 819 273.5 791 c 128,-1,8
 246 763 246 763 197 763 c 128,-1,9
 148 763 148 763 121 790.5 c 128,-1,10
 94 818 94 818 92 869 c 1,0,-1
198 -10 m 0,11,12
 121 -10 121 -10 80.5 34.5 c 128,-1,13
 40 79 40 79 40 163 c 2,14,-1
 40 538 l 2,15,16
 40 621 40 621 80.5 665.5 c 128,-1,17
 121 710 121 710 198 710 c 0,18,19
 276 710 276 710 316.5 666 c 128,-1,20
 357 622 357 622 357 538 c 2,21,-1
 357 481 l 1,22,-1
 283 481 l 1,23,-1
 283 543 l 2,24,25
 283 639 283 639 200 639 c 0,26,27
 118 639 118 639 118 543 c 2,28,-1
 118 157 l 2,29,30
 118 61 118 61 200 61 c 0,31,32
 283 61 283 61 283 157 c 2,33,-1
 283 314 l 1,34,-1
 206 314 l 1,35,-1
 206 385 l 1,36,-1
 357 385 l 1,37,-1
 357 163 l 2,38,39
 357 79 357 79 316.5 34.5 c 128,-1,40
 276 -10 276 -10 198 -10 c 0,11,12
EndSplineSet
EndChar

StartChar: gbreve
Encoding: 287 287 226
Width: 382
GlyphClass: 2
Flags: W
AnchorPoint: "Anchor-11" 0 0 basechar 0
AnchorPoint: "Anchor-10" 0 0 basechar 0
AnchorPoint: "Anchor-9" 181 682 basechar 0
AnchorPoint: "Anchor-8" 0 0 basechar 0
AnchorPoint: "Anchor-7" 191 -155 basechar 0
LayerCount: 2
Fore
SplineSet
76 682 m 1,0,-1
 125 682 l 1,1,2
 131 629 131 629 181 629 c 0,3,4
 233 629 233 629 239 682 c 1,5,-1
 287 682 l 1,6,7
 285 632 285 632 257.5 604 c 128,-1,8
 230 576 230 576 181 576 c 128,-1,9
 132 576 132 576 105 603.5 c 128,-1,10
 78 631 78 631 76 682 c 1,0,-1
268 436 m 1,11,-1
 269 503 l 1,12,-1
 334 503 l 1,13,-1
 334 -15 l 2,14,15
 334 -91 334 -91 299 -128 c 128,-1,16
 264 -165 264 -165 187 -165 c 0,17,18
 43 -165 43 -165 43 -36 c 2,19,-1
 43 -32 l 1,20,-1
 115 -32 l 1,21,-1
 115 -39 l 2,22,23
 115 -102 115 -102 186 -102 c 0,24,25
 259 -102 259 -102 259 -20 c 2,26,-1
 259 72 l 1,27,28
 224 12 224 12 156 12 c 0,29,30
 39 12 39 12 39 158 c 2,31,-1
 39 368 l 2,32,33
 39 513 39 513 156 513 c 0,34,35
 236 513 236 513 268 436 c 1,11,-1
179 79 m 0,36,37
 215 79 215 79 237 108.5 c 128,-1,38
 259 138 259 138 259 191 c 2,39,-1
 259 334 l 2,40,41
 259 387 259 387 237 416.5 c 128,-1,42
 215 446 215 446 179 446 c 0,43,44
 114 446 114 446 114 362 c 2,45,-1
 114 164 l 2,46,47
 114 79 114 79 179 79 c 0,36,37
EndSplineSet
EndChar

StartChar: Gdotaccent
Encoding: 288 288 227
Width: 393
GlyphClass: 2
Flags: W
AnchorPoint: "Anchor-11" 0 0 basechar 0
AnchorPoint: "Anchor-10" 0 0 basechar 0
AnchorPoint: "Anchor-9" 197 870 basechar 0
AnchorPoint: "Anchor-8" 0 0 basechar 0
AnchorPoint: "Anchor-7" 198 0 basechar 0
LayerCount: 2
Fore
SplineSet
235 762 m 1,0,-1
 160 762 l 1,1,-1
 160 870 l 1,2,-1
 235 870 l 1,3,-1
 235 762 l 1,0,-1
198 -10 m 0,4,5
 121 -10 121 -10 80.5 34.5 c 128,-1,6
 40 79 40 79 40 163 c 2,7,-1
 40 538 l 2,8,9
 40 621 40 621 80.5 665.5 c 128,-1,10
 121 710 121 710 198 710 c 0,11,12
 276 710 276 710 316.5 666 c 128,-1,13
 357 622 357 622 357 538 c 2,14,-1
 357 481 l 1,15,-1
 283 481 l 1,16,-1
 283 543 l 2,17,18
 283 639 283 639 200 639 c 0,19,20
 118 639 118 639 118 543 c 2,21,-1
 118 157 l 2,22,23
 118 61 118 61 200 61 c 0,24,25
 283 61 283 61 283 157 c 2,26,-1
 283 314 l 1,27,-1
 206 314 l 1,28,-1
 206 385 l 1,29,-1
 357 385 l 1,30,-1
 357 163 l 2,31,32
 357 79 357 79 316.5 34.5 c 128,-1,33
 276 -10 276 -10 198 -10 c 0,4,5
EndSplineSet
EndChar

StartChar: gdotaccent
Encoding: 289 289 228
Width: 382
GlyphClass: 2
Flags: W
AnchorPoint: "Anchor-11" 0 0 basechar 0
AnchorPoint: "Anchor-10" 0 0 basechar 0
AnchorPoint: "Anchor-9" 181 683 basechar 0
AnchorPoint: "Anchor-8" 0 0 basechar 0
AnchorPoint: "Anchor-7" 191 -155 basechar 0
LayerCount: 2
Fore
SplineSet
144 683 m 1,0,-1
 219 683 l 1,1,-1
 219 575 l 1,2,-1
 144 575 l 1,3,-1
 144 683 l 1,0,-1
268 436 m 1,4,-1
 269 503 l 1,5,-1
 334 503 l 1,6,-1
 334 -15 l 2,7,8
 334 -91 334 -91 299 -128 c 128,-1,9
 264 -165 264 -165 187 -165 c 0,10,11
 43 -165 43 -165 43 -36 c 2,12,-1
 43 -32 l 1,13,-1
 115 -32 l 1,14,-1
 115 -39 l 2,15,16
 115 -102 115 -102 186 -102 c 0,17,18
 259 -102 259 -102 259 -20 c 2,19,-1
 259 72 l 1,20,21
 224 12 224 12 156 12 c 0,22,23
 39 12 39 12 39 158 c 2,24,-1
 39 368 l 2,25,26
 39 513 39 513 156 513 c 0,27,28
 236 513 236 513 268 436 c 1,4,-1
179 79 m 0,29,30
 215 79 215 79 237 108.5 c 128,-1,31
 259 138 259 138 259 191 c 2,32,-1
 259 334 l 2,33,34
 259 387 259 387 237 416.5 c 128,-1,35
 215 446 215 446 179 446 c 0,36,37
 114 446 114 446 114 362 c 2,38,-1
 114 164 l 2,39,40
 114 79 114 79 179 79 c 0,29,30
EndSplineSet
EndChar

StartChar: uni0122
Encoding: 290 290 229
Width: 393
GlyphClass: 2
Flags: W
AnchorPoint: "Anchor-11" 0 0 basechar 0
AnchorPoint: "Anchor-10" 0 0 basechar 0
AnchorPoint: "Anchor-9" 197 690 basechar 0
AnchorPoint: "Anchor-8" 0 0 basechar 0
AnchorPoint: "Anchor-7" 198 -184 basechar 0
LayerCount: 2
Fore
SplineSet
198 -10 m 0,0,1
 121 -10 121 -10 80.5 34.5 c 128,-1,2
 40 79 40 79 40 163 c 2,3,-1
 40 538 l 2,4,5
 40 621 40 621 80.5 665.5 c 128,-1,6
 121 710 121 710 198 710 c 0,7,8
 276 710 276 710 316.5 666 c 128,-1,9
 357 622 357 622 357 538 c 2,10,-1
 357 481 l 1,11,-1
 283 481 l 1,12,-1
 283 543 l 2,13,14
 283 639 283 639 200 639 c 0,15,16
 118 639 118 639 118 543 c 2,17,-1
 118 157 l 2,18,19
 118 61 118 61 200 61 c 0,20,21
 283 61 283 61 283 157 c 2,22,-1
 283 314 l 1,23,-1
 206 314 l 1,24,-1
 206 385 l 1,25,-1
 357 385 l 1,26,-1
 357 163 l 2,27,28
 357 79 357 79 316.5 34.5 c 128,-1,29
 276 -10 276 -10 198 -10 c 0,0,1
192 -184 m 1,30,-1
 163 -184 l 1,31,-1
 195 -131 l 1,32,-1
 161 -131 l 1,33,-1
 161 -47 l 1,34,-1
 236 -47 l 1,35,-1
 236 -124 l 1,36,-1
 192 -184 l 1,30,-1
EndSplineSet
EndChar

StartChar: uni0123
Encoding: 291 291 230
Width: 382
GlyphClass: 2
Flags: W
AnchorPoint: "Anchor-11" 0 0 basechar 0
AnchorPoint: "Anchor-10" 0 0 basechar 0
AnchorPoint: "Anchor-9" 181 713 basechar 0
AnchorPoint: "Anchor-8" 0 0 basechar 0
AnchorPoint: "Anchor-7" 191 -155 basechar 0
LayerCount: 2
Fore
SplineSet
184 660 m 1,0,-1
 219 660 l 1,1,-1
 219 575 l 1,2,-1
 143 575 l 1,3,-1
 143 653 l 1,4,-1
 184 713 l 1,5,-1
 213 713 l 1,6,-1
 184 660 l 1,0,-1
268 436 m 1,7,-1
 269 503 l 1,8,-1
 334 503 l 1,9,-1
 334 -15 l 2,10,11
 334 -91 334 -91 299 -128 c 128,-1,12
 264 -165 264 -165 187 -165 c 0,13,14
 43 -165 43 -165 43 -36 c 2,15,-1
 43 -32 l 1,16,-1
 115 -32 l 1,17,-1
 115 -39 l 2,18,19
 115 -102 115 -102 186 -102 c 0,20,21
 259 -102 259 -102 259 -20 c 2,22,-1
 259 72 l 1,23,24
 224 12 224 12 156 12 c 0,25,26
 39 12 39 12 39 158 c 2,27,-1
 39 368 l 2,28,29
 39 513 39 513 156 513 c 0,30,31
 236 513 236 513 268 436 c 1,7,-1
179 79 m 0,32,33
 215 79 215 79 237 108.5 c 128,-1,34
 259 138 259 138 259 191 c 2,35,-1
 259 334 l 2,36,37
 259 387 259 387 237 416.5 c 128,-1,38
 215 446 215 446 179 446 c 0,39,40
 114 446 114 446 114 362 c 2,41,-1
 114 164 l 2,42,43
 114 79 114 79 179 79 c 0,32,33
EndSplineSet
EndChar

StartChar: Hcircumflex
Encoding: 292 292 231
Width: 418
GlyphClass: 2
Flags: W
AnchorPoint: "Anchor-11" 0 0 basechar 0
AnchorPoint: "Anchor-10" 209 540 basechar 0
AnchorPoint: "Anchor-9" 209 880 basechar 0
AnchorPoint: "Anchor-8" 0 0 basechar 0
AnchorPoint: "Anchor-7" 217 0 basechar 0
LayerCount: 2
Fore
SplineSet
154 752 m 1,0,-1
 92 752 l 1,1,-1
 170 880 l 1,2,-1
 249 880 l 1,3,-1
 326 752 l 1,4,-1
 265 752 l 1,5,-1
 209 836 l 1,6,-1
 154 752 l 1,0,-1
126 0 m 1,7,-1
 48 0 l 1,8,-1
 48 700 l 1,9,-1
 126 700 l 1,10,-1
 126 401 l 1,11,-1
 292 401 l 1,12,-1
 292 700 l 1,13,-1
 370 700 l 1,14,-1
 370 0 l 1,15,-1
 292 0 l 1,16,-1
 292 330 l 1,17,-1
 126 330 l 1,18,-1
 126 0 l 1,7,-1
EndSplineSet
EndChar

StartChar: hcircumflex
Encoding: 293 293 232
Width: 385
GlyphClass: 2
Flags: W
AnchorPoint: "Anchor-11" 0 0 basechar 0
AnchorPoint: "Anchor-10" 101 600 basechar 0
AnchorPoint: "Anchor-9" 85 880 basechar 0
AnchorPoint: "Anchor-8" 0 0 basechar 0
AnchorPoint: "Anchor-7" 193 0 basechar 0
LayerCount: 2
Fore
SplineSet
202 752 m 1,0,-1
 141 752 l 1,1,-1
 85 836 l 1,2,-1
 30 752 l 1,3,-1
 -32 752 l 1,4,-1
 46 880 l 1,5,-1
 125 880 l 1,6,-1
 202 752 l 1,0,-1
225 513 m 0,7,8
 341 513 341 513 341 368 c 2,9,-1
 341 0 l 1,10,-1
 265 0 l 1,11,-1
 265 358 l 2,12,13
 265 446 265 446 202 446 c 0,14,15
 166 446 166 446 144.5 416.5 c 128,-1,16
 123 387 123 387 123 334 c 2,17,-1
 123 0 l 1,18,-1
 48 0 l 1,19,-1
 48 700 l 1,20,-1
 123 700 l 1,21,-1
 123 455 l 1,22,23
 157 513 157 513 225 513 c 0,7,8
EndSplineSet
EndChar

StartChar: Hbar
Encoding: 294 294 233
Width: 438
GlyphClass: 2
Flags: W
AnchorPoint: "Anchor-11" 0 0 basechar 0
AnchorPoint: "Anchor-10" 220 540 basechar 0
AnchorPoint: "Anchor-9" 220 690 basechar 0
AnchorPoint: "Anchor-8" 0 0 basechar 0
AnchorPoint: "Anchor-7" 227 0 basechar 0
LayerCount: 2
Fore
SplineSet
381 583 m 1,0,-1
 422 583 l 1,1,-1
 422 518 l 1,2,-1
 381 518 l 1,3,-1
 381 0 l 1,4,-1
 303 0 l 1,5,-1
 303 330 l 1,6,-1
 136 330 l 1,7,-1
 136 0 l 1,8,-1
 58 0 l 1,9,-1
 58 518 l 1,10,-1
 16 518 l 1,11,-1
 16 583 l 1,12,-1
 58 583 l 1,13,-1
 58 700 l 1,14,-1
 136 700 l 1,15,-1
 136 583 l 1,16,-1
 303 583 l 1,17,-1
 303 700 l 1,18,-1
 381 700 l 1,19,-1
 381 583 l 1,0,-1
136 401 m 1,20,-1
 303 401 l 1,21,-1
 303 518 l 1,22,-1
 136 518 l 1,23,-1
 136 401 l 1,20,-1
EndSplineSet
EndChar

StartChar: hbar
Encoding: 295 295 234
Width: 385
GlyphClass: 2
Flags: W
AnchorPoint: "Anchor-11" 0 0 basechar 0
AnchorPoint: "Anchor-10" 101 600 basechar 0
AnchorPoint: "Anchor-9" 85 690 basechar 0
AnchorPoint: "Anchor-8" 0 0 basechar 0
AnchorPoint: "Anchor-7" 193 0 basechar 0
LayerCount: 2
Fore
SplineSet
225 513 m 0,0,1
 341 513 341 513 341 368 c 2,2,-1
 341 0 l 1,3,-1
 265 0 l 1,4,-1
 265 358 l 2,5,6
 265 446 265 446 202 446 c 0,7,8
 166 446 166 446 144.5 416.5 c 128,-1,9
 123 387 123 387 123 334 c 2,10,-1
 123 0 l 1,11,-1
 48 0 l 1,12,-1
 48 570 l 1,13,-1
 0 570 l 1,14,-1
 0 628 l 1,15,-1
 48 628 l 1,16,-1
 48 700 l 1,17,-1
 123 700 l 1,18,-1
 123 628 l 1,19,-1
 202 628 l 1,20,-1
 202 570 l 1,21,-1
 123 570 l 1,22,-1
 123 455 l 1,23,24
 157 513 157 513 225 513 c 0,0,1
EndSplineSet
EndChar

StartChar: Itilde
Encoding: 296 296 235
Width: 173
GlyphClass: 2
Flags: W
AnchorPoint: "Anchor-11" 0 0 basechar 0
AnchorPoint: "Anchor-10" 0 0 basechar 0
AnchorPoint: "Anchor-9" 87 857 basechar 0
AnchorPoint: "Anchor-8" 155 0 basechar 0
AnchorPoint: "Anchor-7" 87 0 basechar 0
LayerCount: 2
Fore
SplineSet
7 766 m 1,0,-1
 -35 789 l 1,1,2
 -2 863 -2 863 46 863 c 0,3,4
 70 863 70 863 99 842 c 0,5,6
 120 827 120 827 131 827 c 0,7,8
 154 827 154 827 170 867 c 1,9,-1
 211 844 l 1,10,11
 179 770 179 770 131 770 c 0,12,13
 105 770 105 770 78 791 c 0,14,15
 57 806 57 806 46 806 c 0,16,17
 23 806 23 806 7 766 c 1,0,-1
126 0 m 1,18,-1
 48 0 l 1,19,-1
 48 700 l 1,20,-1
 126 700 l 1,21,-1
 126 0 l 1,18,-1
EndSplineSet
EndChar

StartChar: itilde
Encoding: 297 297 236
Width: 171
GlyphClass: 2
Flags: W
AnchorPoint: "Anchor-11" 0 0 basechar 0
AnchorPoint: "Anchor-10" 0 0 basechar 0
AnchorPoint: "Anchor-9" 85 670 basechar 0
AnchorPoint: "Anchor-8" 153 0 basechar 0
AnchorPoint: "Anchor-7" 85 0 basechar 0
LayerCount: 2
Fore
SplineSet
5 579 m 1,0,-1
 -37 602 l 1,1,2
 -4 676 -4 676 44 676 c 0,3,4
 68 676 68 676 97 655 c 0,5,6
 118 640 118 640 129 640 c 0,7,8
 152 640 152 640 168 680 c 1,9,-1
 209 657 l 1,10,11
 177 583 177 583 129 583 c 0,12,13
 103 583 103 583 76 604 c 0,14,15
 55 619 55 619 44 619 c 0,16,17
 21 619 21 619 5 579 c 1,0,-1
123 0 m 1,18,-1
 48 0 l 1,19,-1
 48 503 l 1,20,-1
 123 503 l 1,21,-1
 123 0 l 1,18,-1
EndSplineSet
EndChar

StartChar: Imacron
Encoding: 298 298 237
Width: 173
GlyphClass: 2
Flags: W
AnchorPoint: "Anchor-11" 0 0 basechar 0
AnchorPoint: "Anchor-10" 0 0 basechar 0
AnchorPoint: "Anchor-9" 87 846 basechar 0
AnchorPoint: "Anchor-8" 155 0 basechar 0
AnchorPoint: "Anchor-7" 87 0 basechar 0
LayerCount: 2
Fore
SplineSet
193 787 m 1,0,-1
 -19 787 l 1,1,-1
 -19 846 l 1,2,-1
 193 846 l 1,3,-1
 193 787 l 1,0,-1
126 0 m 1,4,-1
 48 0 l 1,5,-1
 48 700 l 1,6,-1
 126 700 l 1,7,-1
 126 0 l 1,4,-1
EndSplineSet
EndChar

StartChar: imacron
Encoding: 299 299 238
Width: 171
GlyphClass: 2
Flags: W
AnchorPoint: "Anchor-11" 0 0 basechar 0
AnchorPoint: "Anchor-10" 0 0 basechar 0
AnchorPoint: "Anchor-9" 85 659 basechar 0
AnchorPoint: "Anchor-8" 153 0 basechar 0
AnchorPoint: "Anchor-7" 85 0 basechar 0
LayerCount: 2
Fore
SplineSet
191 600 m 1,0,-1
 -21 600 l 1,1,-1
 -21 659 l 1,2,-1
 191 659 l 1,3,-1
 191 600 l 1,0,-1
123 0 m 1,4,-1
 48 0 l 1,5,-1
 48 503 l 1,6,-1
 123 503 l 1,7,-1
 123 0 l 1,4,-1
EndSplineSet
EndChar

